<svg xmlns="http://www.w3.org/2000/svg" viewBox="0 0 155.03 82">
	<defs>
		<style>.2017-cls-1{fill-rule:evenodd;}</style>
	</defs>
	<title>2017-logo</title>
	<path d="M51.89,51.93C48.81,51.93,47,48,46,48s-.94,1-.94,2.11S45.16,52,44.22,52c-.57,0-.72-.38-.72-1.13,0-7,9.24-9,9.24-15.71,0-2-.91-3.8-3.36-3.8A2,2,0,0,0,47.21,33c0,.72,1.45,1.35,1.45,2.73a2.3,2.3,0,0,1-2.29,2.58A2.64,2.64,0,0,1,44,35.46c0-3.36,2.42-5.84,6.13-5.84,5,0,6.41,3.86,6.41,5.94,0,5.4-7.26,6.63-10.49,11.66a5,5,0,0,1,2-.35c1.54,0,2.58.79,4.43.79,2.51,0,2.54-3.08,2.8-4s1.7-.53,1.6.16C56.19,48.88,54.4,51.93,51.89,51.93Z"/>
	<path d="M66.71,51.93c-4.27,0-7.1-5.88-7.1-11.15s2.83-11.15,7.1-11.15,7.13,5.88,7.13,11.15S71,51.93,66.71,51.93Zm0-20.77c-1.63,0-3.11,1.26-3.11,9.61s1.48,9.61,3.11,9.61,3.14-1.26,3.14-9.61S68.38,31.16,66.71,31.16Z"/>
	<path d="M88.86,51.58c-.82-.09-3.14-.13-5.56-.13s-4.78,0-5.53.13c-.31,0-.44-.38-.44-1,0-.41.16-.72.53-.72.91,0,3,.22,3.24-.06s.47-.66.47-2.76V38.61a29,29,0,0,1,.22-4.52c-1.23.82-2.83,1.82-3.58,1.82-.41,0-.82-.6-.94-.91-.35-1-.41-1.54.6-1.54a6.89,6.89,0,0,0,3.71-.94c.5-.28.69-.72.91-2.1.19-1.16.41-1.41,1.76-1.41,1.1,0,1.6.38,1.6,1.35A38.6,38.6,0,0,0,85,36.06v11c0,2.1.19,2.48.47,2.76s2.33.09,3.24.06c.38,0,.53.31.53.72C89.27,51.21,89.14,51.61,88.86,51.58Z"/>
	<path d="M100.51,43.1c-.66,4,.16,8.86-3.14,8.86-1.63,0-2.2-1.26-2.2-2.89,0-1.88,1.79-5.78,3.49-7.92a29.82,29.82,0,0,0,4-6.6,4.23,4.23,0,0,1-2.14.53c-1.63,0-3-.63-4.78-.63A2.56,2.56,0,0,0,93.51,36a31.24,31.24,0,0,0-.25,3.64c0,.79-1.7.69-1.54.09.25-1.07,0-8,0-9.17s1.82-.6,1.82-.06A16.42,16.42,0,0,0,93.22,34c1.19-.79,1-4.49,4.05-4.49s2.92,3.77,4.93,3.77c1.79,0,.82-2.36,1-3.21s1.57-.53,1.57.16C104.82,35.9,101.27,38.67,100.51,43.1Z"/>
	<path class="2017-cls-1" d="M140.79,44.55a2.74,2.74,0,0,0,0,.51c.39,1.5.19,1.94-1.31,2.4a4.76,4.76,0,0,1-1.82.15,20.83,20.83,0,0,1-3.21-.49,4.43,4.43,0,0,1-1.64-.9,10,10,0,0,1-3.47-5.13c-.36-1.63.44-3,1.07-4.49a4,4,0,0,1,1.32-1.83c1.51-.95,3.09-1.95,5-1.84a13.29,13.29,0,0,1,3,.82,3.8,3.8,0,0,1,1,.45c.45.3.94.52.8,1.3-.18,1,.08,1,1.05,1a6,6,0,0,1,2.19.3c2.08.67,4.11,1.49,6.2,2.15,1,.32,2.08.38,3.11.62.34.08.83.28.91.52s-.18.72-.66.89a62.39,62.39,0,0,0-6,2.37,13.48,13.48,0,0,1-5.11,1.53,9.46,9.46,0,0,1-1.81-.23Zm-3.2,1.87c.25-.1.77-.15,1-.43a1.33,1.33,0,0,0-.13-1.5c-.86-1.5-1.43-3.11-.57-4.83.48-1,1-1.9,1.5-2.86a1.22,1.22,0,0,0,.12-.82c-.24-.83-2.33-1.58-3.41-1.41a6.43,6.43,0,0,0-3.2,2,3.38,3.38,0,0,0-1,1.18,5.93,5.93,0,0,0,.38,5.51C133.47,45.32,135.23,46.08,137.59,46.43Zm13-6c0-.1,0-.2,0-.3-.86-.32-1.7-.68-2.57-.94a32.08,32.08,0,0,1-3.26-.91,4,4,0,0,0-4.41.76,2.58,2.58,0,0,0-.37,3.11,2.07,2.07,0,0,0,2.22,1.1,18,18,0,0,0,6.15-1.63Z"/>
	<path class="2017-cls-1" d="M12.34,36.81a.33.33,0,0,0,0-.17c-.17-.39-.58-1-.49-1.12a3.16,3.16,0,0,1,1.63-.92,22.4,22.4,0,0,1,3.39.31,2.45,2.45,0,0,0,.43.08,2.71,2.71,0,0,1,2.51,1.3,7.45,7.45,0,0,1,2,5,5.53,5.53,0,0,1-1.74,3.53A8,8,0,0,1,16,46.73a5,5,0,0,1-1.88-.25c-.53-.1-1.06-.26-1.58-.4s-.85-.82-.51-1.68c.27-.66-.15-.72-.48-.63a7.47,7.47,0,0,1-3.87-.34L.93,41.79a1.25,1.25,0,0,1-.55-.18A1,1,0,0,1,0,41c0-.14.29-.35.48-.42,1-.33,2-.53,2.93-.93,1.17-.5,2.25-1.2,3.4-1.75a17.85,17.85,0,0,1,3.25-1.35A6.67,6.67,0,0,1,12.34,36.81Zm1.21,7.89a6.86,6.86,0,0,0,1,.41,4.42,4.42,0,0,0,3.94-.67,4.5,4.5,0,0,0,1.39-1.81,3.94,3.94,0,0,0-.37-3.93,4.68,4.68,0,0,1-.64-1.22,1.94,1.94,0,0,0-1.49-1.39,24.55,24.55,0,0,0-3.06-.33c-.24,0-.7.14-.7.23a1.37,1.37,0,0,0,.24.94c.81.73.79,1.75,1.05,2.67a2.25,2.25,0,0,1,.1,1.23C14.59,42.1,14.07,43.33,13.55,44.7Zm-.74-4.27c.24-1.15-1.38-2.28-2.52-2s-2.49.75-3.69,1.22a4.6,4.6,0,0,0-1.54,1c-.46.48-.33.67.31.78a4,4,0,0,1,1.35.31,6.87,6.87,0,0,0,2.81,1C11.2,43,12.86,42.46,12.81,40.43Z"/>
	<path class="2017-cls-1" d="M124.87,40.23a5.36,5.36,0,0,1-1.22,2.91,3.33,3.33,0,0,1-2.07,1.37c-1.82.64-2.77-.55-3.83-1.61a4.77,4.77,0,0,0-.56-.58,2.41,2.41,0,0,1,.19-4.08,26.51,26.51,0,0,1,2.59-1.3,3.14,3.14,0,0,1,4.21,1.79C124.43,39.33,124.72,39.91,124.87,40.23ZM120.66,43a2.31,2.31,0,0,0,2.44-2.54,2.34,2.34,0,0,0-2.48-2.23,3.06,3.06,0,0,0-2.41,2.94C118.23,41.8,119.88,43,120.66,43Z"/>
	<path class="2017-cls-1" d="M29.25,36.66c2.86-.07,5,2.7,4.45,4.84-.61,2.47-2.27,3.11-4.37,2.69-.54-.1-1-.63-1.53-.82C26.19,42.79,25,41,25.59,39.63a3,3,0,0,1,1-1.23C27.57,37.67,28.64,37,29.25,36.66Zm.83,6.7c1.06.22,2.48-1.52,2.61-2.68.11-1-1.51-2.66-2.53-2.71-1.62-.08-2.45,1-2.62,3.43C27.47,42.33,28.79,43.34,30.08,43.36Z"/>
	<path class="2017-cls-1" d="M22.51,61.26c.54-.86,1-1.67,1.55-2.46.61-.94,1.24-1.88,1.87-2.81.87-1.29,1.67-2.64,2.64-3.85,1.42-1.78,3.15-3.11,5.62-3a3.17,3.17,0,0,1,2.54,4.08,5.81,5.81,0,0,1-3.13,2.88c-2,1.08-4,2.16-6,3.3-1.05.61-2,1.36-3,2A1.74,1.74,0,0,1,22.51,61.26Zm4.85-3.15a12,12,0,0,0,1.2-.56c1.54-.94,3.09-1.87,4.6-2.86a4.22,4.22,0,0,0,1.51-1.42,3.09,3.09,0,0,0,.19-2c-.08-.33-.85-.66-1.32-.68a2.34,2.34,0,0,0-1.46.56,31.61,31.61,0,0,0-2.91,2.73A6.41,6.41,0,0,0,27.36,58.11Z"/>
	<path class="2017-cls-1" d="M111.71,45.61c1.68.22,3.06.39,4.13,1.55a27.11,27.11,0,0,1,3.34,4,24.62,24.62,0,0,0,2.66,3.09c.42.47.88,1,.46,1.63s-1.08.64-1.82.33c-2-.84-4.1-1.55-6.1-2.41a12,12,0,0,1-3-1.69,5.46,5.46,0,0,1-1.85-3.59,1.93,1.93,0,0,1,.37-1,5.49,5.49,0,0,1,.83-1.27A3.94,3.94,0,0,1,111.71,45.61Zm7.08,8.49c.2-.1.43-.14.51-.27a.56.56,0,0,0,0-.51c-.87-1.17-1.78-2.31-2.63-3.49s-1.53-2.14-2.87-2.42a2.67,2.67,0,0,0-2,.32c-.78.6-.46,2.47.4,3,1.42.87,2.86,1.72,4.32,2.51A18,18,0,0,0,118.79,54.1Z"/>
	<path class="2017-cls-1" d="M126.22,22.44c-.54.86-1,1.67-1.55,2.46-.61.94-1.24,1.88-1.87,2.81-.87,1.29-1.66,2.64-2.64,3.85-1.42,1.78-3.15,3.11-5.62,3A3.17,3.17,0,0,1,112,30.5a5.84,5.84,0,0,1,3.14-2.88c2-1.07,4-2.16,6-3.3,1.05-.6,2-1.36,3-2A1.74,1.74,0,0,1,126.22,22.44Zm-4.85,3.15a12.54,12.54,0,0,0-1.2.56c-1.54.94-3.09,1.86-4.6,2.86a4.18,4.18,0,0,0-1.51,1.42,3.07,3.07,0,0,0-.19,2c.08.34.85.67,1.32.69a2.37,2.37,0,0,0,1.46-.56,31.87,31.87,0,0,0,2.91-2.73A6.42,6.42,0,0,0,121.37,25.58Z"/>
	<path class="2017-cls-1" d="M27.11,31.14c-1.68-.22-3.06-.39-4.13-1.55a27,27,0,0,1-3.34-4A24.62,24.62,0,0,0,17,22.51c-.42-.47-.88-1-.46-1.62s1.08-.64,1.82-.33c2,.84,4.1,1.55,6.1,2.41a12.14,12.14,0,0,1,3,1.69,5.48,5.48,0,0,1,1.85,3.59,1.93,1.93,0,0,1-.37,1,5.56,5.56,0,0,1-.84,1.27A3.82,3.82,0,0,1,27.11,31.14ZM20,22.65c-.2.1-.43.14-.51.27a.55.55,0,0,0,0,.51c.87,1.17,1.78,2.31,2.63,3.49s1.53,2.14,2.86,2.42A2.7,2.7,0,0,0,27,29c.78-.6.46-2.47-.4-3-1.42-.87-2.86-1.72-4.32-2.51A17.77,17.77,0,0,0,20,22.65Z"/>
	<path class="2017-cls-1" d="M49.85,58.07c-.69-.76-.95-1.22-1.34-1.42a1.3,1.3,0,0,0-1.11.18c-2.39,1.87-4.75,3.81-7.15,5.69-1.58,1.24-3.26,2.35-4.79,3.65a25.14,25.14,0,0,0-3.29,3.37,1.76,1.76,0,0,0,.2,1.68,1.62,1.62,0,0,0,1.6.05,67,67,0,0,0,5.2-4.37c2.05-1.94,3.93-4.06,6-6a18.76,18.76,0,0,1,3.2-2C48.83,58.65,49.31,58.38,49.85,58.07Z"/>
	<path class="2017-cls-1" d="M101.44,60.67c.69-.76.95-1.22,1.34-1.42a1.29,1.29,0,0,1,1.11.18c2.39,1.87,4.75,3.81,7.15,5.69,1.58,1.24,3.26,2.35,4.79,3.65a25.59,25.59,0,0,1,3.29,3.37,1.77,1.77,0,0,1-.2,1.68,1.63,1.63,0,0,1-1.6.06c-1.79-1.38-3.55-2.82-5.19-4.37-2.05-1.94-3.93-4.06-6-6a19.33,19.33,0,0,0-3.2-2C102.46,61.25,102,61,101.44,60.67Z"/>
	<path class="2017-cls-1" d="M43.3,23.27c-.69.76-.95,1.22-1.34,1.42a1.29,1.29,0,0,1-1.11-.18c-2.4-1.87-4.75-3.81-7.15-5.69-1.58-1.24-3.26-2.35-4.79-3.65a25,25,0,0,1-3.29-3.37,1.76,1.76,0,0,1,.2-1.68,1.63,1.63,0,0,1,1.6-.05,67.62,67.62,0,0,1,5.19,4.37c2.05,1.94,3.93,4.06,6,6a19,19,0,0,0,3.2,2C42.28,22.68,42.75,23,43.3,23.27Z"/>
	<path class="2017-cls-1" d="M108.91,23.64c-1.25-1.83,0-2.77,1.34-3.64,3.12-2,6.28-3.88,9.37-5.88,1.17-.76,2.17-1.76,3.33-2.55a7.31,7.31,0,0,1,1.81-.62,15.09,15.09,0,0,1-.1,2c0,.24-.34.5-.59.66Z"/>
	<path class="2017-cls-1" d="M45.7,11.4c2.31-.06,4,2.18,3.59,3.9a2.68,2.68,0,0,1-3.53,2.17c-.43-.08-.8-.51-1.23-.66-1.3-.46-2.24-1.94-1.79-3a2.44,2.44,0,0,1,.78-1C44.35,12.22,45.22,11.71,45.7,11.4Zm.67,5.4c.85.18,2-1.23,2.11-2.16s-1.22-2.14-2-2.18c-1.31-.06-2,.81-2.11,2.77C44.27,16,45.33,16.79,46.38,16.8Z"/>
	<path class="2017-cls-1" d="M73.85,75.83c2.31-.06,4,2.18,3.59,3.9-.49,2-1.83,2.51-3.53,2.17-.43-.08-.79-.51-1.23-.66-1.3-.46-2.24-1.94-1.79-3a2.49,2.49,0,0,1,.78-1C72.5,76.65,73.37,76.14,73.85,75.83Zm.67,5.4c.86.18,2-1.23,2.1-2.16s-1.21-2.14-2-2.18c-1.31-.06-2,.81-2.11,2.77C72.42,80.4,73.48,81.22,74.52,81.23Z"/>
	<path class="2017-cls-1" d="M73.85,0c2.31-.06,4,2.18,3.59,3.9-.49,2-1.83,2.51-3.53,2.17-.43-.08-.79-.51-1.23-.66-1.3-.46-2.24-1.94-1.79-3a2.49,2.49,0,0,1,.78-1C72.5.82,73.37.31,73.85,0Zm.67,5.4c.86.18,2-1.23,2.1-2.16s-1.21-2.14-2-2.19c-1.31-.06-2,.81-2.11,2.77C72.42,4.57,73.48,5.39,74.52,5.4Z"/>
	<path class="2017-cls-1" d="M101.88,12.14c2.31-.06,4,2.18,3.6,3.9-.49,2-1.83,2.51-3.53,2.18-.43-.08-.79-.51-1.23-.66-1.3-.46-2.24-1.94-1.79-3a2.48,2.48,0,0,1,.78-1C100.53,13,101.39,12.45,101.88,12.14Zm.67,5.41c.86.17,2-1.23,2.1-2.17s-1.21-2.14-2-2.18c-1.31-.06-2,.81-2.11,2.77C100.45,16.71,101.51,17.52,102.55,17.54Z"/>
	<path class="2017-cls-1" d="M45.7,65c2.31-.06,4,2.18,3.59,3.9a2.68,2.68,0,0,1-3.53,2.17c-.43-.08-.8-.51-1.23-.66-1.3-.46-2.24-1.94-1.79-3a2.44,2.44,0,0,1,.78-1C44.35,65.82,45.22,65.31,45.7,65Zm.67,5.41c.85.17,2-1.23,2.11-2.17s-1.22-2.14-2-2.18c-1.31-.06-2,.81-2.11,2.77C44.27,69.57,45.33,70.39,46.38,70.41Z"/>
	<path class="2017-cls-1" d="M101.14,65c2.31-.06,4,2.18,3.59,3.9-.49,2-1.83,2.51-3.53,2.17-.43-.08-.79-.51-1.23-.66-1.3-.46-2.23-1.94-1.79-3a2.48,2.48,0,0,1,.78-1C99.79,65.82,100.66,65.31,101.14,65Zm.67,5.41c.86.17,2-1.23,2.11-2.17s-1.21-2.14-2-2.18c-1.31-.06-2,.81-2.11,2.77C99.71,69.57,100.77,70.39,101.81,70.41Z"/>
	<path class="2017-cls-1" d="M91.85,23.68c-2.3,1.16-5.6,1.19-7.6,1a10.72,10.72,0,0,1-7-3.67,7.66,7.66,0,0,1-.95-2.19c-.52-1.12-1.07-2.23-1.6-3.34l-.53,0c-.3.87-.58,1.76-.91,2.63a5.18,5.18,0,0,1-.72,1.52c-1.84,2.17-3.82,4.21-6.71,4.83-3.79.81-10.88,2.55-12-3.21a32.26,32.26,0,0,1-.76-3.54c-.21-2.31,1.36-5.07,3.59-5.64a19.39,19.39,0,0,1,3-.51,3.89,3.89,0,0,1,3.56,2.4c.3,1.1-.23,3.49-1.68,4.1-2.33,1-3.93.44-4.68-2.16-.09-.35-.45-.63-.68-.94a3.67,3.67,0,0,0-.8.7c-1.35,2-.35,4.85,1.88,6.1,1,.57,1.74,1.61,3,1.73a10.29,10.29,0,0,0,5.74-1c.1-.05.18-.22.26-.22,2.52.24,3.25-2.15,4.57-3.43,1.08-1,1.45-3,1.82-4.6s-2-8,1.8-5.28c2.89,2,1.08,7.27,3.41,9.91,1.63,1.83,3.32,3.69,5.95,4.12,3.2.53,6.18,0,8.47-2.45a4.43,4.43,0,0,0,1.13-4.28c-.36-1.24-.61-2.61-2-3.26a1.68,1.68,0,0,0-2.24.51c.36.76,1.58,1,1.17,2.2a4.56,4.56,0,0,1-2.61,2.52c-1.41.18-3.64-1.82-3.62-3.23A4.84,4.84,0,0,1,87.88,10c.87-.16,1.91.4,2.85.72a6.72,6.72,0,0,1,4.45,5.37c.27,1.41-.49,3-.82,4.55A4.36,4.36,0,0,1,91.85,23.68Z"/>
	<path class="2017-cls-1" d="M56.46,58c2.3-1.16,5.6-1.19,7.6-1a10.73,10.73,0,0,1,7,3.67A7.73,7.73,0,0,1,72,62.87c.52,1.12,1.07,2.23,1.6,3.34l.53,0c.3-.87.58-1.76.91-2.63a5.25,5.25,0,0,1,.72-1.52c1.83-2.17,3.82-4.21,6.71-4.83,3.79-.81,10.88-2.55,12,3.21A32.86,32.86,0,0,1,95.22,64c.21,2.31-1.36,5.07-3.59,5.64a19.38,19.38,0,0,1-3,.51,3.9,3.9,0,0,1-3.56-2.4c-.3-1.1.23-3.49,1.68-4.1,2.33-1,3.93-.44,4.68,2.16.1.35.45.63.68.94a3.72,3.72,0,0,0,.8-.7c1.34-2,.35-4.85-1.88-6.1-1-.57-1.74-1.61-3-1.74a10.3,10.3,0,0,0-5.74,1c-.1.05-.18.22-.26.22-2.52-.24-3.25,2.15-4.57,3.43-1.09,1-1.45,3-1.82,4.61-.25,1.05.09,3.64-.38,4.42,0,.07-1.8,2.13-1.92.95a44.91,44.91,0,0,0-1.55-7.3,7.16,7.16,0,0,0-1.35-2.7c-1.63-1.83-3.32-3.69-5.95-4.12-3.21-.53-6.18,0-8.47,2.45a4.43,4.43,0,0,0-1.12,4.28c.36,1.25.61,2.61,2,3.26a1.67,1.67,0,0,0,2.24-.51c-.36-.76-1.58-1-1.17-2.2a4.56,4.56,0,0,1,2.61-2.52c1.41-.18,3.64,1.82,3.63,3.23a4.84,4.84,0,0,1-3.81,4.94c-.87.16-1.91-.4-2.85-.72a6.72,6.72,0,0,1-4.45-5.37c-.28-1.41.49-3,.82-4.55A4.36,4.36,0,0,1,56.46,58Z"/>
</svg>