<svg xmlns="http://www.w3.org/2000/svg" viewBox="0 0 168.27 43.95"><defs><style>.cls-1{fill:#ccc;}</style></defs><title>button-default</title><g id="Layer_2" data-name="Layer 2"><g id="Layer_1-2" data-name="Layer 1"><path class="cls-1" d="M168.07,43.79c-.36.36-.6-.2-1.1-.2l-1,0c-.51,0-.51.28-1,.28s-.51-.19-1-.19-.51.17-1,.17-.51-.28-1-.28-.51,0-1,0-.51.18-1,.18-.51,0-1,0-.51,0-1,0-.51-.17-1-.17-.51-.07-1-.07-.51.17-1,.17-.51.05-1,.05-.51,0-1,0-.51-.28-1-.28-.51.17-1,.17-.51-.07-1-.07-.51,0-1,0-.51-.13-1-.13-.51.06-1,.06-.51.22-1,.22-.51-.22-1-.22-.51.11-1,.11-.51.08-1,.08-.51.09-1,.09-.51-.13-1-.13-.51-.16-1-.16-.51.23-1,.23-.51-.07-1-.07-.51-.12-1-.12-.51-.12-1-.12-.51.34-1,.34-.51-.18-1-.18-.51.13-1,.13-.51,0-1,0-.51-.31-1-.31-.51,0-1,0-.51,0-1,0h-1c-.51,0-.51.24-1,.24h-1c-.51,0-.51,0-1,0s-.51-.25-1-.25-.51.3-1,.3-.51-.22-1-.22-.51.05-1,.05-.51.14-1,.14-.51-.07-1-.07-.51-.25-1-.25-.51.07-1,.07-.51-.07-1-.07-.51.21-1,.21-.51-.05-1-.05-.51-.17-1-.17-.51,0-1,0-.51.06-1,.06-.51,0-1,0-.51.05-1,.05h-1c-.51,0-.51.09-1,.09s-.51-.16-1-.16-.51.09-1,.09l-1,0c-.51,0-.51,0-1,0s-.51,0-1,0-.51,0-1,0-.51.12-1,.12-.51-.33-1-.33-.51,0-1,0-.51.08-1,.08-.51.15-1,.15-.51,0-1,0-.51-.1-1-.1-.51-.1-1-.1-.51-.13-1-.13-.51,0-1,0-.51,0-1,0-.51.19-1,.19-.51-.11-1-.11-.51-.08-1-.08-.51.27-1,.27-.51-.14-1-.14-.51.14-1,.14-.51-.17-1-.17h-1l-1,0c-.51,0-.51,0-1,0s-.51.21-1,.21-.51-.06-1-.06-.51,0-1,0-.51-.16-1-.16-.51-.1-1-.1-.51.16-1,.16-.51-.12-1-.12-.51.08-1,.08-.51.23-1,.23-.51,0-1,0h-1c-.51,0-.51-.22-1-.22s-.51.19-1,.19h-1c-.51,0-.51,0-1,0s-.51-.34-1-.34-.51.1-1,.1-.51.22-1,.22-.51-.27-1-.27-.51.13-1,.13-.51-.21-1-.21-.51.38-1,.38-.51-.23-1-.23-.51-.15-1-.15-.51.19-1,.19-.51-.12-1-.12-.51.26-1,.26-.51-.34-1-.34-.51.06-1,.06-.51.23-1,.23-.51-.09-1-.09-.51-.11-1-.11-.51-.05-1-.05-.51.31-1,.31-.51-.24-1-.24-.51.17-1,.17-.51,0-1,0h-1c-.51,0-.51-.18-1-.18s-.51.35-1,.35-.51-.33-1-.33-.51.21-1,.21-.51-.17-1-.17-.51-.09-1-.09-.51.36-1,.36-.51-.2-1-.2-.51-.11-1-.11-.51.3-1,.3-.51-.22-1-.22-.51-.11-1-.11l-1,0c-.51,0-.51.33-1,.33s-.51-.23-1-.23-.51.24-1,.24-.51-.15-1-.15-.51.11-1,.11-.51-.2-1-.2-.51,0-1,0-.51-.05-1-.05-.51-.08-1-.08-.51.26-1,.26-.51-.27-1-.27-.51.38-1,.38-.51-.2-1-.2h-1c-.51,0-.51.07-1,.07s-.51,0-1,0-.51-.22-1-.22-.51-.06-1-.06-.51.31-1,.31-.51-.15-1-.15-.51-.08-1-.08h-1c-.51,0-.51.13-1,.13s-.51-.22-1-.22-.51.16-1,.16-.77.48-1.14.12S.11,43.2.11,42.7s.14-.5.14-1,.14-.5.14-1,0-.5,0-1-.13-.5-.13-1,.07-.5.07-1,.18-.5.18-1-.31-.5-.31-1,.19-.5.19-1-.05-.5-.05-1,.08-.5.08-1-.24-.5-.24-1,.23-.5.23-1-.08-.51-.08-1,0-.5,0-1,.09-.5.09-1-.22-.5-.22-1,.27-.5.27-1,0-.5,0-1-.07-.5-.07-1,0-.51,0-1-.09-.5-.09-1-.14-.5-.14-1,.31-.5.31-1-.14-.51-.14-1-.06-.51-.06-1,.23-.5.23-1-.31-.51-.31-1,.06-.51.06-1,.07-.5.07-1-.14-.5-.14-1,.23-.5.23-1,0-.51,0-1,.14-.51.14-1,0-.51,0-1S.4,7.91.4,7.41.23,6.9.23,6.4s0-.51,0-1,.15-.5.15-1-.33-.51-.33-1,.37-.51.37-1-.14-.51-.14-1-.4-.66,0-1S.79.2,1.3.2s.51-.07,1-.07h1c.51,0,.51,0,1,0s.51.17,1,.17.51.1,1,.1.51.08,1,.08.51-.38,1-.38.51.37,1,.37.51-.13,1-.13.51-.07,1-.07.51.05,1,.05.51.05,1,.05.51,0,1,0,.51-.3,1-.3.51.34,1,.34S17,.3,17.53.3s.51.19,1,.19S19,.4,19.56.4s.51-.2,1-.2.51.14,1,.14.51,0,1,0,.51,0,1,0,.51,0,1,0,.51,0,1,0,.51.05,1,.05.51,0,1,0,.51-.07,1-.07.51-.07,1-.07.51-.18,1-.18.51,0,1,0h2c.51,0,.51.08,1,.08h1c.51,0,.51-.07,1-.07s.51.19,1,.19h1c.51,0,.51.09,1,.09s.51,0,1,0,.51-.24,1-.24.51.05,1,.05.51.11,1,.11.51-.19,1-.19.51,0,1,0,.51.12,1,.12.51.21,1,.21.51-.07,1-.07.51-.11,1-.11.51.16,1,.16S51.46.2,52,.2s.51.15,1,.15.51-.1,1-.1.51.13,1,.13.51,0,1,0,.51-.17,1-.17.51.22,1,.22.51-.16,1-.16.51.09,1,.09.51-.07,1-.07.51.09,1,.09.51.06,1,.06.51-.22,1-.22.51.28,1,.28.51-.35,1-.35.51.23,1,.23.51-.12,1-.12.51.08,1,.08.51-.17,1-.17.51.21,1,.21.51,0,1,0,.51-.08,1-.08.51-.1,1-.1.51.26,1,.26.51,0,1,0,.51-.24,1-.24.51.14,1,.14.51.11,1,.11.51-.21,1-.21.51.09,1,.09.51,0,1,0,.51-.1,1-.1.51.33,1,.33.51-.11,1-.11.51.09,1,.09.51-.13,1-.13h1c.51,0,.51-.14,1-.14s.51.28,1,.28.51-.27,1-.27.51,0,1,0,.51.2,1,.2h1c.51,0,.51-.09,1-.09s.51-.09,1-.09.51.22,1,.22.51-.14,1-.14.51-.06,1-.06.51.26,1,.26.51-.34,1-.34.51.18,1,.18.51,0,1,0,.51.09,1,.09.51-.07,1-.07.51.12,1,.12.51-.12,1-.12.51.1,1,.1.51-.21,1-.21.51.2,1,.2.51,0,1,0,.51-.3,1-.3.51.06,1,.06.51,0,1,0,.51.16,1,.16.51-.23,1-.23h1c.51,0,.51.35,1,.35s.51-.32,1-.32.51,0,1,0,.51.22,1,.22.51,0,1,0,.51-.09,1-.09.51-.06,1-.06.51.07,1,.07.51.16,1,.16.51-.18,1-.18l1,0c.51,0,.51,0,1,0s.51-.08,1-.08h1c.51,0,.51,0,1,0s.51.25,1,.25.51-.16,1-.16.51.14,1,.14.51-.15,1-.15h1c.51,0,.51,0,1,0s.51.29,1,.29.51-.28,1-.28.51.23,1,.23.51,0,1,0,.51,0,1,0,.51-.09,1-.09.51.25,1,.25.51-.11,1-.11.51-.17,1-.17.51,0,1,0,.51-.07,1-.07.51.19,1,.19.51,0,1,0h1c.51,0,.51-.11,1-.11s.51.11,1,.11.51-.15,1-.15.51.2,1,.2.51-.29,1-.29.51.13,1,.13.51-.11,1-.11.51.28,1,.28.51,0,1,0,.51-.2,1-.2.51.07,1,.07.51-.13,1-.13h1c.51,0,.79-.31,1.16,0s0,.64,0,1.14-.06.5-.06,1-.1.5-.1,1,0,.5,0,1,.18.5.18,1-.27.5-.27,1,.1.5.1,1,.1.5.1,1,0,.5,0,1-.23.5-.23,1,0,.5,0,1,0,.5,0,1,.24.5.24,1-.18.51-.18,1,0,.5,0,1,.24.5.24,1-.28.5-.28,1-.07.5-.07,1,.15.5.15,1,.12.5.12,1-.22.51-.22,1,.18.5.18,1-.09.5-.09,1-.12.5-.12,1,.12.51.12,1-.15.51-.15,1,.07.5.07,1,0,.51,0,1,.12.51.12,1,0,.5,0,1-.16.5-.16,1,.25.5.25,1-.2.51-.2,1,.14.51.14,1,.12.51.12,1-.33.51-.33,1,0,.51,0,1,.06.51.06,1,0,.5,0,1,.05.51.05,1,0,.51,0,1a2.67,2.67,0,0,0,.07,1C168.2,43.24,168.43,43.43,168.07,43.79Z"/></g></g></svg>