<svg xmlns="http://www.w3.org/2000/svg" viewBox="0 0 505.8 38.62"><defs><style>.cls-1{fill:#fff;}</style></defs><title>date</title><g id="Layer_2" data-name="Layer 2"><g id="Layer_1-2" data-name="Layer 1"><path class="cls-1" d="M0,29.67c4.13,0,4.73-.85,4.73-5.82V7.67c0-5-.6-5.77-4.73-5.77v-1H13.49c11.6,0,16.62,6.72,16.62,14.93s-5,14.93-16.62,14.93H0ZM8.71,23.1c0,5,.55,5.77,4.63,5.77h.2c9.71,0,11.8-7.27,11.8-13.09S23.24,2.69,13.54,2.69H8.71Z"/><path class="cls-1" d="M35.49,29.67c4.13,0,4.73-.85,4.73-5.82V7.67c0-5-.6-5.77-4.73-5.77v-1h22.7l.45,6.57h-1l-.25-1c-.7-2.59-1.19-3.73-5.77-3.73H44.2V14h2.49c5,0,5.77-.6,5.77-4.78h1v11.4h-1c0-4.18-.8-4.78-5.77-4.78H44.2V23.1c0,5,.6,5.77,4.73,5.77h4.28c4.58,0,5.13-1.14,5.77-3.78l.25-1h1l-.4,6.62H35.49Z"/><path class="cls-1" d="M92.38,30.16a5.11,5.11,0,0,0-1.69-2.84,12.89,12.89,0,0,1-9.26,4.23c-8.41,0-15.28-7.12-15.28-15.78S73,0,81.43,0a12.7,12.7,0,0,1,9.26,4.23,5.11,5.11,0,0,0,1.69-2.84h1v11h-1C91,5.87,87.16,1.94,81.63,1.94c-8,0-10.85,7.67-10.85,13.84s2.89,13.79,10.85,13.79c5.52,0,9.36-4,10.75-10.35h1v11Z"/><path class="cls-1" d="M99,29.67c4.13,0,4.73-.85,4.73-5.82V7.67c0-5-.6-5.77-4.73-5.77v-1h22.7l.45,6.57h-1l-.25-1c-.7-2.59-1.19-3.73-5.77-3.73h-7.37V14h2.49c5,0,5.77-.6,5.77-4.78h1v11.4h-1c0-4.18-.8-4.78-5.77-4.78h-2.49V23.1c0,5,.6,5.77,4.73,5.77h4.28c4.58,0,5.13-1.14,5.77-3.78l.25-1h1l-.4,6.62H99Z"/><path class="cls-1" d="M134.55,23.84c0,5,.65,5.82,4.78,5.82v1H128v-1c4.13,0,4.73-.85,4.73-5.82V7.67c0-5-.6-5.77-4.73-5.77v-1h8.46L147,25.09,157.49.85h7.81v1c-4.18,0-4.78.8-4.78,5.77V23.84c0,5,.6,5.82,4.78,5.82v1H151.87v-1c4.13,0,4.73-.85,4.73-5.82V7.62L146.24,31.56h-.65L134.55,6.12Z"/><path class="cls-1" d="M194.53,22.35c0,4.63-3.78,8.36-10.7,8.36H169v-1c4.13,0,4.73-.85,4.73-5.82V7.67c0-5-.6-5.77-4.73-5.77v-1h13.39c6.32,0,9.61,3.33,9.61,7.47a7.3,7.3,0,0,1-3.88,6.17C192,15.68,194.53,18.76,194.53,22.35Zm-16.77-8.46h4.43c3.73,0,5.48-2.49,5.48-5.57s-1.74-5.62-5.48-5.62h-4.43Zm12.39,8.46c0-3.63-2-6.62-6.37-6.62h-6V23.1c0,5,.6,5.77,4.73,5.77h1.29C188.11,28.87,190.15,25.93,190.15,22.35Z"/><path class="cls-1" d="M198.81,29.67c4.13,0,4.73-.85,4.73-5.82V7.67c0-5-.6-5.77-4.73-5.77v-1h22.7L222,7.42h-1l-.25-1c-.7-2.59-1.19-3.73-5.77-3.73h-7.37V14H210c5,0,5.77-.6,5.77-4.78h1v11.4h-1c0-4.18-.8-4.78-5.77-4.78h-2.49V23.1c0,5,.6,5.77,4.73,5.77h4.28c4.58,0,5.13-1.14,5.77-3.78l.25-1h1l-.4,6.62H198.81Z"/><path class="cls-1" d="M247.69,23.34c2.94,3.48,6.27,6,9.26,6.32v1h-8.21l-9.85-13.09h-2.34v6.22c0,5,.6,5.82,4.73,5.82v1H227.83v-1c4.13,0,4.73-.85,4.73-5.82V7.67c0-5-.6-5.77-4.73-5.77v-1H241c6.92,0,10.7,3.78,10.7,8.41,0,4.33-3.24,7.76-8.86,8.36Zm-.45-14.09c0-3.58-2-6.57-6.32-6.57h-4.38V15.83h4.38C245.25,15.83,247.24,12.89,247.24,9.26Z"/><path class="cls-1" d="M274,30.71V29.33c4.42,0,5.27-1.12,5.27-7.71V11.53c0-6.59-1.58-7.25-6.33-7.12V3L283.9.85V21.61c0,6.59.86,7.71,5.27,7.71v1.38Z"/><path class="cls-1" d="M299.81,21.6V19.41H326V21.6Z"/><path class="cls-1" d="M349.72,17.46a2.36,2.36,0,0,1-1.85,1.32,1.33,1.33,0,0,1-1.38-1.25,2.23,2.23,0,0,1,.59-1.52L356,6h-8c-2.83,0-5.34.79-6.06,3.69L341.62,11h-1.45l1.52-8.83H361V3.95l-7.58,8.77c4.75,1.32,8.17,5.27,8.17,9.43,0,5.21-4.81,9.69-11.34,9.69-6.33,0-10-3.82-10-5.87a1.57,1.57,0,0,1,1.78-1.52c2.31,0,1.91,4.61,8.17,4.61,4.62,0,6.66-3.16,6.66-6.92a6.73,6.73,0,0,0-5.67-6.92A13.62,13.62,0,0,0,349.72,17.46Z"/><path class="cls-1" d="M375.83,30.91a3.21,3.21,0,0,1-3.1-3.23,3.15,3.15,0,0,1,3.1-3.16c1.71,0,3.56,1.25,3.56,4.15s-2,7.38-6.06,10l-.73-.79c2.44-2.57,3.36-4.42,3.76-7A1.45,1.45,0,0,1,375.83,30.91Z"/><path class="cls-1" d="M402.77,29.13l12.06-10.81c2.51-2.24,4-5.08,4-7.45,0-4.88-2.9-7.05-6.86-7.05-3.76,0-8.11,4.48-4.42,9.89l-2,2C398.68,11,402.31,1,412.46,1c5.67,0,10.94,3.36,10.94,8.83,0,5.27-5.27,9.23-5.27,9.23l-8.9,7.78h15l-.73,3.82H402.77Z"/><path class="cls-1" d="M440.34,31.83c-6.2,0-11.21-6.92-11.21-15.42S434.15,1,440.34,1,451.62,8,451.62,16.41,446.61,31.83,440.34,31.83Zm0-28.34c-4.42,0-6.46,5.73-6.46,12.92s2,12.92,6.46,12.92,6.53-5.73,6.53-12.92S444.83,3.49,440.34,3.49Z"/><path class="cls-1" d="M459.59,30.71V29.33c4.42,0,5.27-1.12,5.27-7.71V11.53c0-6.59-1.58-7.25-6.33-7.12V3L469.48.85V21.61c0,6.59.86,7.71,5.27,7.71v1.38Z"/><path class="cls-1" d="M505.8,3.95,493.08,29.19c-1.05,2-1.71,3.43-3.69,2.9-1-.26-2.31-1.71-.66-4.28L502.57,6H490.38c-2.83,0-5.34.79-6.06,3.69L484,11h-1.52l1.58-8.83H505.8Z"/></g></g></svg>