<svg xmlns="http://www.w3.org/2000/svg" viewBox="0 0 17.75 17.75">
	<defs>
		<style>.face-cls-1{fill:#ff6000;}</style>
	</defs>
<title>face</title>
	<path class="face-cls-1" d="M8.77,8.56H7.27c-.39,0-.55.16-.55.54q0,.91,0,1.82c0,.37.14.5.52.5H8.76v6.33H2.48A2.37,2.37,0,0,1,0,15.26Q0,8.85,0,2.43A2.37,2.37,0,0,1,2.44,0H15.33a2.37,2.37,0,0,1,2.42,2.4q0,6.47,0,12.94a2.37,2.37,0,0,1-2.39,2.4H11.85l-.25,0V11.42h1.72c.78,0,.79,0,.9-.75.08-.52.14-1,.19-1.56,0-.37-.13-.54-.5-.54H11.58c0-.15,0-.28,0-.42,0-.49,0-1,0-1.47A1,1,0,0,1,12.64,5.6h1.11c.41,0,.57-.15.57-.55s0-1,0-1.52c0-.3-.14-.48-.41-.48a20.17,20.17,0,0,0-2.55.09A2.94,2.94,0,0,0,8.84,5.78c-.08.72-.05,1.46-.07,2.2C8.77,8.15,8.77,8.33,8.77,8.56Z"/>
</svg>