<svg xmlns="http://www.w3.org/2000/svg" viewBox="0 0 509.12 46.7">
	<title>form-border</title>
	<path d="M508.84,46.51c-.35.35-.66-.36-1.16-.36s-.5,0-1,0-.5.51-1,.51-.5-.33-1-.33-.5.3-1,.3-.5-.5-1-.5-.5,0-1,0-.5.32-1,.32-.5.08-1,.08-.5-.05-1-.05-.5-.3-1-.3-.5-.12-1-.12-.5.3-1,.3-.5.1-1,.1-.5.07-1,.07-.5-.51-1-.51-.5.3-1,.3-.5-.13-1-.13-.5.08-1,.08-.5-.24-1-.24-.5.1-1,.1-.5.39-1,.39-.5-.4-1-.4-.5.19-1,.19-.5.14-1,.14-.5.17-1,.17-.5-.23-1-.23-.5-.29-1-.29-.5.41-1,.41-.5-.12-1-.12-.5-.22-1-.22-.5-.22-1-.22-.5.61-1,.61-.5-.32-1-.32-.5.23-1,.23-.5.09-1,.09-.5-.55-1-.55-.5.08-1,.08-.5.08-1,.08l-1,0c-.5,0-.5.43-1,.43h-1c-.5,0-.5-.08-1-.08s-.5-.44-1-.44-.5.53-1,.53-.5-.4-1-.4-.5.1-1,.1-.5.26-1,.26-.5-.12-1-.12-.5-.45-1-.45-.5.13-1,.13-.5-.13-1-.13-.5.38-1,.38-.5-.09-1-.09-.5-.3-1-.3-.5.06-1,.06-.5.11-1,.11-.5.06-1,.06-.5.1-1,.1h-1c-.5,0-.5.16-1,.16s-.5-.28-1-.28-.5.16-1,.16-.5,0-1,0-.5.08-1,.08-.5-.09-1-.09-.5.06-1,.06-.5.21-1,.21-.5-.6-1-.6-.5.07-1,.07-.5.15-1,.15-.5.26-1,.26-.5,0-1,0-.5-.18-1-.18-.5-.17-1-.17-.5-.23-1-.23-.5.05-1,.05-.5.08-1,.08-.5.33-1,.33-.5-.2-1-.2-.5-.15-1-.15-.5.49-1,.49-.5-.26-1-.26-.5.26-1,.26-.5-.3-1-.3-.5,0-1,0-.5,0-1,0-.5-.08-1-.08-.5.38-1,.38-.5-.11-1-.11-.5,0-1,0-.5-.28-1-.28-.5-.19-1-.19-.5.28-1,.28-.5-.22-1-.22-.5.14-1,.14-.5.42-1,.42-.5,0-1,0-.5,0-1,0-.5-.39-1-.39-.5.35-1,.35h-1c-.5,0-.5,0-1,0s-.5-.6-1-.6-.5.19-1,.19-.5.39-1,.39-.5-.48-1-.48-.5.24-1,.24-.5-.37-1-.37-.5.68-1,.68-.5-.4-1-.4-.5-.27-1-.27-.5.35-1,.35-.5-.21-1-.21-.5.46-1,.46-.5-.6-1-.6-.5.12-1,.12-.5.41-1,.41-.5-.16-1-.16-.5-.2-1-.2-.5-.09-1-.09-.5.56-1,.56-.5-.44-1-.44-.5.31-1,.31-.5-.08-1-.08-.5,0-1,0-.5-.33-1-.33-.5.63-1,.63-.5-.58-1-.58-.5.37-1,.37-.5-.31-1-.31-.5-.17-1-.17-.5.64-1,.64-.5-.36-1-.36-.5-.2-1-.2-.5.54-1,.54-.5-.4-1-.4-.5-.19-1-.19-.5,0-1,0-.5.59-1,.59-.5-.4-1-.4-.5.43-1,.43-.5-.26-1-.26-.5.2-1,.2-.5-.37-1-.37-.5,0-1,0-.5-.09-1-.09-.5-.14-1-.14-.5.46-1,.46-.5-.49-1-.49-.5.68-1,.68-.5-.35-1-.35h-1c-.5,0-.5.13-1,.13s-.5.08-1,.08-.5-.39-1-.39-.5-.1-1-.1-.5.56-1,.56-.5-.27-1-.27-.5-.14-1-.14l-1,0c-.5,0-.5.23-1,.23s-.5-.4-1-.4-.5.28-1,.28-.5.29-1,.29-.5,0-1,0-.5-.25-1-.25-.5-.25-1-.25-.5.06-1,.06-.5.24-1,.24-.5-.12-1-.12-.5-.32-1-.32-.5.56-1,.56-.5-.34-1-.34-.5.09-1,.09-.5-.14-1-.14-.5.44-1,.44-.5-.42-1-.42-.5.14-1,.14-.5-.05-1-.05-.5-.16-1-.16-.5.4-1,.4-.5-.48-1-.48l-1,0c-.5,0-.5.12-1,.12s-.5,0-1,0-.5.17-1,.17-.5.25-1,.25-.5-.55-1-.55-.5.25-1,.25-.5.11-1,.11-.5-.41-1-.41-.5.55-1,.55-.5-.11-1-.11-.5-.13-1-.13-.5.26-1,.26-.5-.42-1-.42-.5.07-1,.07-.5-.25-1-.25h-1c-.5,0-.5.14-1,.14s-.5.3-1,.3-.5-.07-1-.07-.5-.27-1-.27-.5.59-1,.59-.5-.66-1-.66-.5.26-1,.26-.5.07-1,.07-.5.18-1,.18-.5.13-1,.13h-1c-.5,0-.5,0-1,0s-.5-.3-1-.3-.5-.18-1-.18-.5-.15-1-.15-.5.68-1,.68-.5-.66-1-.66-.5.23-1,.23-.5.12-1,.12-.5-.09-1-.09-.5-.1-1-.1-.5,0-1,0-.5.54-1,.54-.5-.61-1-.61-.5.3-1,.3-.5-.35-1-.35-.5.16-1,.16-.5.36-1,.36-.5-.26-1-.26-.5,0-1,0-.5-.05-1-.05-.5,0-1,0-.5.06-1,.06-.5-.09-1-.09-.5-.08-1-.08-.5.12-1,.12-.5.13-1,.13-.5.32-1,.32-.5.09-1,.09l-1,0h-1c-.5,0-.5-.15-1-.15h-1c-.5,0-.5.12-1,.12s-.5-.34-1-.34h-1c-.5,0-.5-.15-1-.15s-.5-.07-1-.07-.5.43-1,.43-.5-.09-1-.09-.5-.2-1-.2-.5.33-1,.33-.5.08-1,.08-.5-.21-1-.21-.5-.38-1-.38-.5.13-1,.13-.5.21-1,.21-.5-.29-1-.29-.5.41-1,.41-.5-.26-1-.26-.5.17-1,.17-.5-.24-1-.24-.5.05-1,.05-.5.3-1,.3-.5-.4-1-.4-.5.29-1,.29-.5-.16-1-.16-.5.13-1,.13-.5-.15-1-.15-.5-.1-1-.1-.5.39-1,.39-.5-.5-1-.5-.5.63-1,.63-.5-.41-1-.41-.5.21-1,.21-.5-.14-1-.14-.5.3-1,.3-.5-.38-1-.38-.5,0-1,0-.5.14-1,.14-.5.17-1,.17-.5-.46-1-.46-.5,0-1,0-.5.42-1,.42-.5-.25-1-.25-.5-.19-1-.19-.5.38-1,.38-.5-.17-1-.17-.5.07-1,.07-.5.19-1,.19-.5-.58-1-.58-.5.2-1,.2-.5-.16-1-.16-.5.23-1,.23l-1,0c-.5,0-.5.25-1,.25s-.5-.5-1-.5-.5.49-1,.49-.5,0-1,0-.5-.35-1-.35h-1c-.5,0-.5.16-1,.16s-.5.16-1,.16-.5-.4-1-.4-.5.26-1,.26-.5.11-1,.11-.5-.47-1-.47-.5.61-1,.61-.5-.32-1-.32-.5,0-1,0-.5-.17-1-.17-.5.12-1,.12-.5-.21-1-.21-.5.22-1,.22-.5-.18-1-.18-.5.37-1,.37-.5-.35-1-.35-.5,0-1,0-.5.53-1,.53-.5-.1-1-.1-.5,0-1,0-.5-.29-1-.29-.5.42-1,.42h-1c-.5,0-.5-.62-1-.62s-.5.57-1,.57-.5.07-1,.07-.5-.39-1-.39-.5.08-1,.08-.5.16-1,.16-.5.1-1,.1-.5-.12-1-.12-.5-.28-1-.28-.5.32-1,.32-.5,0-1,0-.5,0-1,0-.5.14-1,.14h-1c-.5,0-.5,0-1,0s-.5-.45-1-.45-.5.29-1,.29-.5-.25-1-.25-.5.27-1,.27h-1c-.5,0-.5.07-1,.07s-.5-.52-1-.52-.5.5-1,.5-.5-.41-1-.41-.5.07-1,.07-.5.08-1,.08-.5.16-1,.16-.5-.45-1-.45-.5.2-1,.2-.5.31-1,.31-.5-.05-1-.05-.5.13-1,.13-.5-.34-1-.34-.5-.05-1-.05h-1c-.5,0-.5.2-1,.2s-.5-.19-1-.19-.5.27-1,.27-.5-.36-1-.36-.5.53-1,.53-.5-.24-1-.24-.5.2-1,.2-.5-.5-1-.5-.5.08-1,.08-.5.37-1,.37-.5-.12-1-.12-.5.23-1,.23l-1,0h-1c-.5,0-.5-.05-1-.05s-.5-.11-1-.11-.5-.18-1-.18-.5,0-1,0-.5.31-1,.31-.5-.49-1-.49-.5.18-1,.18-.5.17-1,.17-.5,0-1,0-.5-.41-1-.41h-2c-.5,0-.5.44-1,.44s-.5-.32-1-.32-.5,0-1,0-.5.43-1,.43-.5-.5-1-.5-.5-.13-1-.13-.5.27-1,.27-.5.21-1,.21-.5-.39-1-.39-.5.32-1,.32-.5-.16-1-.16-.5-.21-1-.21-.5.21-1,.21-.5-.26-1-.26-.5.13-1,.13-.5-.07-1-.07-.5.22-1,.22-.5.08-1,.08-.5-.28-1-.28-.5.45-1,.45-.5-.36-1-.36-.5.26-1,.26-.5.21-1,.21-.5-.59-1-.59-.5.09-1,.09-.5.1-1,.1h-1c-.5,0-.5.09-1,.09s-.5,0-1,0-.5.12-1,.12-.5-.35-1-.35-.5.18-1,.18-.5-.13-1-.13-.5.16-1,.16-.5-.2-1-.2-.5.33-1,.33-.5-.42-1-.42-.5,0-1,0-.5.07-1,.07-.5.29-1,.29-.5-.34-1-.34-.5,0-1,0-.5.13-1,.13-.5.38-1,.38l-1,0c-.5,0-.5.08-1,.08s-.5-.55-1-.55-.5.17-1,.17-.5.06-1,.06-.5.17-1,.17-.5-.27-1-.27-.5,0-1,0-.5-.16-1-.16-.5.42-1,.42-.5-.37-1-.37-.5-.05-1-.05-.5.23-1,.23-.5.23-1,.23-.5-.4-1-.4-.5.2-1,.2-.5-.18-1-.18-.5.52-1,.52-.5-.48-1-.48-.5-.2-1-.2-.5.37-1,.37-.5.1-1,.1-.5.14-1,.14-.5-.38-1-.38-.5-.22-1-.22-.5.21-1,.21-.5.45-1,.45h-1c-.5,0-.5-.28-1-.28s-.5.13-1,.13-.5.17-1,.17-.5-.36-1-.36-.5-.14-1-.14-.5.11-1,.11-.5.1-1,.1-.5-.13-1-.13-.5-.27-1-.27-.5,0-1,0-.5.37-1,.37-.5.21-1,.21-.5-.6-1-.6-.5.4-1,.4-.5-.05-1-.05-.5-.07-1-.07h-1c-.5,0-.5.2-1,.2s-.5.11-1,.11-.5-.26-1-.26-.5.28-1,.28-.5-.19-1-.19-.5-.12-1-.12-.5.22-1,.22-.5-.55-1-.55-.5.55-1,.55-.5-.44-1-.44-.5.22-1,.22-.5.3-1,.3h-1c-.5,0-.5-.59-1-.59s-.5.26-1,.26S19,46,18.5,46s-.5.56-1,.56-.5,0-1,0-.5.06-1,.06-.5-.08-1-.08-.5-.3-1-.3-.5-.13-1-.13-.5.19-1,.19-.51.17-1,.17-.5.19-1,.19-.5-.25-1-.25-.51-.12-1-.12-.5-.15-1-.15-.51.45-1,.45-.5-.55-1-.55-.51.07-1,.07h-1c-.51,0-.51-.13-1-.13s-.78.82-1.14.46.31-.62.31-1.12-.14-.5-.14-1-.07-.5-.07-1-.24-.5-.24-1,.41-.5.41-1-.07-.5-.07-1-.07-.5-.07-1,0-.5,0-1-.16-.5-.16-1,.17-.5.17-1,.26-.5.26-1-.4-.5-.4-1-.17-.5-.17-1,.53-.5.53-1S0,31.9,0,31.4s.33-.5.33-1-.24-.5-.24-1,.42-.5.42-1-.34-.5-.34-1,0-.5,0-1,.23-.5.23-1-.14-.5-.14-1,0-.5,0-1-.1-.5-.1-1,.35-.5.35-1-.55-.5-.55-1,.29-.5.29-1,.17-.5.17-1,.07-.5.07-1,0-.5,0-1-.07-.5-.07-1-.4-.5-.4-1,.34-.5.34-1-.12-.5-.12-1-.14-.5-.14-1,0-.5,0-1,.2-.5.2-1-.28-.5-.28-1,.47-.5.47-1-.44-.5-.44-1,.21-.5.21-1,.21-.5.21-1-.11-.5-.11-1,.14-.5.14-1-.45-.5-.45-1S-.21.52.14.17.83.43,1.32.43s.5-.38,1-.38.5.25,1,.25.5-.22,1-.22.5.37,1,.37.5,0,1,0,.5-.29,1-.29.5.28,1,.28.5.25,1,.25.5-.06,1-.06.5-.34,1-.34.5-.09,1-.09.5.32,1,.32.5.11,1,.11.5,0,1,0,.5-.37,1-.37.5.21,1,.21.5,0,1,0,.5.17,1,.17.5-.17,1-.17.5.15,1,.15.5-.5,1-.5.5.46,1,.46.5-.1,1-.1.5-.08,1-.08.5.11,1,.11.5-.43,1-.43.5.6,1,.6.5-.63,1-.63.5.31,1,.31.5,0,1,0,.5,0,1,0,.5.2,1,.2.5.12,1,.12.5-.49,1-.49.5.34,1,.34.5-.3,1-.3.5.23,1,.23.5-.19,1-.19.5.42,1,.42.5-.06,1-.06.5-.29,1-.29.5-.28,1-.28.5.25,1,.25h1c.5,0,.5.24,1,.24s.5-.44,1-.44.5-.06,1-.06.5.32,1,.32.5,0,1,0,.5.24,1,.24.5-.17,1-.17.5,0,1,0,.5-.35,1-.35.5.18,1,.18.5-.16,1-.16.5.33,1,.33h1c.5,0,.5-.17,1-.17s.5.09,1,.09.5.3,1,.3.5-.3,1-.3.5-.17,1-.17.5.09,1,.09.5.33,1,.33.5,0,1,0,.5-.44,1-.44.5.19,1,.19.5.23,1,.23.5-.05,1-.05.5-.3,1-.3.5.37,1,.37.5-.38,1-.38.5,0,1,0,.5-.12,1-.12h1c.5,0,.5.09,1,.09s.5-.16,1-.16.5.54,1,.54.5,0,1,0,.5,0,1,0,.5-.58,1-.58h1c.5,0,.5.12,1,.12s.5-.12,1-.12.5-.05,1-.05.5.16,1,.16.5.38,1,.38.5,0,1,0,.5-.22,1-.22.5-.17,1-.17.5.32,1,.32.5-.14,1-.14.5,0,1,0,.5-.3,1-.3.5-.17,1-.17.5.39,1,.39.5-.28,1-.28.5,0,1,0,.5.3,1,.3.5.11,1,.11.5-.33,1-.33.5.42,1,.42.5-.36,1-.36.5.28,1,.28.5-.25,1-.25.5-.11,1-.11.5.11,1,.11.5-.28,1-.28.5.35,1,.35.5.24,1,.24.5-.25,1-.25.5.29,1,.29.5-.18,1-.18.5,0,1,0,.5-.39,1-.39.5.48,1,.48.5-.05,1-.05.5-.45,1-.45.5.37,1,.37.5-.08,1-.08.5,0,1,0,.5-.44,1-.44.5.24,1,.24.5-.2,1-.2.5.41,1,.41.5-.13,1-.13.5-.13,1-.13.5.47,1,.47.5-.35,1-.35.5-.32,1-.32.5.31,1,.31h1c.5,0,.5,0,1,0s.5-.06,1-.06.5-.1,1-.1.5-.14,1-.14.5.55,1,.55.5,0,1,0,.5-.41,1-.41.5-.16,1-.16.5.53,1,.53.5-.14,1-.14.5-.25,1-.25.5.33,1,.33.5-.07,1-.07.5-.07,1-.07.5.09,1,.09.5-.41,1-.41h1l1,0c.5,0,.5.11,1,.11s.5.53,1,.53.5-.62,1-.62.5.15,1,.15.5.27,1,.27.5-.43,1-.43.5.63,1,.63.5-.3,1-.3.5.2,1,.2.5-.29,1-.29.5.36,1,.36.5-.31,1-.31h1c.5,0,.5.32,1,.32s.5-.32,1-.32.5.15,1,.15.5.11,1,.11.5-.49,1-.49.5,0,1,0,.5.06,1,.06.5.29,1,.29.5-.26,1-.26.5-.09,1-.09.5.36,1,.36.5.08,1,.08.5-.13,1-.13h1c.5,0,.5-.24,1-.24s.5,0,1,0,.5.28,1,.28.5-.21,1-.21.5.19,1,.19.5,0,1,0,.5.13,1,.13h1c.5,0,.5-.34,1-.34s.5.2,1,.2.5-.29,1-.29.5-.06,1-.06.5.35,1,.35.5.21,1,.21.5-.25,1-.25.5-.3,1-.3.5.34,1,.34.5-.15,1-.15.5-.19,1-.19.5.12,1,.12.5-.12,1-.12.5,0,1,0,.5.12,1,.12.5.09,1,.09.5-.16,1-.16.5,0,1,0,.5-.14,1-.14.5.19,1,.19.5.34,1,.34.5-.53,1-.53.5.43,1,.43.5-.35,1-.35l1,0c.5,0,.5.48,1,.48s.5-.24,1-.24.5-.12,1-.12.5-.16,1-.16.5.63,1,.63.5-.51,1-.51.5,0,1,0,.5.08,1,.08.5,0,1,0,.5-.16,1-.16.5.42,1,.42.5,0,1,0,.5.07,1,.07.5-.08,1-.08.5-.23,1-.23.5.26,1,.26.5-.19,1-.19.5.44,1,.44.5-.52,1-.52.5.52,1,.52.5-.48,1-.48.5.25,1,.25.5-.13,1-.13.5.13,1,.13.5,0,1,0,.5-.34,1-.34.5.38,1,.38.5-.45,1-.45.5.22,1,.22.5-.21,1-.21h1c.5,0,.5.22,1,.22s.5.24,1,.24.5-.12,1-.12.5.15,1,.15.5-.16,1-.16.5-.32,1-.32.5.48,1,.48.5-.44,1-.44.5.37,1,.37.5.2,1,.2l1,0c.5,0,.5-.59,1-.59s.5.56,1,.56.5,0,1,0,.5-.05,1-.05h1c.5,0,.5-.13,1-.13s.5-.11,1-.11.5-.25,1-.25.5.14,1,.14.5.39,1,.39.5-.11,1-.11.5-.44,1-.44.5,0,1,0,.5.08,1,.08.5.3,1,.3.5-.26,1-.26.5.29,1,.29.5-.45,1-.45.5.53,1,.53.5-.34,1-.34.5.16,1,.16.5-.36,1-.36.5.66,1,.66.5-.56,1-.56.5-.1,1-.1.5.13,1,.13.5,0,1,0,.5.58,1,.58.5-.19,1-.19.5-.11,1-.11.5.31,1,.31.5-.09,1-.09.5-.14,1-.14.5-.24,1-.24.5.45,1,.45h1c.5,0,.5-.12,1-.12s.5.07,1,.07.5-.53,1-.53.5.58,1,.58.5-.31,1-.31.5.32,1,.32.5-.25,1-.25.5-.42,1-.42.5.65,1,.65h1c.5,0,.5-.3,1-.3s.5-.25,1-.25.5.48,1,.48.5-.45,1-.45.5.11,1,.11.5.07,1,.07h1c.5,0,.5.08,1,.08s.5-.2,1-.2.5.44,1,.44.5-.11,1-.11.5-.32,1-.32.5.14,1,.14.5-.23,1-.23.5.46,1,.46.5-.16,1-.16.5-.25,1-.25.5-.15,1-.15.5.66,1,.66.5-.23,1-.23.5-.35,1-.35.5,0,1,0,.5.4,1,.4.5.08,1,.08.5-.56,1-.56.5.64,1,.64h1c.5,0,.5-.48,1-.48s.5-.08,1-.08.5.13,1,.13.5-.26,1-.26.5.58,1,.58.5-.24,1-.24.5-.24,1-.24.5.24,1,.24.5-.1,1-.1.5.11,1,.11.5.13,1,.13.5-.46,1-.46.5.27,1,.27.5,0,1,0,.5-.21,1-.21.5.3,1,.3h1c.5,0,.5-.35,1-.35s.5.55,1,.55.5-.06,1-.06.5-.21,1-.21.5.16,1,.16.5-.27,1-.27.5.08,1,.08.5-.22,1-.22.5.25,1,.25.5.35,1,.35.5-.17,1-.17.5-.44,1-.44.5.06,1,.06.5.16,1,.16.5.22,1,.22.5-.3,1-.3.5-.11,1-.11.5.13,1,.13.5.3,1,.3.5-.46,1-.46.5.08,1,.08.5.3,1,.3.5-.4,1-.4.5.68,1,.68.5-.28,1-.28.5,0,1,0,.5.2,1,.2.5-.6,1-.6.5.08,1,.08.5.35,1,.35h1c.5,0,.5-.47,1-.47s.5.14,1,.14.5.29,1,.29.5-.43,1-.43.5.42,1,.42.5-.22,1-.22.5-.05,1-.05.5,0,1,0,.5.07,1,.07.5.07,1,.07.5.38,1,.38l1,0h1c.5,0,.5-.41,1-.41s.5-.19,1-.19.5.31,1,.31.5.23,1,.23.5-.06,1-.06.5-.41,1-.41.5.56,1,.56.5-.15,1-.15.5-.37,1-.37.5.23,1,.23.5.12,1,.12.5-.37,1-.37.5.26,1,.26.5-.21,1-.21.5.06,1,.06.5-.12,1-.12.5.53,1,.53.5-.11,1-.11.5,0,1,0,.5,0,1,0,.5-.16,1-.16.5.28,1,.28.5,0,1,0,.5.05,1,.05.5-.27,1-.27.5-.08,1-.08.5.12,1,.12h1c.5,0,.5-.21,1-.21s.5-.07,1-.07.5.13,1,.13.5-.17,1-.17.5-.12,1-.12h1c.5,0,.5.3,1,.3s.5.21,1,.21.5-.27,1-.27.5.37,1,.37.5-.48,1-.48.5.06,1,.06.5.27,1,.27.5-.47,1-.47.5.62,1,.62.5-.2,1-.2.5-.29,1-.29.5.44,1,.44.5.06,1,.06.5-.34,1-.34.5-.27,1-.27.5.06,1,.06h1c.5,0,.5.6,1,.6s.5-.16,1-.16.5.16,1,.16.5-.66,1-.66.5.25,1,.25.5-.19,1-.19.5.22,1,.22.5-.18,1-.18.5.05,1,.05.5.2,1,.2.5,0,1,0,.5.09,1,.09.5,0,1,0,.5,0,1,0,.5.16,1,.16.5-.38,1-.38.5-.12,1-.12.5.41,1,.41.5-.13,1-.13.5-.27,1-.27.5-.13,1-.13.5.47,1,.47.5,0,1,0,.5,0,1,0,.5-.22,1-.22.5.26,1,.26.5.05,1,.05.5-.18,1-.18.5-.06,1-.06.5-.36,1-.36.5.19,1,.19.5-.13,1-.13.5.51,1,.51.5-.05,1-.05l1,0c.5,0,.5-.25,1-.25s.5.21,1,.21.5-.07,1-.07.5-.26,1-.26.5.44,1,.44.5-.27,1-.27.5.07,1,.07.5-.18,1-.18.5-.07,1-.07.5-.09,1-.09.5,0,1,0,.5.2,1,.2.5-.15,1-.15.5-.08,1-.08.5.44,1,.44.5.14,1,.14.5-.31,1-.31.5.07,1,.07.5.16,1,.16.5-.2,1-.2.5.15,1,.15h1c.5,0,.5,0,1,0s.5-.11,1-.11.51-.24,1-.24.5.23,1,.23.5.21,1,.21.51-.66,1-.66.5.19,1,.19.51-.1,1-.1.5.05,1,.05.51.26,1,.26.51.12,1,.12.51-.42,1-.42.75-.24,1.12.12.13.6.13,1.1,0,.5,0,1-.39.5-.39,1,.34.5.34,1,.1.5.1,1-.44.5-.44,1,.09.5.09,1,.19.5.19,1-.41.5-.41,1,.09.5.09,1,0,.5,0,1,.25.5.25,1-.15.5-.15,1,0,.5,0,1,.16.5.16,1-.07.5-.07,1-.14.5-.14,1-.07.5-.07,1,0,.5,0,1,0,.5,0,1,.44.5.44,1-.38.5-.38,1,.19.5.19,1-.11.5-.11,1,.23.5.23,1-.26.5-.26,1-.08.5-.08,1,.57.5.57,1-.54.5-.54,1,.58.5.58,1-.51.5-.51,1,.39.5.39,1-.52.5-.52,1,.62.5.62,1-.32.5-.32,1,0,.5,0,1,.31.5.31,1-.44.5-.44,1,.48.5.48,1-.2.5-.2,1-.18.5-.18,1-.18.5-.18,1,.33.5.33,1,.27.5.27,1-.16.43,0,.92S509.19,46.15,508.84,46.51ZM1.94,44.6c.35.35.34.36.83.36s.5,0,1,0,.5-.51,1-.51.5.33,1,.33.5-.3,1-.3.5.5,1,.5.5,0,1,0,.5-.32,1-.32.5-.08,1-.08.5.05,1,.05.5.3,1,.3.5.12,1,.12.5-.3,1-.3.5-.1,1-.1.5-.07,1-.07.5.51,1,.51.5-.3,1-.3.5.13,1,.13.5-.08,1-.08.5.24,1,.24.5-.1,1-.1.5-.39,1-.39.5.4,1,.4.5-.19,1-.19.5-.14,1-.14.5-.17,1-.17.5.23,1,.23.5.29,1,.29.5-.41,1-.41.5.12,1,.12.5.22,1,.22.5.22,1,.22.5-.61,1-.61.5.32,1,.32.5-.23,1-.23.5-.09,1-.09.5.55,1,.55.5-.08,1-.08.5-.08,1-.08l1,0c.5,0,.5-.43,1-.43h1c.5,0,.5.08,1,.08s.5.44,1,.44.5-.53,1-.53.5.4,1,.4.5-.1,1-.1.5-.26,1-.26.5.12,1,.12.5.45,1,.45.5-.13,1-.13.5.13,1,.13.5-.38,1-.38.5.09,1,.09.5.3,1,.3.5-.06,1-.06.5-.11,1-.11.5-.06,1-.06.5-.1,1-.1h1c.5,0,.5-.16,1-.16s.5.28,1,.28.5-.16,1-.16.5,0,1,0,.5-.08,1-.08.5.09,1,.09.5-.06,1-.06.5-.21,1-.21.5.6,1,.6.5-.07,1-.07.5-.15,1-.15.5-.26,1-.26.5,0,1,0,.5.18,1,.18.5.17,1,.17.5.23,1,.23.5-.05,1-.05.5-.08,1-.08.5-.33,1-.33.5.2,1,.2.5.15,1,.15.5-.49,1-.49.5.26,1,.26.5-.26,1-.26.5.3,1,.3.5,0,1,0,.5,0,1,0,.5.08,1,.08.5-.38,1-.38.5.11,1,.11.5,0,1,0,.5.28,1,.28.5.19,1,.19.5-.28,1-.28.5.22,1,.22.5-.14,1-.14.5-.42,1-.42.5,0,1,0,.5,0,1,0,.5.39,1,.39.5-.35,1-.35h1c.5,0,.5,0,1,0s.5.6,1,.6.5-.19,1-.19.5-.39,1-.39.5.48,1,.48.5-.24,1-.24.5.37,1,.37.5-.68,1-.68.5.4,1,.4.5.27,1,.27.5-.35,1-.35.5.21,1,.21.5-.46,1-.46.5.6,1,.6.5-.12,1-.12.5-.41,1-.41.5.16,1,.16.5.2,1,.2.5.09,1,.09.5-.56,1-.56.5.44,1,.44.5-.31,1-.31.5.08,1,.08.5,0,1,0,.5.33,1,.33.5-.63,1-.63.5.58,1,.58.5-.37,1-.37.5.31,1,.31.5.17,1,.17.5-.64,1-.64.5.36,1,.36.5.2,1,.2.5-.54,1-.54.5.4,1,.4.5.19,1,.19.5,0,1,0,.5-.59,1-.59.5.4,1,.4.5-.43,1-.43.5.26,1,.26.5-.2,1-.2.5.37,1,.37.5,0,1,0,.5.09,1,.09.5.14,1,.14.5-.46,1-.46.5.49,1,.49.5-.68,1-.68.5.35,1,.35h1c.5,0,.5-.13,1-.13s.5-.08,1-.08.5.39,1,.39.5.1,1,.1.5-.56,1-.56.5.27,1,.27.5.14,1,.14l1,0c.5,0,.5-.23,1-.23s.5.4,1,.4.5-.28,1-.28.5-.29,1-.29.5,0,1,0,.5.25,1,.25.5.25,1,.25.5-.06,1-.06.5-.24,1-.24.5.12,1,.12.5.32,1,.32.5-.56,1-.56.5.34,1,.34.5-.09,1-.09.5.14,1,.14.5-.44,1-.44.5.42,1,.42.5-.14,1-.14.5.05,1,.05.5.16,1,.16.5-.4,1-.4.5.48,1,.48l1,0c.5,0,.5-.12,1-.12s.5,0,1,0,.5-.17,1-.17.5-.25,1-.25.5.55,1,.55.5-.25,1-.25.5-.11,1-.11.5.41,1,.41.5-.55,1-.55.5.11,1,.11.5.13,1,.13.5-.26,1-.26.5.42,1,.42.5-.07,1-.07.5.25,1,.25h1c.5,0,.5-.14,1-.14s.5-.3,1-.3.5.07,1,.07.5.27,1,.27.5-.59,1-.59.5.66,1,.66.5-.26,1-.26.5-.07,1-.07.5-.18,1-.18.5-.13,1-.13h1c.5,0,.5,0,1,0s.5.3,1,.3.5.18,1,.18.5.15,1,.15.5-.68,1-.68.5.66,1,.66.5-.23,1-.23.5-.12,1-.12.5.09,1,.09.5.1,1,.1.5,0,1,0,.5-.54,1-.54.5.61,1,.61.5-.3,1-.3.5.35,1,.35.5-.16,1-.16.5-.36,1-.36.5.26,1,.26.5,0,1,0,.5.05,1,.05.5,0,1,0,.5-.06,1-.06.5.09,1,.09.5.08,1,.08.5-.12,1-.12.5-.13,1-.13.5-.32,1-.32.5-.09,1-.09l1,0h1c.5,0,.5.15,1,.15h1c.5,0,.5-.12,1-.12s.5.34,1,.34h1c.5,0,.5.15,1,.15s.5.07,1,.07.5-.43,1-.43.5.09,1,.09.5.2,1,.2.5-.33,1-.33.5-.08,1-.08.5.21,1,.21.5.38,1,.38.5-.13,1-.13.5-.21,1-.21.5.29,1,.29.5-.41,1-.41.5.26,1,.26.5-.17,1-.17.5.24,1,.24.5-.05,1-.05.5-.3,1-.3.5.4,1,.4.5-.29,1-.29.5.16,1,.16.5-.13,1-.13.5.15,1,.15.5.1,1,.1.5-.39,1-.39.5.5,1,.5.5-.63,1-.63.5.41,1,.41.5-.21,1-.21.5.14,1,.14.5-.3,1-.3.5.38,1,.38.5,0,1,0,.5-.14,1-.14.5-.17,1-.17.5.46,1,.46.5,0,1,0,.5-.42,1-.42.5.25,1,.25.5.19,1,.19.5-.38,1-.38.5.17,1,.17.5-.07,1-.07.5-.19,1-.19.5.58,1,.58.5-.2,1-.2.5.16,1,.16.5-.23,1-.23l1,0c.5,0,.5-.25,1-.25s.5.5,1,.5.5-.49,1-.49.5,0,1,0,.5.35,1,.35h1c.5,0,.5-.16,1-.16s.5-.16,1-.16.5.4,1,.4.5-.26,1-.26.5-.11,1-.11.5.47,1,.47.5-.61,1-.61.5.32,1,.32.5,0,1,0,.5.17,1,.17.5-.12,1-.12.5.21,1,.21.5-.22,1-.22.5.18,1,.18.5-.37,1-.37.5.35,1,.35.5,0,1,0,.5-.53,1-.53.5.1,1,.1.5,0,1,0,.5.29,1,.29.5-.42,1-.42h1c.5,0,.5.62,1,.62s.5-.57,1-.57.5-.07,1-.07.5.39,1,.39.5-.08,1-.08.5-.16,1-.16.5-.1,1-.1.5.12,1,.12.5.28,1,.28.5-.32,1-.32.5,0,1,0,.5,0,1,0,.5-.14,1-.14h1c.5,0,.5,0,1,0s.5.45,1,.45.5-.29,1-.29.5.25,1,.25.5-.27,1-.27h1c.5,0,.5-.07,1-.07s.5.52,1,.52.5-.5,1-.5.5.41,1,.41.5-.07,1-.07.5-.08,1-.08.5-.16,1-.16.5.45,1,.45.5-.2,1-.2.5-.31,1-.31.5.05,1,.05.5-.13,1-.13.5.34,1,.34.5.05,1,.05h1c.5,0,.5-.2,1-.2s.5.19,1,.19.5-.27,1-.27.5.36,1,.36.5-.53,1-.53.5.24,1,.24.5-.2,1-.2.5.5,1,.5.5-.08,1-.08.5-.37,1-.37.5.12,1,.12.5-.23,1-.23l1,0h1c.5,0,.5.05,1,.05s.5.11,1,.11.5.18,1,.18.5,0,1,0,.5-.31,1-.31.5.49,1,.49.5-.18,1-.18.5-.17,1-.17.5,0,1,0,.5.41,1,.41h2c.5,0,.5-.44,1-.44s.5.32,1,.32.5,0,1,0,.5-.43,1-.43.5.5,1,.5.5.13,1,.13.5-.27,1-.27.5-.21,1-.21.5.39,1,.39.5-.32,1-.32.5.16,1,.16.5.21,1,.21.5-.21,1-.21.5.26,1,.26.5-.13,1-.13.5.07,1,.07.5-.22,1-.22.5-.08,1-.08.5.28,1,.28.5-.45,1-.45.5.36,1,.36.5-.26,1-.26.5-.21,1-.21.5.59,1,.59.5-.09,1-.09.5-.1,1-.1h1c.5,0,.5-.09,1-.09s.5,0,1,0,.5-.12,1-.12.5.35,1,.35.5-.18,1-.18.5.13,1,.13.5-.16,1-.16.5.2,1,.2.5-.33,1-.33.5.42,1,.42.5,0,1,0,.5-.07,1-.07.5-.29,1-.29.5.34,1,.34.5,0,1,0,.5-.13,1-.13.5-.38,1-.38l1,0c.5,0,.5-.08,1-.08s.5.55,1,.55.5-.17,1-.17.5-.06,1-.06.5-.17,1-.17.5.27,1,.27.5,0,1,0,.5.16,1,.16.5-.42,1-.42.5.37,1,.37.5.05,1,.05.5-.23,1-.23.5-.23,1-.23.5.4,1,.4.5-.2,1-.2.5.18,1,.18.5-.52,1-.52.5.48,1,.48.5.2,1,.2.5-.37,1-.37.5-.1,1-.1.5-.14,1-.14.5.38,1,.38.5.22,1,.22.5-.21,1-.21.5-.45,1-.45h1c.5,0,.5.28,1,.28s.5-.13,1-.13.5-.17,1-.17.5.36,1,.36.5.14,1,.14.5-.11,1-.11.5-.1,1-.1.5.13,1,.13.5.27,1,.27.5,0,1,0,.5-.37,1-.37.5-.21,1-.21.5.6,1,.6.5-.4,1-.4.5.05,1,.05.5.07,1,.07h1c.5,0,.5-.2,1-.2s.5-.11,1-.11.5.26,1,.26.5-.28,1-.28.5.19,1,.19.5.12,1,.12.5-.22,1-.22.5.55,1,.55.5-.55,1-.55.5.44,1,.44.5-.22,1-.22.5-.3,1-.3h1c.5,0,.5.59,1,.59s.5-.26,1-.26.5.29,1,.29.5-.56,1-.56.5,0,1,0,.5-.06,1-.06.5.08,1,.08.51.3,1,.3.5.13,1,.13.5-.19,1-.19.51-.17,1-.17.5-.19,1-.19.51.25,1,.25.5.12,1,.12.51.15,1,.15.51-.45,1-.45.51.55,1,.55.8.22,1.16-.13.06-.65.06-1.14.13-.5.13-1-.51-.5-.51-1,.36-.5.36-1-.14-.5-.14-1-.07-.5-.07-1-.24-.5-.24-1,.41-.5.41-1-.07-.5-.07-1-.07-.5-.07-1,0-.5,0-1-.16-.5-.16-1,.17-.5.17-1,.26-.5.26-1-.4-.5-.4-1-.17-.5-.17-1,.53-.5.53-1-.55-.5-.55-1,.33-.5.33-1-.24-.5-.24-1,.42-.5.42-1-.34-.5-.34-1,0-.5,0-1,.23-.5.23-1-.14-.5-.14-1,0-.5,0-1-.1-.5-.1-1,.35-.5.35-1-.55-.5-.55-1,.29-.5.29-1,.17-.5.17-1,.07-.5.07-1,0-.5,0-1-.07-.5-.07-1-.4-.5-.4-1,.34-.5.34-1-.12-.5-.12-1-.14-.5-.14-1,0-.5,0-1,.2-.5.2-1-.28-.5-.28-1,.47-.5.47-1a.94.94,0,0,0-.4-.91c-.35-.35-.41-.17-.9-.17s-.5-.21-1-.21-.5.11-1,.11-.5-.14-1-.14-.5.45-1,.45-.5.13-1,.13-.5-.34-1-.34-.5.38-1,.38-.5-.25-1-.25-.5.22-1,.22-.5-.37-1-.37-.5,0-1,0-.5.29-1,.29-.5-.28-1-.28-.5-.25-1-.25-.5.06-1,.06-.5.34-1,.34-.5.09-1,.09-.5-.32-1-.32-.5-.11-1-.11-.5,0-1,0-.5.37-1,.37-.5-.21-1-.21-.5,0-1,0-.5-.17-1-.17-.5.17-1,.17-.5-.15-1-.15-.5.5-1,.5-.5-.46-1-.46-.5.1-1,.1-.5.08-1,.08-.5-.11-1-.11-.5.43-1,.43-.5-.6-1-.6-.5.63-1,.63-.5-.31-1-.31-.5,0-1,0-.5,0-1,0-.5-.2-1-.2-.5-.12-1-.12-.5.49-1,.49-.5-.34-1-.34-.5.3-1,.3-.5-.23-1-.23-.5.19-1,.19-.5-.42-1-.42-.5.06-1,.06-.5.29-1,.29-.5.28-1,.28-.5-.25-1-.25h-1c-.5,0-.5-.24-1-.24s-.5.44-1,.44-.5.06-1,.06-.5-.32-1-.32-.5,0-1,0-.5-.24-1-.24-.5.17-1,.17-.5,0-1,0-.5.35-1,.35-.5-.18-1-.18-.5.16-1,.16-.5-.33-1-.33h-1c-.5,0-.5.17-1,.17s-.5-.09-1-.09-.5-.3-1-.3-.5.3-1,.3-.5.17-1,.17-.5-.09-1-.09-.5-.33-1-.33-.5,0-1,0-.5.44-1,.44-.5-.19-1-.19-.5-.23-1-.23-.5.05-1,.05-.5.3-1,.3-.5-.37-1-.37-.5.38-1,.38-.5,0-1,0-.5.12-1,.12h-1c-.5,0-.5-.09-1-.09s-.5.16-1,.16-.5-.54-1-.54-.5,0-1,0-.5,0-1,0-.5.58-1,.58h-1c-.5,0-.5-.12-1-.12s-.5.12-1,.12-.5.05-1,.05-.5-.16-1-.16-.5-.38-1-.38-.5,0-1,0-.5.22-1,.22-.5.17-1,.17-.5-.32-1-.32-.5.14-1,.14-.5,0-1,0-.5.3-1,.3-.5.17-1,.17-.5-.39-1-.39-.5.28-1,.28-.5,0-1,0-.5-.3-1-.3-.5-.11-1-.11-.5.33-1,.33-.5-.42-1-.42-.5.36-1,.36-.5-.28-1-.28-.5.25-1,.25-.5.11-1,.11-.5-.11-1-.11-.5.28-1,.28-.5-.35-1-.35-.5-.24-1-.24-.5.25-1,.25-.5-.29-1-.29-.5.18-1,.18-.5,0-1,0-.5.39-1,.39-.5-.48-1-.48-.5.05-1,.05-.5.45-1,.45-.5-.37-1-.37-.5.08-1,.08-.5,0-1,0-.5.44-1,.44-.5-.24-1-.24-.5.2-1,.2-.5-.41-1-.41-.5.13-1,.13-.5.13-1,.13-.5-.47-1-.47-.5.35-1,.35-.5.32-1,.32-.5-.31-1-.31h-1c-.5,0-.5,0-1,0s-.5.06-1,.06-.5.1-1,.1-.5.14-1,.14-.5-.55-1-.55-.5,0-1,0-.5.41-1,.41-.5.16-1,.16-.5-.53-1-.53-.5.14-1,.14-.5.25-1,.25-.5-.33-1-.33-.5.07-1,.07-.5.07-1,.07-.5-.09-1-.09-.5.41-1,.41h-1l-1,0c-.5,0-.5-.11-1-.11s-.5-.53-1-.53-.5.62-1,.62-.5-.15-1-.15-.5-.27-1-.27-.5.43-1,.43-.5-.63-1-.63-.5.3-1,.3-.5-.2-1-.2-.5.29-1,.29-.5-.36-1-.36-.5.31-1,.31h-1c-.5,0-.5-.32-1-.32s-.5.32-1,.32-.5-.15-1-.15-.5-.11-1-.11-.5.49-1,.49-.5,0-1,0-.5-.06-1-.06-.5-.29-1-.29-.5.26-1,.26-.5.09-1,.09-.5-.36-1-.36-.5-.08-1-.08-.5.13-1,.13h-1c-.5,0-.5.24-1,.24s-.5,0-1,0-.5-.28-1-.28-.5.21-1,.21-.5-.19-1-.19-.5,0-1,0-.5-.13-1-.13h-1c-.5,0-.5.34-1,.34s-.5-.2-1-.2-.5.29-1,.29-.5.06-1,.06-.5-.35-1-.35-.5-.21-1-.21-.5.25-1,.25-.5.3-1,.3-.5-.34-1-.34-.5.15-1,.15-.5.19-1,.19-.5-.12-1-.12-.5.12-1,.12-.5,0-1,0-.5-.12-1-.12-.5-.09-1-.09-.5.16-1,.16-.5,0-1,0-.5.14-1,.14-.5-.19-1-.19-.5-.34-1-.34-.5.53-1,.53-.5-.43-1-.43-.5.35-1,.35l-1,0c-.5,0-.5-.48-1-.48s-.5.24-1,.24-.5.12-1,.12-.5.16-1,.16-.5-.63-1-.63-.5.51-1,.51-.5,0-1,0-.5-.08-1-.08-.5,0-1,0-.5.16-1,.16-.5-.42-1-.42-.5,0-1,0-.5-.07-1-.07-.5.08-1,.08-.5.23-1,.23-.5-.26-1-.26-.5.19-1,.19-.5-.44-1-.44-.5.52-1,.52-.5-.52-1-.52-.5.48-1,.48-.5-.25-1-.25-.5.13-1,.13-.5-.13-1-.13-.5,0-1,0-.5.34-1,.34-.5-.38-1-.38-.5.45-1,.45-.5-.22-1-.22-.5.21-1,.21h-1c-.5,0-.5-.22-1-.22s-.5-.24-1-.24-.5.12-1,.12-.5-.15-1-.15-.5.16-1,.16-.5.32-1,.32-.5-.48-1-.48-.5.44-1,.44-.5-.37-1-.37-.5-.2-1-.2l-1,0c-.5,0-.5.59-1,.59s-.5-.56-1-.56-.5,0-1,0-.5.05-1,.05h-1c-.5,0-.5.13-1,.13s-.5.11-1,.11-.5.25-1,.25-.5-.14-1-.14-.5-.39-1-.39-.5.11-1,.11-.5.44-1,.44-.5,0-1,0-.5-.08-1-.08-.5-.3-1-.3-.5.26-1,.26-.5-.29-1-.29-.5.45-1,.45-.5-.53-1-.53-.5.34-1,.34-.5-.16-1-.16-.5.36-1,.36-.5-.66-1-.66-.5.56-1,.56-.5.1-1,.1-.5-.13-1-.13-.5,0-1,0-.5-.58-1-.58-.5.19-1,.19-.5.11-1,.11-.5-.31-1-.31-.5.09-1,.09-.5.14-1,.14-.5.24-1,.24-.5-.45-1-.45h-1c-.5,0-.5.12-1,.12s-.5-.07-1-.07-.5.53-1,.53-.5-.58-1-.58-.5.31-1,.31-.5-.32-1-.32-.5.25-1,.25-.5.42-1,.42-.5-.65-1-.65h-1c-.5,0-.5.3-1,.3s-.5.25-1,.25-.5-.48-1-.48-.5.45-1,.45-.5-.11-1-.11-.5-.07-1-.07h-1c-.5,0-.5-.08-1-.08s-.5.2-1,.2-.5-.44-1-.44-.5.11-1,.11-.5.32-1,.32-.5-.14-1-.14-.5.23-1,.23-.5-.46-1-.46-.5.16-1,.16-.5.25-1,.25-.5.15-1,.15-.5-.66-1-.66-.5.23-1,.23-.5.35-1,.35-.5,0-1,0-.5-.4-1-.4-.5-.08-1-.08-.5.56-1,.56-.5-.64-1-.64h-1c-.5,0-.5.48-1,.48s-.5.08-1,.08-.5-.13-1-.13-.5.26-1,.26-.5-.58-1-.58-.5.24-1,.24-.5.24-1,.24-.5-.24-1-.24-.5.1-1,.1-.5-.11-1-.11-.5-.13-1-.13-.5.46-1,.46-.5-.27-1-.27-.5,0-1,0-.5.21-1,.21-.5-.3-1-.3h-1c-.5,0-.5.35-1,.35s-.5-.55-1-.55-.5.06-1,.06-.5.21-1,.21-.5-.16-1-.16-.5.27-1,.27-.5-.08-1-.08-.5.22-1,.22-.5-.25-1-.25-.5-.35-1-.35-.5.17-1,.17-.5.44-1,.44-.5-.06-1-.06-.5-.16-1-.16-.5-.22-1-.22-.5.3-1,.3-.5.11-1,.11-.5-.13-1-.13-.5-.3-1-.3-.5.46-1,.46-.5-.08-1-.08-.5-.3-1-.3-.5.4-1,.4-.5-.68-1-.68-.5.28-1,.28-.5,0-1,0-.5-.2-1-.2-.5.6-1,.6-.5-.08-1-.08-.5-.35-1-.35h-1c-.5,0-.5.47-1,.47s-.5-.14-1-.14-.5-.29-1-.29-.5.43-1,.43-.5-.42-1-.42-.5.22-1,.22-.5.05-1,.05-.5,0-1,0-.5-.07-1-.07-.5-.07-1-.07-.5-.38-1-.38l-1,0h-1c-.5,0-.5.41-1,.41s-.5.19-1,.19-.5-.31-1-.31-.5-.23-1-.23-.5.06-1,.06-.5.41-1,.41-.5-.56-1-.56-.5.15-1,.15-.5.37-1,.37-.5-.23-1-.23-.5-.12-1-.12-.5.37-1,.37-.5-.26-1-.26-.5.21-1,.21S99.8,2,99.3,2s-.5.12-1,.12-.5-.53-1-.53-.5.11-1,.11-.5,0-1,0-.5,0-1,0-.5.16-1,.16-.5-.28-1-.28-.5,0-1,0-.5-.05-1-.05-.5.27-1,.27-.5.08-1,.08-.5-.12-1-.12h-1c-.5,0-.5.21-1,.21s-.5.07-1,.07-.5-.13-1-.13-.5.17-1,.17-.5.12-1,.12h-1c-.5,0-.5-.3-1-.3s-.5-.21-1-.21-.5.27-1,.27-.5-.37-1-.37-.5.48-1,.48-.5-.06-1-.06-.5-.27-1-.27-.5.47-1,.47-.5-.62-1-.62-.5.2-1,.2-.5.29-1,.29-.5-.44-1-.44-.5-.06-1-.06-.5.34-1,.34-.5.27-1,.27-.5-.06-1-.06h-1c-.5,0-.5-.6-1-.6s-.5.16-1,.16-.5-.16-1-.16-.5.66-1,.66-.5-.25-1-.25-.5.19-1,.19-.5-.22-1-.22-.5.18-1,.18-.5-.05-1-.05-.5-.2-1-.2-.5,0-1,0-.5-.09-1-.09-.5,0-1,0-.5,0-1,0-.5-.16-1-.16-.5.38-1,.38-.5.12-1,.12-.5-.41-1-.41-.5.13-1,.13-.5.27-1,.27-.5.13-1,.13-.5-.47-1-.47-.5,0-1,0-.5,0-1,0-.5.22-1,.22-.5-.26-1-.26-.5-.05-1-.05-.5.18-1,.18-.5.06-1,.06-.5.36-1,.36S32.54,2,32,2s-.5.13-1,.13-.5-.51-1-.51-.5.05-1,.05l-1,0c-.5,0-.5.25-1,.25s-.5-.21-1-.21-.5.07-1,.07-.5.26-1,.26-.5-.44-1-.44-.5.27-1,.27-.5-.07-1-.07S20.46,2,20,2s-.5.07-1,.07-.5.09-1,.09-.5,0-1,0-.5-.2-1-.2-.5.15-1,.15-.5.08-1,.08-.5-.44-1-.44-.51-.14-1-.14-.5.31-1,.31-.5-.07-1-.07-.51-.16-1-.16-.5.2-1,.2-.51-.15-1-.15h-1c-.51,0-.51,0-1,0s-.51.11-1,.11S3.3,2,2.79,2s-.74-.55-1.11-.19-.25.59-.25,1.08.66.5.66,1-.19.5-.19,1,.1.5.1,1S2,6.41,2,6.9s-.26.5-.26,1-.12.5-.12,1,.42.5.42,1-.07.5-.07,1,.08.5.08,1,0,.5,0,1-.39.5-.39,1,.34.5.34,1,.1.5.1,1-.44.5-.44,1,.09.5.09,1,.19.5.19,1-.41.5-.41,1,.09.5.09,1,0,.5,0,1,.25.5.25,1-.15.5-.15,1,0,.5,0,1,.16.5.16,1-.07.5-.07,1-.14.5-.14,1-.07.5-.07,1,0,.5,0,1,0,.5,0,1,.44.5.44,1-.38.5-.38,1,.19.5.19,1-.11.5-.11,1,.23.5.23,1-.26.5-.26,1-.08.5-.08,1,.57.5.57,1-.54.5-.54,1,.58.5.58,1-.51.5-.51,1,.39.5.39,1-.45.47-.51,1S1.59,44.24,1.94,44.6Z" transform="translate(0)"/>
</svg>