<svg xmlns="http://www.w3.org/2000/svg" viewBox="0 0 108.97 35.33">
	<defs>
	  <style>.fox-cls-1{fill:#ff6000;fill-rule:evenodd;}</style>
  </defs>
<title>fox</title>
	<path class="fox-cls-1" d="M109,12.84l0-.13,0-.13,0-.14-.35-.15-.35-.17-.33-.18-.32-.19-.32-.2-.3-.2-.3-.23-.3-.22-.29-.23-.28-.24-.28-.25-.27-.26-.27-.27-.27-.25-.28-.28-.26-.27-.53-.54L103,7.78l-.53-.56L102,6.67l-.27-.26-.27-.28-.28-.25-.29-.24-.29-.25-.28-.23-.3-.25-.31-.23V4.55l0-.14,0-.14,0-.14,0-.14,0-.13-.05-.14-.06-.13-.05-.13-.07-.14-.06-.13-.08-.13-.08-.13L99,2.81l-.1-.13-.08-.11-.18-.24-.19-.23-.2-.22-.21-.22-.22-.21-.21-.19-.22-.18L97.18.89H97.1L97,.92l-.08,0-.08,0L96.8,1l-.07.06-.06.07-.06.08-.06.08-.05.08-.06.09,0,.09-.1.19-.1.19-.32-.23-.32-.23-.33-.24L94.88,1,94.54.77,94.21.54,94.05.41,93.89.28,93.73.14,93.59,0l0,0,0,0,0,0,0,0L93.4.25l-.05.15L93.3.58l-.06.19,0,.21-.07.22-.08.46L93,2.11l-.08.39-.06.29-.27,0-.28-.06-.27,0-.28,0-.27,0H90.43l-.27,0-.26,0-.26,0-.26.05-.27,0-.25.06-.27.06-.26.05L88.07,3l-.25.07-.27.09-.25.09-.25.1-.26.1-.26.11-.25.12L86,3.8l-.25.13-.28.13-.25.13L85,4.34l-.24.14-.27.15-.24.07-.33.08-.4.11L83,5l-.49.12L82,5.25l-.55.16-.56.16-.57.17-.54.17L79.53,6l-.26.09-.24.1-.23.1-.21.1-.2.09-.18.1-.17.1-.16.09-.12.09-.11.1-.09.1-.31.09-.32.11-.33.1-.32.11-.33.14-.33.12-.33.14L75,8l-.34.14-.33.15L74,8.47l-.34.14-.34.13-.35.15L72.57,9l-.37.12-.42,0-.43,0H69.65l-.44,0h-.43l-.87,0L67,9.07,66.15,9l-.88-.07-.88-.06L63.5,8.8l-.89-.07-.87-.07-.9-.07L60,8.53l-.88-.06-.88,0L58,8.33l-.19-.07-.12,0-.13,0-.18,0-.2-.05L56.67,8l-.78-.17-1-.21-1.38-.27-1-.15-1-.13-1-.13-1-.12-.47-.05-.47,0-.47,0-.45,0-.46,0-.46,0h-.91l-.45,0-.46,0-.45,0L44,6.8l-.45.06-.46.1L42.68,7l-.46.11-.46.13-.46.14-.46.16-.48.2-.48.2-.48.23-.5.25-.49.26-.08,0h-.1l-.1,0-.09,0-.23.05L37.56,9,37.25,9l-.38.12-.44.12-.53.12-.35,0H34.48l-.36-.05-.36,0-.37-.06-.35,0-.37-.08L32.3,9,31.93,9l-.35-.1-.36-.09-.36-.13-.35-.13-.35-.13-.61-.42-.62-.42-.6-.43-.6-.4-.61-.41-.61-.37-.31-.19-.3-.18-.32-.18-.32-.16L25,5l-.32-.17-.32-.15L24,4.58l-.32-.16-.33-.13L23,4.15,22.65,4l-.34-.11L22,3.81l-.35-.1-.36-.1-.36-.09-.37-.07-.36-.07-.39-.08-.63.06-.63,0-.58.07-.56,0-.26,0-.28,0-.25,0-.26,0L16,3.7l-.24,0-.25,0-.24.07L15,3.92,14.79,4l-.24.09-.25.09-.25.09-.24.11-.25.1-.25.12-.25.13-.25.14L12.55,5l-.25.16L12,5.36l-.27.2-.28.19L11.2,6l-.38.17-.38.16-.4.17-.4.16-.2.07-.2.07L9,6.83l-.2.06L8.62,7,8.41,7l-.22,0L8,7.1l-.21,0-.21,0-.22,0H6.49l-.22,0L6,7.15l-.2-.05-.21,0L5.41,7l-.23-.07L5,6.82l-.23-.1-.2-.12-.06-.14-.05-.09,0,0,0,0h0l0,0H4.21L4,6.25,4,6.52l0,.21.06.15L4.19,7l0,.13.06.11.08.14.11.17-.14,0L4.2,7.48,4,7.44l-.15,0V7.31l0,0,0,0L3.8,7.16,3.74,7.1,3.65,7l-.08-.07-.11-.09-.1-.06-.22-.14-.2-.13-.2-.11-.15-.1-.13-.2-.15-.17-.12-.13-.13-.15-.13-.1L1.8,5.46l-.07,0-.06,0-.08,0-.07,0-.15-.06-.15,0-.16,0-.2,0-.18,0-.22,0H.24L0,5,0,5.2l0,.14,0,.17,0,.16.3.14L.72,6,.85,6,1,6.1l.13.09.12.09.06,0,.05,0,.05.06,0,.08,0,0,0,.07,0,.06,0,.08,0,.07,0,.07V7l0,.09v.09l0,.1v.2l-.12-.1-.1-.08-.08-.05-.09,0-.08,0h-.1L1,7.1l-.15,0,0,.16,0,.12,0,.06,0,.05,0,0,0,.05,0,0,0,.05,0,0,0,0,.08.1.13.09.15.35.15.34L1.83,9,2,9.27l.17.3.17.28.1.15.1.13.08.13.11.13.11.13.1.13.11.13.12.11.11.13.13.1.13.12.13.11.13.11.15.11.15.11.15.1.14.12.17.1.17.09.16.1,0,.15v.47l.47.21.37.16.3.13.25.1.24.09.27.07.32.09.39.13,0,.1,0,.09,0,.06,0,.06v.2l0,.11.15,0,.16,0h.72l.14,0,.27,0,.28,0,.25.05.25.06.26.06.27.05.25,0,.26.05.26,0,.28,0h.57l.36-.13.37-.14.36-.14.37-.13.36-.13.37-.14.36-.12.38-.14H15l.26,0,.26,0,.27,0,.52-.07.51-.08.52-.07.51-.09.52-.09.51-.08.48-.09.51-.08.5-.07.49-.06.26,0,.24,0,.25,0h1.24l.7.18.68.16.66.16.63.15.32.07.31.06.3.05.31.06.3,0,.3.05.3,0,.3,0,.3,0,.31,0,.29,0h1.54l.31,0L31,14l.33,0,.32,0,.33-.06.34-.06.34-.06.35-.09h1.09l.22,0h.44l-.15.14-.16.15-.17.14-.18.15.12,0,.12,0,.11,0,.11.05-.07.2-.08.21-.08.21-.06.2-.11.43-.12.42-.1.43-.08.42-.11.42-.1.44-.08.42-.12.45-.12.44-.13.43-.06.23L33.1,20l-.08.22-.09.23-.09.22-.08.23-.1.22-.1.23-.09,0-.07,0-.06,0-.06.06-.05.05-.06.1-.1.13-.1.17-.2.06-.18.07-.19.08-.19.06-.19.08-.19.07-.2.06-.19.07,0,.05v.07l0,.06v0l-.14,0-.11,0-.08,0h-.53l0,.07,0,.06,0,.08v.07l.56.07.3,0,.08,0,0,0,0,0,0,0-.11.07-.1,0-.11.05-.13.05-.11,0-.11,0-.12,0-.12,0-.25.07-.26,0-.27.05-.29.06v.25h.1l.09,0H29l.09,0-.29.12-.28.09-.29.1-.3.09-.29.07-.3.08-.28.08-.29.07-.29.08-.31.1-.29.09-.3.11-.3.12-.3.14-.16.07-.15.09-.15.08-.15.09-.48.07-.42.07-.4.05-.36,0-.35.06-.35,0-.38,0-.38,0-.43.05-.48,0-.55.06-.61.06-.71.06-.81.07-.93.09-1.06.11h-.49l-.22,0-.23,0-.43,0-.43,0-.41-.06-.39,0-.41,0-.39,0h-.2l-.2,0h-.41l-.21,0h-.22l-.22,0-.22,0-.23,0-.24.06-.24.06-.25.07-.25.08-.28.09L8.86,27l-.28.11,0,0,0,.05v.05l0,.06,0,.06v.48l0,.14,0,.14.05.15,0,.14.07.14.05.14.09.13.08.1.08.1.09.09.17.07.16.07.18,0,.18.06.2.05.18,0,.2,0,.2.06.2,0,.2,0,.22,0,.2,0,.22,0,.21,0h.43l.22,0H13.5l.2,0h.2l.2,0,.19,0,.2,0,.19,0,.18,0,.18-.05.18,0,.16-.06.44,0,.44,0,.46,0h.43l.44,0H18l.44,0h.43l.45,0,.43,0,.46,0h.44l.43,0,.45,0H22l.44,0-.3.09-.4.15-.5.15-.56.17-.61.18-.66.2-.35.09-.34.08-.36.1-.34.07-.35.07-.35.08-.33.07-.34,0-.32,0-.32,0h-.29l-.29,0h-.54l-.24,0-.2-.05-.19-.06-.16-.08L14,30.5l-.1-.12-.34,0H13.3l-.11,0-.1,0H13l-.09,0-.09.05-.1,0-.09.05-.12.07-.25.18-.33.24h-.49l-.27,0-.27,0-.28,0-.27,0h-.15l-.13,0-.14,0H9.77l-.14,0H9.37l-.14,0-.13,0-.12,0-.13.06-.13.07-.1.07-.12.09-.11.09-.11.12-.1.12-.1.13L8,32l-.1.17,0,.37.07.32.1.29.13.25.16.22.18.2.22.17.23.13.25.11.28.09.29.05.3,0,.31,0h.66l.34,0,.36,0,.36,0,.35-.07.35-.07.36-.08.34-.08.35-.08.33-.09.66-.19.59-.16.53-.15.46-.11.68-.09.67-.08.66-.1.66-.11.63-.09.64-.11.65-.12.62-.13.63-.14.64-.13.62-.15.63-.15.62-.16.63-.17.63-.17.63-.17.64-.05L28,31l.66,0,.64-.06.65,0,.65,0,.63,0,.65-.05.64-.06.64-.06.64-.07.62-.08.64-.07.63-.08.61-.1.62-.1.68-.27.69-.28.69-.29.69-.3.35-.16.35-.16.34-.17.35-.16.35-.17.33-.17.34-.19.34-.19.33-.18.32-.21.32-.2.32-.2.3-.22.31-.22.29-.23.29-.23.28-.23.26-.24.27-.24L46,25l.24-.27.24-.27.22-.26.21-.28.27-.16.26-.14.27-.13.23-.11.24-.11.23-.1.23-.09.22-.06.21-.09.21-.05.2,0,.2,0,.21,0,.19,0h.59l.2,0h.19l.2,0,.21,0,.2,0,.21.06.21.06.22.07.21.07.24.08.23.09.49.19.51.2.28.16.24.15.23.14.21.12.2.12.21.11.23.13.24.12.26.13.32.16.34.18.4.19.46.23.52.25.6.29.68.34.23.09.33.12.4.15.46.17.51.18.56.2.58.19.59.21.59.18.59.17.28.09.27.07.27.08.25.06.23,0,.23,0,.21.05.2,0,.17,0h.15l.13,0h.1l.53.06.52.07.54.07.55.07.57.07L70,29l.58.06.57,0,.28,0,.29,0H72l.28,0h.56l.28,0h.28l.26,0,.27,0,.27,0,.27,0,.24,0,.25-.05.25-.06.24-.06.4,0,.38.05.17,0,.16,0,.17,0,.16,0,.15.05.15,0,.16.07.15,0,.32.11.33.13.14.14.15.16.16.16.18.19.35.39.35.38.32.39.26.33.1.15.09.11.07.1,0,.06h.11l.13,0,.13,0,.16,0,.34.11.36.09.35.12.32.11.29.1.19.09.93,0,.94,0,.94,0,.95,0h.93l1,0h.93l.94,0h1.85l.94,0H94l.92,0,.92,0h.91l.91,0,.16,0,.17,0,.15,0,.16,0,.32,0,.3,0h1.19l.29,0h.28l.15,0,.14,0h.14l.15,0,.14,0,.13,0,.16,0,.13,0,.15.06.14.06.14.06.14.08.17.19.17.17.16.16.16.15.16.13.15.14.17.1.15.11.17.1.17.07.18.08.2.07.21.06.22.05.23,0,.27,0,0,.07,0,.09,0,.07,0,.09h.38l.3-.3.25-.28.2-.28.17-.25.11-.26.07-.24,0-.23v-.21l0-.23-.08-.2-.1-.2-.12-.2-.15-.18-.16-.17-.21-.18-.21-.16-.23-.15-.26-.15-.25-.16-.27-.13-.28-.13-.3-.13-.29-.12-.29-.11-.6-.22-.58-.21-.54-.19-.51-.17-.61,0-.56,0-.51,0-.5,0-.48,0-.48,0-.5,0-.53,0-.57,0-.63,0-.7,0-.77,0-.89-.05-1-.05-1.11-.07-1.24-.09-.34-.05-.33-.08L89.55,29l-.32-.1-.16-.06-.15-.05-.15-.06-.17-.05-.16-.09-.16-.07-.17-.08-.16-.08.22,0,.22,0h.22l.23,0,.28-.09.29-.1.28-.09.3-.09.29-.08.3-.08.28-.08.3-.08.3-.05.3-.07.29-.07.32,0,.3,0,.31-.06.3,0,.31,0,.3-.05.3,0,.3,0h.31l.3,0H96.3l.3,0,.29,0,.28,0,.3,0,.28,0,.28,0,.28.06.47,0h1.53l.13,0,.12,0h.13l.12,0,.11,0,.11,0,.13,0,.11,0,.11,0,.24.11.25.14.28.16.29.18.35.21.37.23.22.06.21.06.21,0,.2,0,.2,0H105l.18,0,.17,0,.15,0,.15-.06.14-.05.13-.08.11-.08.11-.08.09-.09.07-.11.07-.12,0-.13,0-.13,0-.13v-.15l0-.16,0-.18-.07-.18-.08-.18-.1-.19-.13-.2-.15-.2-.17-.22-.34-.16-.33-.14-.33-.15-.36-.15L104,25.3l-.34-.15-.33-.14-.34-.14-.34-.14-.35-.13-.36-.12-.36-.12-.37-.1-.35-.1-.38-.1-.38-.08-.59,0-.6,0-.58,0-.61,0-.59,0-.59,0-.59,0-.59,0-.6,0-.58,0-.6,0H93l-.59,0-.6,0-.59,0-.6,0-.32-.08L90,24.31l-.3-.1-.29-.1L89.24,24l-.15,0L89,23.93l-.15-.07-.14-.09-.15-.07-.15-.1-.16-.1.08-.41.06-.39.11-.36.1-.34.12-.3.14-.3.15-.26.17-.25.17-.24.2-.22.19-.2.21-.18.2-.18.21-.17.23-.15.23-.15.46-.28.48-.28.22-.13.24-.14.23-.15.22-.15.23-.15.22-.16.21-.18.21-.18.2-.2.2-.23.18-.22.16-.24h.16l.08,0,.06,0,0-.17,0-.17V16.3l0-.16h.06l.07,0h.13l0,.16,0,.15,0,.15,0,.16,0,.17,0,.16,0,.17,0,.17.09,0,.08,0,.07,0,0,0,0,0,0-.05,0-.07.06-.1.06.14.08.12.07.1.09.09,0,0,0,0,0,0,.07,0,.1.07.14,0v-1l0-.21,0-.19,0-.17,0-.16,0-.16,0-.12.05-.13.08-.11.06-.11.08-.08.1-.1.08-.06.1-.08.1-.06.12,0,.13-.05.13-.05.14,0,.16,0,.17,0,.72-.15.91-.18.51,0h3l.48,0H105l.48,0h.24l.23,0,.25,0,.25,0,.23,0,.23,0,.23,0,.24,0,.29-.18.22-.15.18-.11.17-.1.13-.12.16-.13.18-.15L109,13ZM10.08,7.73V7.59l.22-.16.22-.14.23-.13L11,7l.22-.13.22-.13.23-.1.22-.11.23-.12.22-.09.22-.1.23-.07L13,6.09,13.19,6,13.41,6l.22-.05.22-.06.23,0,.22,0,.23,0,.22,0,.23,0h.92l.23,0,.24,0,.23,0,.25.05.24.05.25,0,0,.09,0,.08,0,.08,0,.08-.14,0-.12,0-.13,0-.14,0h-.25l-.13,0h-.12l-.26,0-.25,0-.25,0-.26,0-.25,0-.28,0-.13,0H14.6l-.13,0h-.17l-.13,0-.15,0-.14,0-.16.06-.17.06-.15.06-.17.07-.17.09H15l.3,0h.32l0,.07,0,.08,0,.07,0,.1H14l-.37,0-.36,0-.36,0-.19,0-.18,0-.18,0-.18,0-.18,0-.16.05-.18,0-.18.05-.16.06-.17.07L11,7.41l-.16.08-.15.09-.15.1-.14.1-.14.12-.06,0,0,0h0l0,0,0,0Zm-1.92,1,.28-.1L8.8,8.5l.38-.13.41-.14L10,8.08l.44-.14.43-.14.23-.07.21-.06.2,0,.2,0,.2-.05.18,0,.19,0,.16,0h.42l.1,0,.09,0,.08.05.05.07,0,.07-.52.1-.49.1L12,8,11.73,8l-.23.07-.23.06L11,8.23l-.24.06-.25.08-.25.1-.24.08-.26.09-.27.11-.27.12H8.75l-.18,0H7.91Zm5.68,3.41v.14l-.16,0-.15,0-.16,0-.16,0-.4-.05-.42-.08L12,12.23l-.41-.08-.4-.09-.4-.09-.42-.11-.43-.1-.36-.19-.4-.23-.23-.13-.23-.12L8.46,11l-.25-.12L8,10.73l-.25-.1-.12,0-.13,0-.11,0-.13,0-.12,0-.11,0-.12,0H6.56l-.1,0-.1,0,0-.11,0-.1.05-.1,0-.09.12,0,.11,0,.11,0,.1,0,.47.22.45.23.44.2.43.18.4.18.4.18.41.15.39.15.2.06.2.06.2.07.21.06.2.06.2,0,.21,0,.2,0,.22,0,.23,0,.23,0,.22,0,.23,0h.74v.13Zm4.82-.48-.23.08-.22.08-.22.09-.23.09-.22.08-.22.08-.23.09h-.34l-.18,0-.16,0-.17,0-.15,0-.14,0-.16,0-.13,0-.15,0-.13,0-.14-.05L15,11.81l-.25-.11-.52-.24-.53-.23-.28-.13L13.12,11l-.15,0-.16-.05-.17,0-.17-.06,0-.07,0-.09,0-.07,0-.08.1,0,.11.05.11,0,.11,0,.2.08.2.09.19.09.2.11.19.1.18.11.19.1.18.11.18.1.19.09.17.09.18.07.09,0,.09,0,.1,0,.1,0,.4,0,.41,0,.41,0,.4,0,.42,0,.39,0,.41,0,.4,0Zm-.1-3.25-.31,0-.3.06-.3.06-.3.07L17,8.71l-.31.09-.3.1L16.1,9l-.31.11-.33.11-.35.14-.36.13h-.81l-.61,0h-.77l-.23,0-.16,0-.13,0-.14,0,.39,0,.37-.05L13,9.28l.37-.05.37-.07.36-.08L14.49,9l.36-.09.35-.1.35-.1.33-.1.35-.11.33-.12.33-.13.31-.13L17.53,8h-.39V7.68l.32-.05.32-.07.31-.06.33-.06.31-.07.32-.06.32-.06.32-.06V7H19.3V6.8l.28,0,.27,0h1.05l.25,0,.25,0,.24,0,.23,0,.24,0,.23,0,.24.06.23,0L23,7.1l.23.06.45.13.45.14.45.15.47.13.47.15L26,8l.24.06.25.05.25.06.26.06v.39h-.12l-.12,0h-.1l-.12,0-.22-.06-.22-.05-.22-.08-.23-.07-.22-.09-.22-.09L25,8l-.23-.1-.23-.08-.23-.08-.23-.07-.24-.06-.12,0h-.13l-.13,0h-.13l.14,0,.13,0,.12,0,.13.06V8l0,.1L23.44,8,23,7.92l-.41-.08-.39-.06-.38-.07-.36,0-.36-.05-.36,0H19.32l-.42,0-.42.06L18,7.75l-.48.09.29,0,.27,0,.28,0,.27,0,.29,0,.28,0,.28,0,.28,0,0,.08,0,.09,0,.07v.06h-.34l-.33,0h-.34Zm4.62,3.53h-.23l-.25,0h-1l-.53,0-.53,0-.53,0-.53,0H19v-.28l.53,0,.51,0,.51,0,.53,0,.51,0,.52,0,.52,0,.51,0v.39Zm2.48-.07v.22l-.54-.15-.54-.17L24,11.6l-.54-.14-.28-.07L23,11.33l-.28,0-.27-.07-.29,0-.28,0-.3,0-.3,0,.1-.08.11,0,.1-.05.13,0,.12,0h.13l.15,0h.43l.16,0,.16,0,.15,0,.15,0,.18,0,.17,0,.32.09.32.1.31.11.3.1.26.11.27.1.21.09.2.08Zm4.24.2-.15.1-.15.12-.15.13-.29,0-.29,0-.29-.05-.29-.06L28,12.15l-.28-.07L27.43,12l-.29-.09-.26-.09-.28-.09-.28-.1L26,11.55l-.55-.2-.56-.21-.56-.21-.54-.22-.56-.19-.58-.19-.28-.1-.28-.08-.29-.08-.3-.08-.3-.06L21,9.86l-.3-.06-.32,0,.1-.08.1-.05.15,0h.38l.22,0,.24,0,.25,0,.28.05.3.08.3.08L23,10l.33.08.33.12.34.1.34.1.67.24.67.25.64.23.58.23.55.21.46.18.36.13.25.1h1.55Zm-2.43,16,0,.13,0,.14,0,.12,0,.14v.12l0,.14,0,.13-.09-.05-.09,0v-.44l0-.09v-.07l0-.09,0-.08.06-.1.06,0,.08,0,.07,0,.08,0Zm6.7-9.5v0l.22,0,.17,0,.13,0h.22l.05,0,.06,0,0,.09-.05.1-.05.1-.05.1-.17,0-.15,0h-.17l-.15,0v-.2ZM32,25.44l.55.06.43,0,.33,0,.23,0h.36l.18,0h.2l0,0,0,0,0,.06,0,0-.05,0-.06,0-.07,0-.07,0h-.55l-.21,0-.2,0-.2,0-.26,0-.32-.06-.4-.07v-.24Zm2.62,1.21-.05,0-.06.08-.07.05-.35,0-.35-.06-.33-.06-.33-.06-.33-.08-.35-.09-.34-.09-.38-.11.2,0h.19l.2,0h1l.18,0,.2,0,.2.05.18,0,.16,0,.17.06.15.06.14.06Zm1.09-4v.08l0,0,0,0,0,.07h-.2l-.2,0H35l-.19,0h-.1l-.09,0-.1,0-.1,0-.1,0-.11.05-.11,0L34,23.2H32.82l.07-.13,0-.08.25-.05.24,0,.21-.06.2-.07.18-.06.17-.08.14-.08.14-.11.12-.1.12-.12.12-.11L35,22l.12-.13.11-.15.13-.16.11-.17h.13l.07,0h.05l-.08.15-.09.14-.06.15-.08.14-.09.15-.08.14-.08.15-.08.15.16,0,.15,0h.33l0,.07v.1Zm4.87-13.2.3-.07.27,0,.26-.06.26,0,.24,0h.68l.21,0,.23,0,.23,0,.23,0,.46.09.53.12,0,.11,0,.13,0,.12,0,.13-.27-.1-.27-.08-.25-.08-.25-.07-.23-.05-.24,0-.22,0-.24,0H42l-.25,0-.26,0-.27,0-.28,0-.32.08V9.63l0-.06Zm-.28.61.22-.06.2,0,.2,0,.18,0,.18,0h.34l.18,0L42,10l.18,0,.18,0,.37.07.4.07v.27l-.39-.05-.34,0-.33,0H41l-.19,0-.2,0-.19,0-.21,0,0-.05,0-.05,0,0,0-.05Zm-.72,1,.14-.06.13,0,.14,0,.12,0h.24l.12,0h.24l.23,0h.49V11l0,.06v.07h-2Zm-.86.85.23-.05.22,0,.24,0,.21,0,.23,0,.22-.05.23,0V12H40l-.18,0-.18,0h-.09l-.1,0-.1,0-.11,0-.09,0-.11,0-.12,0-.1.07h-.25v-.38Zm-1.28,1.33.13-.11.1-.07.1-.08.08-.06.09-.06.08,0,.07,0,.08,0h.08l.1,0h.1l.21,0,.28,0v.14l0,.09,0,.08-.19,0-.16,0-.15,0-.15,0-.06,0-.08,0-.07,0-.08,0-.08.05-.09.06-.09.06-.11.09-.05-.05-.05-.05-.07,0-.05,0ZM36,18H35.8l0-.15,0-.14,0-.16,0-.14,0,.14,0,.15,0,.15,0,.14Zm.81-2.44v.24l-.07,0-.06,0-.08,0-.08,0,0,.13,0,.11,0,.13,0,.13-.05-.06-.05-.08-.05-.05-.07-.05,0-.1,0-.11,0-.08,0-.07,0-.06,0,0,0,0,0,0,0,0h.1l0,0,.11,0,.13,0Zm.83-1.31h-.07l-.05,0-.08,0-.07,0-.07,0-.08.05-.15.11-.17.13-.07,0-.08,0-.09,0-.09,0,0-.06,0-.06,0-.06,0-.05,0,0,0,0,0,0,0,0,.08-.07.09,0,.1,0,.1,0,.1,0,.11,0,.1,0h.11l.2,0h.2v.18l0,.1v.1h-.43ZM40,27.94V28l-.06.05-.08.05-.07.06-.09.07H37.88l0-.08,0-.09,0-.07,0-.09h.84l.25,0,.28,0,.38,0,.49-.06v.17ZM41.26,27l-.19,0-.19,0-.19.05-.19,0-.2.05-.19,0-.2.05h-.39v-.28l.13,0,.12,0,.15,0,.14-.05.2-.06.25-.07.33-.07.4-.1.05,0,0,0,0,0,0,0,0,0v0l0,.06,0,.09Zm2.44-1.9v.08l-.25,0-.25.05-.24,0-.25.06,0,.09,0,.1,0,.09,0,.11-.23.12-.24.14-.23.14-.24.14H40.35v0h0l0,0,0,0h.06l.06,0,.2-.07L41,26l.43-.13L42,25.7v-.24l-.06,0-.06-.05-.07,0-.07,0,.23-.05.25-.05.23,0,.25-.06.24,0,.23-.05.23,0,.24,0v.2Zm.89-1.38-.26.12-.21.1-.18.09-.17.1-.18.1-.2.14-.25.16v-.07l0-.09v-.08l0-.07.23-.14.23-.12.2-.13.23-.12.21-.13.2-.13.21-.13.23-.12,0,.08,0,.09,0,.1,0,.06Zm1.17-1.23-.29,0-.23,0-.18,0-.16,0-.15.05-.16.06-.22.09h-.25v-.28l.3-.08.27-.08.24-.07.23,0,.22,0,.23,0,.22,0,.24,0,0,.08,0,.06,0,.09v.06Zm1.43-1.26v.09l0,.09v.09l-.08,0-.08,0h-.08l-.08,0h-.62l-.23,0h-.45l-.43,0-.38,0h-.38l-.06,0h0l0,0,.08-.06.08-.06.09-.05.08,0,.09,0,.09,0,.09,0,.1,0,.1,0h.09l.1,0,.1,0,.2,0h.6l.22,0,.19,0,.35.06.34.06Zm.54-.55-.4-.09-.4-.09-.41-.07-.42-.07-.43-.05-.44-.06-.46,0,0,0,.05,0,.07,0,.08,0,.09,0h.09l.11,0h.63l.16,0h.13l.15,0,.14,0,.15,0,.15,0,.13,0,.15,0,.13,0,.14,0,.11,0,.11,0,.1.05.11.05.08.05.08,0,.05.06.06.05,0,.05,0,.07Zm1-.57L48.37,20l-.39-.1-.4-.1-.41-.07-.42-.08-.42-.06-.44-.05.1,0,.1,0,.11,0,.1,0h.12l.11,0h.11l.11,0,.25,0h.23l.24,0,.22,0,.13,0,.1,0,.11,0,.11,0,.1,0,.1,0,.1,0,.1,0,.09,0,.09,0,.08.05.07.07L49,20l.08.06.05.07.07.06Zm26.42,4.72h.24l.24,0,.25,0,.25,0,.23,0,.25,0v.25l-.24,0-.24,0h-.25l-.24,0-.25,0H75.2l-.24,0-.25,0V24.8l.25,0ZM73.13,9.69l.17,0,.16,0h.15l.2,0h.94l0,0,0,0,0,0,0,0H73.41l-.25,0h-.23ZM61.76,25l.56.18.75.23,1,.31v.22l0,.1-.47-.12L63,25.74l-.48-.14-.49-.16-.47-.15-.47-.18-.48-.18-.47-.19,0-.11,0-.09v-.1l0-.09.27.13.26.1.25.11.32.1ZM54.14,9.31h.08l.1,0,.09,0h.2l.22,0h.67l.23,0,.23,0,.23,0,.1,0,.1,0,.09,0,.09,0,.09,0,.06.05.09,0,.07,0,.06,0,.06,0,.05.05,0,.05-.35-.06-.34-.07L56,9.65l-.34,0-.35,0-.36,0h-.77l0-.05,0-.06,0,0,0,0ZM54,10.2l.05-.06.05,0,.07,0,.06,0,.06,0,.07,0,.08,0,.08,0H55l.16,0,.16,0,.15.05.15,0,.29.08.22.07v.24l-.27,0-.25,0-.26,0-.26,0h-.52l-.15,0-.15,0-.13,0-.17,0,0-.05,0,0,0-.05,0,0Zm.23,5.39v0l0,.06,0,.06v.53l0,.14v.17h-.25v-.14l0-.15V16.2l0-.13v-.54h.39Zm.13-1.17-.13,0-.13,0-.13.05v.25h-.09v-.55l.13,0,.12,0,.12,0,.12,0,0,.07,0,.08,0,.08,0,.09Zm.25-1.34h-.15l-.07,0,0,0,0,0,0,0-.05,0-.08.1-.1.13v-.13l0-.16v-.13l0-.15.18-.06.17-.07.17-.06.16,0V13l0,.09Zm.23-1.16-.07,0-.08,0-.07.05-.11,0H54.2l-.07,0-.08,0-.11.05V11.7l.1,0,.07,0,.08,0h.29l.16,0,.2,0v.25Zm.43-1.17v.35l-.08,0-.09,0h-.2l-.13,0-.2,0-.25,0-.34,0,0-.07,0-.07,0,0,0-.06,0-.05,0,0,0,0,0,0,0,0h0l0,0,0,0,.08,0h.38l.1,0,.19,0h.18ZM56.67,21h-.38l-.2,0H55.3v-.26h.26l.24,0h.46l.08,0,.08,0,.08,0,.1.06.08,0,.08.08.12.09Zm1.6,1.29L58,22.21l-.24-.11L57.58,22l-.24-.08-.25-.09-.23-.1v-.23l.06,0h.33l.13,0,.13,0,.14,0,.12.05.12.07.25.12.23.13.23.12.2.1v.16l0,.08v.09l-.23-.1Zm1.35,1.4-.18-.07-.18-.1-.15-.1-.16-.1-.07-.06-.05-.05-.08-.06-.05-.06H59l.18,0,.2,0,.22.07.23,0,.23.08.21.09.23.1.2.09.19.1.17.09.08,0,.08.06.05,0,.06,0,0,0,0,0v0l0,0-.16,0-.17,0-.18,0-.17,0-.19,0-.2,0-.19-.05L60,23.83l-.2-.06Zm7.7,3.5-.35,0-.36,0-.36,0-.36,0-.36,0-.36,0-.36,0L64.64,27l-.25-.08-.32-.09-.35-.1-.38-.14-.42-.13-.43-.14-.43-.16L61.66,26l-.41-.16-.2-.09-.17-.09-.17-.08-.18-.07-.14-.07-.14-.08-.13-.08L60,25.18l-.08-.07L59.85,25l0-.08,0-.07.5.18.5.18.48.18.5.17.47.17.49.16.49.16.47.14.5.14.5.12.48.12.51.11.24,0,.25,0,.25,0,.25,0,.25,0,.25,0,.25,0,.25,0v.25Zm.34-9.32h-.19v.39h-.13l0-.18V18l0-.1,0-.07,0-.07,0-.05.05-.06.05-.07,0,.07,0,.08,0,.09,0,.09Zm0-1.8h-.09l-.1,0-.1,0,0,.08,0,.07,0,.08,0,.08v-.34l0-.19v-.18l.13,0,.15,0,.13,0,.12,0,0,.09v.3Zm.17-1h-.13l-.12,0-.13,0-.06.09-.07.1-.09-.05-.08,0v-.35l0,0,0-.05,0-.07h.62v.08l0,.08,0,.08L68,15Zm.45-1.21-.19,0-.18,0-.2,0-.2,0h-.39v-.39l.1-.05.09,0,.09,0,.08,0,.08,0,.07,0h.65v.39Zm.41-1.51-.19,0-.19,0-.2,0-.2,0-.2,0-.19,0-.2,0h-.26l0-.07,0-.07,0-.06,0-.08.15-.07.15,0,.13,0,.11,0,.11,0h.37l.1,0,.09,0,.08,0,.19.07.22.08Zm.74-.91-.2,0-.19,0h-.2l-.39,0H67.13l-.06,0,.07-.05.05,0,.07,0,.06,0,.07,0,.07,0,.07,0,.07,0,.16,0,.14,0,.16,0h.78l.28,0,.25,0,.07.09.06.12.05.1.05.12Zm4.08,17.18-.19.05-.19.06-.2.07h-.38l-.13,0v-.14l.16,0,.16,0,.15,0,.16,0h.16l.15,0,.16,0,.16,0Zm.27-18.09-.1,0-.1,0-.73,0H71.22l-.29,0-.32,0-.39,0v.25H70l-.24,0-.23,0-.24,0-.46-.09-.46-.07-.23,0h-.58l-.12,0-.12,0-.12,0-.13,0-.12,0-.11.05-.12.05-.13.05-.13.07V10.5l.25-.1.21-.09.19-.08.19-.06.16-.05.15,0,.15,0h.42l.15,0,.15,0,.36.06.42.1h3.13l.4,0,.37,0,.37,0,.46-.05v.28l-.1,0Zm.42,15.21-.26-.1v-.27l.29.09.28.09.27.06.25.07.25.05.23,0,.23,0,.24,0,.21,0h1.24l.26,0H78V26l0,.08-.09,0-.09,0-.1,0-.1,0h-.48l-.46,0h-.23l-.22,0-.2,0-.23,0-.2,0-.22,0-.23,0-.22-.06-.24-.07-.23-.07Zm4.77.94-.1,0-.09.06-.1.06-.52,0-.53,0h-.56l-.28,0h-.58l-.29,0-.14,0-.15,0-.14,0-.13,0-.15,0-.12,0L75,26.67l-.13,0-.13-.06-.12-.06-.13-.05-.12-.07.06,0,.05,0h.05l.06,0h.58l.16,0,.16,0,.33.05.3.09.24,0,.2,0,.35,0,.33,0h.33l.32,0h.94l.15,0,.15,0Zm27.12,6.29h.05l0,0,0,.06.08.1.1.15.14.19-.11-.07-.1-.06-.05,0,0,0,0,0,0-.06,0-.07-.06-.09ZM92.49,7.64l.06,0,.09,0,.11,0h.13l.17,0V7.6l0,.07v.12l-.17,0-.13,0-.1,0-.07,0-.05,0,0,0,0,0,0,.07h-.26l0-.09,0-.08,0-.07V7.78l.1-.07.08,0Zm1,6v.07l-.2-.09-.19-.09-.19-.1-.2-.07-.2-.09-.19-.1-.21-.08L91.9,13l0-.1,0-.09v-.1l0-.09-.05,0h-.14l-.15,0-.26.06.06-.13,0-.12,0-.11,0-.08,0-.11,0-.13v-.17l0-.21h.25l0,.16,0,.16,0,.16,0,.16H92l.08,0h.1l0,.1,0,.11.06.11,0,.1.14,0,.13,0,.15,0,.14,0,0,.09L93,13l0,.09,0,.11.15-.06.12-.05.1,0,.08,0,0,0,0,0,0,0,0,0v-.1l0,0,0,0,0,0,0,0,0,0v.25l0,.13,0,.13h-.25v.19ZM87.34,15.4v-.06l.18,0,.18-.06.19-.06.2-.09.41-.17.41-.16.19-.08.19-.08.18-.06.15-.07.15,0,.13,0h.2l-.32.2-.24.17-.21.13-.2.11-.2.1-.24.13-.3.14-.39.17h-.64V15.4ZM87,13.94h-.63v-.13l.33-.11.33-.1.36-.09.34-.11.33-.09.32-.08.27-.06.21-.05.08,0H89l0,0,0,0-.08,0-.27.1-.38.16-.54.19Zm3-2-.13.07-.11.07V12l0-.11v-.1l0-.11.13-.05.09-.05.08,0,.08,0,.06,0,0,0,0,0,0,0,0,0,0,0v-.06l0,0,0-.11.05-.15-.08,0-.06,0,0,0,0,0,0,0,0,0,0,.08,0,.09h-.24v-.07l0,0V11l0-.06h-.19l-.09,0-.1,0-.23.09-.39.18v-.15l0-.07,0-.06.05-.07.05-.07.06-.06.06-.07.15-.12.12-.14.06-.07.05-.08,0,0v-.08l0,0-.23,0-.21,0-.19,0-.19.05-.2.08-.21.09-.25.12-.28.14,0-.07,0-.06,0-.07,0-.06.1-.13.11-.11.12-.12.12-.1L88.5,10l.14-.1.13-.09.15-.08L89,9.63l.13-.07.23-.12.19-.1h-.36l-.18,0h-.16l-.15,0-.16,0-.14,0-.15,0-.14.06L88,9.6l-.15.06-.16.09-.36.17-.4.2V10l0-.06,0-.08.23-.13.25-.13.23-.14.22-.12.25-.1.21-.1L88.51,9l.2-.08L89,8.86l.22-.06.23-.07.23-.06.23,0,.22-.05.25,0,.23,0,0,.24,0,.24,0,.25,0,.25-.25.05-.25.07-.24,0-.25.07,0,.06,0,.08,0,.07.05.08h.7l-.16.11-.16.13-.17.12-.16.13.17,0h.17l.18,0h.18l0,.18,0,.19.05.2,0,.2-.05,0-.05,0h-.12l.06.07.05.08,0,.09.06.08,0,0-.05,0,0,0-.05,0-.13.06-.14.07-.13.07Zm.84,4,.34-.24.33-.21.15-.1.13-.09.13-.06.1,0v.05l0,.06,0,.06,0,.05,0,0,0,.05,0,0-.06.05-.1.08-.12.1-.13.08-.15.09-.13.08-.16.1-.15.1-.15.1-.15.1-.13.12-.06.06-.08.08-.06.07-.05.07h-.26v-.25l.05,0,.09,0,.1-.06.13-.08.29-.2Zm0-3.69v-.13l0-.13,0-.15,0-.19,0-.23L91,11.2l.07,0,.07,0,.08,0,.06,0V12.2l-.1.06-.08,0-.06,0,0,0,0,0,0,0,0,0-.05.07,0-.16Zm1.8-3.2v.14l-.19.1-.19.1L92,9.54l-.2.11v-.3l0,0v0l0,0,0,0,0,0,0,0,.06,0,.06,0,.07,0,.08,0h.12l.15,0h.1v.12Zm0,1.43-.05.13,0,.11-.06.15-.05.17-.07.2-.05.25-.07.31-.09-.05-.08,0v-.52l0-.09,0-.1,0-.09,0-.07.05-.08,0-.07.06,0,.06-.06.06-.06.08-.06.08-.05.07-.05Zm.08,1.92.05-.19,0-.17.05-.18h.08l.07,0,.08,0h.07l0,.18,0,.2-.05.19-.07.2h-.06l-.06,0h-.13Zm1-5.69-.06.09h-1V6.64h.14l.15,0h.72l.13,0ZM89,4.67h1l.23,0,.23,0,.22,0,.22,0,.2,0,.22.06L91.5,5l.22.07.23.07.22.1.22.07,0,.09,0,.09-.45-.09-.44-.12L91,5.18l-.44-.1L90.08,5l-.45-.09-.44-.1-.43-.09Zm-2.32.52V5.12L87,5.07l.25,0,.24,0,.25,0h.23l.22,0h.44l.22,0L89,5l.22.06.21,0,.22.08.22.06.21.07.24.1-.06.08,0,.1-.45-.07-.43-.07-.42-.06-.41,0-.2,0H87.2l-.24,0-.25,0V5.3l0-.06Zm-2.53,2.7-.3.09-.28.09-.27.09-.25.12-.13.06-.13.06-.13.08-.13.08-.15.09-.13.1-.15.12L82,9V8.9l0-.08,0-.08V8.68l.15-.14.14-.13.15-.11.12-.1.13-.1L82.72,8l.12-.08L83,7.88l.13-.05.14,0,.12,0,.15,0,.15,0,.15,0h.34v.23Zm.05-1.09-.1,0H84l-.1,0L84,6.67l.11-.06.11-.08.12-.07.12-.06.11-.06.13-.06.14-.06.26-.1.28-.1.28-.1.28-.06.3-.07.28-.06.29-.05.27-.06.25,0,.25,0H88V6l-.52,0L87,6l-.22,0-.22,0-.22,0-.2,0-.22,0-.21,0-.21.07-.23.08-.23.07-.24.1-.26.1-.27.14Zm.3,1.42V8l.16-.06.16-.06.16,0,.16-.07.16-.06.16-.05.15-.05.15-.06V7.24L86,7.16l.21-.06.22,0,.2-.06.43-.1.42-.07.41-.07.37-.08.17,0,.15,0,.15,0,.13-.06,0,.07,0,.09,0,.08,0,.08-.68.11L87.79,7l-.4.07-.3.07-.27,0-.25.07-.24.07-.3.11.88,0h.76l.67,0,.56,0H91l.08,0h.17v.33h-.49l-.16,0h-.16l-.17,0h-.33v.14l.24,0h.23l.22,0h.22V8l0,.07,0,.07,0,.07h-1.1l-.18,0h-.18V8.5l-.09,0-.08,0-.09,0-.08,0V8.29l0,0,0,0,.06-.05.1,0,.15-.07.18-.1V7.67l0-.09H87.36l-.32,0-.33,0-.31,0-.33,0-.31.08-.16,0-.15,0-.16,0L85.13,8,85,8l-.15.07-.15.05Zm1.72,17.74-.15.06-.15.06-.15.07-.16.07-.16.07-.16.05-.16.08-.15.06,0,.11,0,.1,0,.11,0,.11,0-.07-.05-.08,0-.08-.06-.06,0-.08,0-.08,0-.07,0-.06,0-.07,0-.05,0-.05,0,0,.08-.08.09-.08.1,0,.1,0,.1,0,.1,0,.1,0h.12l.21,0h.22v.22Zm1.11-5.39-.12,0-.13,0-.13,0-.12,0-.14,0-.13,0h-.4l0-.1,0-.08,0-.07v-.08l.15,0,.12,0,.15-.05.14,0,.13,0,.13,0,.13,0,.13,0,0,.09,0,.09,0,.09,0,.1Zm1.48-1.23-.13,0-.13.05-.14,0H87.18l-.17,0-.18,0-.2,0-.24,0,.3-.05.32,0,.31-.06.3-.05.32,0,.31-.05.3,0,.31,0,0,.08,0,.11,0,.09,0,.09ZM89,16.19l-.23.11-.16.08-.11.07-.1.06-.1.07-.2,0h-.39l-.19,0v-.25l.13,0,.11,0,.12,0,.11,0,.22-.08.23-.1.21-.1.2-.09.2-.09.19-.12.37-.19.34-.17.15-.07.15-.07h.15l.07,0h.08l0,.11,0,.12,0,.1,0,.14-.61.24-.45.19Zm2.23,1.41-.08.08-.09.07-.09.07-.1.07-.1.05-.11.06-.11.06-.23.11-.25.1-.25.1-.26.1h-.39v-.26l.28-.08.28-.09L90,18l.29-.11.13,0,.12-.05.13-.07.12-.05.11-.06.09-.08.09-.08.08-.08,0,0,0,0,0,0,0,0Zm2.58-2.77,0,.09-.05.08-.05.1-.08.09-.08.1-.09.1-.1.1-.1.09-.11.09L93,15.8l-.13.1-.13.1-.28.2-.29.2-.28.18-.28.16-.27.16-.26.15-.23.1-.19.1-.2,0h-.18l-.19,0-.2,0,.32-.14.28-.16.27-.14.27-.17.25-.14.25-.15.23-.15L92,16l.22-.15.22-.17.22-.17.22-.17.44-.37.48-.38,0,.06v.15Zm.34-8.49-.21-.06-.09,0h-.18l-.1,0h-.41l-.25,0-.32,0V6l.23,0,.2,0,.16,0h1.21v.49Zm2-1-.11,0-.11,0h-.47l-.2,0v-.1l0-.09v-.1l0-.1,0,.08,0,.06,0,.08,0,.07h-.22l-.08-.14L94.67,5l-.08-.12-.09-.12.05-.07,0-.06,0-.06,0,0V4.5l0-.08v-.1l0-.13.1,0,.09,0H95l.07,0H95l-.06,0h-.12v-.4l.15,0,.15,0,.15,0,.14.06v0l0-.05,0-.06,0-.06-.11-.14-.12-.14-.14-.15L94.79,3,94.73,3l0-.07,0-.07,0-.06h.13l.11,0,.11,0,.11,0,.09,0,.09.06.1,0,.08.06.07.05.09.08.07.07.07.06.06.08.07.08.05.09,0,.09,0,.09.06.1,0,.1,0,.1,0,.1,0,.1,0,.12,0,.12,0,.21,0,.23v.47Zm2.26,4.47v0l-.19,0-.18,0-.2,0-.21,0,0,.09,0,.08-.23,0L97.26,10,97,10l-.25,0,0-.06,0-.05,0-.06,0-.06H97l.05,0h.07l.05,0,0-.06V9.53h.47l.15,0,.15,0h.15l.15,0h.17v.18Zm1.17-.77-.11.13-.12.17-.12.18-.21,0-.19,0-.22,0-.22,0-.2,0-.22,0-.21,0-.21,0V9.12l.2,0H98l.2,0,.21,0,.19,0h.2L99,9l.19,0,.07-.11.06-.13.08-.11.08-.12.08-.07.1-.09.1-.07.1-.07.05,0,.05,0,.06,0h.31l.06,0,.06,0,.05,0h.05l.05,0,.05,0,.05,0-.08.08-.08.06-.08.05-.08,0-.16.07-.17.09-.09.06-.1.05-.08.06-.1.1Zm1.56,1.2-.16,0-.13,0-.11,0-.08,0-.09.05-.11.06-.13.07-.08,0-.1,0H100l-.11,0,0-.13,0-.13,0-.14,0-.14,0-.11V9.53l0-.1,0-.1,0-.09,0-.07.05-.07L100,9l.05-.05.08,0,.06,0,.07,0h.23l.07,0,.09,0,.08.06.09.07.08.09.07.09.08.12.08.12.07.16.07.17,0,.2.06.19Zm1.55.6v.19l-.15-.07-.17-.08-.15-.07-.16-.08-.16-.08-.16-.08-.17-.08-.15-.06.09,0h.27l.08,0H102l.07,0,.08,0,.15.07.14.07.15.07.15.08ZM108.14,13l-.08.07-.1.08-.09.08-.08-.07-.08-.07-.09-.07-.1-.07.14-.1.1-.07h0l0,0H108l0,0,0,0,.08.05.1.06Z"/>
</svg>