<svg xmlns="http://www.w3.org/2000/svg" viewBox="0 0 224.5 34.36">
	<defs>
		<style>.gg-logo-cls-1{fill:#231f20;fill-rule:evenodd;}</style>
	</defs>
	<title>gg-logo</title>
	<path class="gg-logo-cls-1" d="M22.94,19.19v-.35H14.13v.35a3.34,3.34,0,0,1,2.44,1.08c.66.84.72,2.17.72,3.81a11.59,11.59,0,0,1-.48,4,5.11,5.11,0,0,1-4.66,2.45c-5.36,0-8.45-5-8.45-12.22,0-6.6,3.28-12.5,8.6-12.5a7.49,7.49,0,0,1,5.84,2.66,13,13,0,0,1,2.4,5.27h.36V6.1h-.27a9.89,9.89,0,0,1-1,1.43,12.76,12.76,0,0,0-7.55-2.34A11,11,0,0,0,3.43,8.82,14.48,14.48,0,0,0,0,18.21c0,8,4.51,12.85,12.11,12.85a16.8,16.8,0,0,0,8.57-3V23A8,8,0,0,1,21,20.2,2.69,2.69,0,0,1,22.94,19.19Z"/>
	<path class="gg-logo-cls-1" d="M83.54,6.83C81,5.54,78.21,5.64,75.69,5.64c-4.48,0-7.73,0-9.38,0V6a3.27,3.27,0,0,1,2.5,1.22c.45.63.45,2.45.45,4.09v6.81c0,2.55,0,5.94-.06,7.23,0,1.5-.12,3.31-.48,3.81a3.88,3.88,0,0,1-2.36,1.25c-1.8-.35-3-1.33-4.47-3.7-1-1.57-2.29-3.84-3.34-5.59a6.73,6.73,0,0,0-1.93-2.24v-.1c2.68-1,5-3,5-6.42a6.21,6.21,0,0,0-2.94-5.66c-1.72-1-3.76-1.08-6.44-1.08L44,5.68V6a3.35,3.35,0,0,1,2.38,1.08c.48.6.51,2.59.51,4.23v6.81c0,2.55,0,5.94-.06,7.23,0,1.5-.06,3.25-.48,3.84A3.59,3.59,0,0,1,44,30.41v0a3.5,3.5,0,0,1-2.89-2.17c-.48-1.18-.81-2-1.27-3.42C38,18.91,36.06,12.94,33.56,5.19h-.24a6.64,6.64,0,0,1-2.65,2.9l.3.77c-1.89,5.24-4.48,12.33-6.2,16.72a17,17,0,0,1-1.86,3.84,3.69,3.69,0,0,1-2,1v.38h6.47v-.35c-1.06-.14-2.49-.45-2.49-1.68a10.46,10.46,0,0,1,.63-2.65c.54-1.64,1.11-3.21,1.71-5h8a51.12,51.12,0,0,1,2.16,7.68c0,1.33-1.83,1.57-2.1,1.61v.35H53.4v-.35A3.31,3.31,0,0,1,50.55,29a7.61,7.61,0,0,1-.4-3.24c0-1.54,0-3.77,0-6.78a6.84,6.84,0,0,1,1.56.18,5.91,5.91,0,0,1,2.79,2.37,56.68,56.68,0,0,1,4.12,6.63,11.77,11.77,0,0,0,1.74,2.65H77.16c5.56,0,12.51-2.37,12.51-12.92C89.67,11.89,86.88,8.54,83.54,6.83ZM27.45,20.45c1.89-5.48,3.4-9.53,3.85-10.79.73,2.09,2.29,6.63,3.65,10.79Zm22.68-1.92c0-.73,0-6.32.06-9.57a15.76,15.76,0,0,1,.18-2.69A11.83,11.83,0,0,1,52,6.17a6.55,6.55,0,0,1,3.18.73,5.73,5.73,0,0,1,2.95,5.27c0,2.51-1.05,4.78-3.64,5.72A12.28,12.28,0,0,1,50.13,18.53ZM79.51,29.87a9.74,9.74,0,0,1-3,.42,4.17,4.17,0,0,1-3.25-1.08c-.51-.59-.63-2.48-.66-3.81,0-1.54,0-4.08,0-7.05,0-5.51,0-9.6.21-11.87a15.9,15.9,0,0,1,2.92-.28,13.5,13.5,0,0,1,3.1.31C82.91,7.39,86,12.59,86,18,86,24,83.81,28.44,79.51,29.87Z"/>
	<path class="gg-logo-cls-1" d="M103.18,30.08a20.46,20.46,0,0,1-3,.21c-1.59,0-3.16-.28-3.52-.91a9.79,9.79,0,0,1-.45-3.6c0-.91,0-2.9,0-4.16s0-2.76.06-3.39c1.26,0,1.53,0,2.74.07a4,4,0,0,1,2.74,1.18,10.34,10.34,0,0,1,1.77,4.09h.37v-11h-.37c-.48,2.62-1,4.15-3.49,4.82a20.72,20.72,0,0,1-3.79.28c0-.24,0-1.47,0-5,0-3.07.09-5.62.15-6.36a12.48,12.48,0,0,1,2.28-.17,13.92,13.92,0,0,1,5.26.7,16.1,16.1,0,0,1,4.57,4.75l.3-.18-2-5.76H90.12V6a3.08,3.08,0,0,1,2.29,1c.48.6.51,2.66.51,4.3v6.81c0,2.55,0,5.94-.06,7.23,0,1.5-.15,3.21-.55,3.77a3.83,3.83,0,0,1-2.47,1.33v.35h18.41l1.5-6.67-.33-.11C107.44,28,105.7,29.7,103.18,30.08Z"/>
	<path class="gg-logo-cls-1" d="M168.9,19.19a3.32,3.32,0,0,1,2.38,1.2c.62.87.62,2.19.54,3.84a11.64,11.64,0,0,1-.68,4,5.1,5.1,0,0,1-4.78,2.22c-4.63-.22-7.38-4.08-7.81-9.82.25-.39.51-.78.74-1.18a18.38,18.38,0,0,0,2.83-11.29,7.08,7.08,0,0,1,5.58-2.4,7.49,7.49,0,0,1,5.7,2.93A13,13,0,0,1,175.56,14l.36,0,.37-7.6H176A9.46,9.46,0,0,1,175,7.8a12.75,12.75,0,0,0-7.43-2.7,11.94,11.94,0,0,0-5.82,1.06C160.56,2.52,157.44,0,152.14,0c-7.21,0-14.6,5.35-17.4,11.55a12,12,0,0,0-.5,9.28A14.6,14.6,0,0,0,130.88,25c0-1.42,0-2.78,0-3.89,0-3.11.09-5.93.15-7.92a24.32,24.32,0,0,1,.39-5A3.15,3.15,0,0,1,134.24,6V5.68h-7.46V6c1.93.31,2.89,1.15,3.28,2.44a20.17,20.17,0,0,1,.3,4.68V25L116.11,5.68H110V6a3.35,3.35,0,0,1,3.19,3.42c.06,2.69,0,3.32,0,6,0,3.11-.06,5.93-.12,7.93-.06,2.65-.18,4.6-.72,5.59a3.31,3.31,0,0,1-2.59,1.54v.35h7.4v-.35c-1.63-.25-2.53-.74-3-1.78a18.22,18.22,0,0,1-.45-5.34V8.61c5.44,7.09,9.44,12.85,16.3,22,.18.24.39.42.54.42a.26.26,0,0,0,.19-.08c1.19,2,3.65,2.7,6,2.7a21.44,21.44,0,0,0,8.72-1.86,4.51,4.51,0,0,0,4.59,2.6,7.77,7.77,0,0,0,5.19-2.81c.28-.27.73-.79.46-1s-.37.11-.5.26c-2.11,1.91-3.86,2.07-4.91,1.91a3.53,3.53,0,0,1-2.43-2.17,30.64,30.64,0,0,0,8-6.42c1.66,4.07,5.29,6.53,10.49,6.79a16.78,16.78,0,0,0,8.7-2.55l.25-5.09a8.08,8.08,0,0,1,.4-2.78,2.67,2.67,0,0,1,2-.91l0-.35-8.8-.43Zm-10.4-.46c0-.32,0-.63,0-1A16.16,16.16,0,0,1,161.39,9,18.43,18.43,0,0,1,158.5,18.73Zm-14,3.26a19,19,0,0,0,.6,9,19.81,19.81,0,0,1-7.44,1.54c-3.26,0-5.46-1.85-5-5.46a9.51,9.51,0,0,1,2.39-4.72,5,5,0,0,0,3.9,2.12,5.53,5.53,0,0,0,1.61-.32c.18-.1.55-.21.46-.42s-.18-.11-.32-.05a4.81,4.81,0,0,1-1.47.16,4.16,4.16,0,0,1-3.49-2.23,17.67,17.67,0,0,1,3-2.38,74.44,74.44,0,0,1,7.53-4A33.07,33.07,0,0,0,144.52,22Zm2.94,7.79a20.24,20.24,0,0,1-.64-8.64,30.64,30.64,0,0,1,1.42-6.73,28.77,28.77,0,0,0,7.62-5.57c1.46-1.59,2.62-4.34,1.46-5.3s-3.53.85-4.63,1.85a31.78,31.78,0,0,0-6.15,8.8c-3.26,1.48-5.55,2.33-8.35,3.87a20.72,20.72,0,0,0-3.08,2,11.82,11.82,0,0,1,.64-7.85C138.78,5.3,145,1,151.91,1c5,0,8,2.17,9.08,5.54a10.68,10.68,0,0,0-2.28,1.76,14.47,14.47,0,0,0-3.88,9.21,16.36,16.36,0,0,0,.62,5.56A28,28,0,0,1,147.46,29.79Zm1.15-16.43a27.62,27.62,0,0,1,4.77-7.53c.73-.9,2.61-2.39,3.49-1.64s-.46,3-1.65,4.29A30.45,30.45,0,0,1,148.61,13.36Z"/>
	<path class="gg-logo-cls-1" d="M217,5.55V5.9c1.93.31,2.89,1.15,3.28,2.44a20.45,20.45,0,0,1,.3,4.68V24.89L206.36,5.55H193.26V5.9c1.92.31,2.82,1.15,3.22,2.44a23.32,23.32,0,0,1,.33,5c0,2,0,3.42,0,5.94-.06,4.71-.39,10.65-7.22,10.65-4,0-6.31-3.21-6.4-8.17,0-2.24,0-3.84,0-7.05,0-2.51,0-3.6.06-6,.06-2.17,1.59-2.62,2.74-2.79V5.55h-9V5.9a3.33,3.33,0,0,1,2.44,1.22c.45.63.45,2.44.45,4.09v4.64c0,2.55,0,4.75,0,6,0,1.75.09,9.22,8.72,9.22,8.78,0,8.72-7.61,8.78-10.23.06-3.11.15-5.55.18-7.54a25.79,25.79,0,0,1,.42-5.27,3,3,0,0,1,2.55-2.12,3.3,3.3,0,0,1,3,3.37c.06,2.69,0,3.32,0,6,0,3.11-.06,5.94-.12,7.92-.06,2.66-.18,4.61-.72,5.59A3.3,3.3,0,0,1,200,30.34v.35h7.4v-.35c-1.62-.25-2.52-.73-3-1.78a18.08,18.08,0,0,1-.45-5.34V8.48c5.44,7.09,9.45,12.85,16.3,22,.18.24.39.42.54.42s.3-.21.3-.38c0-2.73,0-6.88,0-9.53,0-3.11.09-5.94.15-7.93a24.27,24.27,0,0,1,.39-5A3.15,3.15,0,0,1,224.5,5.9V5.55Z"/>
</svg>