<svg xmlns="http://www.w3.org/2000/svg" viewBox="0 0 17.99 18">
	<defs>
	  <style>.insta-cls-1{fill:#ff6000;fill-rule:evenodd;}</style>
  </defs>
<title>insta</title>
	<path class="insta-cls-1" d="M3.86.25s0-.14.14-.15C6.49-.08,9.89,0,12.62.11c.48,0,1-.06,1.46,0,0,0,0,.14.15.15a2,2,0,0,1,.58.14,2.78,2.78,0,0,1,.58.15c.1,0,.21.25.29.29s.25,0,.29,0c.22.26.71.75,1,1.17.06.08.25.21.29.29s0,.26,0,.3a1,1,0,0,1,.29.44c0,.05,0,.26,0,.29s.08.3.14.58c0,.12.13.15.15.29a49.87,49.87,0,0,1,0,6.14,21,21,0,0,1-.15,3.94,2.67,2.67,0,0,1-.29,1,3.64,3.64,0,0,1-.14.44c-.15.12-.17.3-.29.44s-.25.08-.29.15,0,.25,0,.29A5.06,5.06,0,0,1,16,17c-.08,0,0,.14-.15.15s-.12,0-.14,0c-.2.13-.33.39-.44.44s-.51.09-.73.15A32.72,32.72,0,0,1,9,17.92c-1.71,0-4.15.25-5.69-.15a4.62,4.62,0,0,1-1-.44c-.1-.07-.2-.23-.29-.29a7.9,7.9,0,0,1-.73-.44c-.1-.1-.05-.34-.15-.44S.83,16.08.79,16s-.19-.5-.29-.73c0,0-.12-.56-.14-.58A3.75,3.75,0,0,1,.06,13.1c-.13-2,0-4.88,0-7A11.86,11.86,0,0,1,.21,3.61C.28,3.26.49,3,.5,2.73A2.2,2.2,0,0,1,.94,2a4.27,4.27,0,0,1,.73-.73c.11-.1.17-.36.29-.44s.39,0,.59-.14,0-.14.14-.15.5-.21.88-.29C3.66.23,3.77.27,3.86.25Zm12,3.07s0-.24,0-.29-.22-.21-.29-.29S15,2.17,15,2.15s-.39,0-.73-.15c0,0,0-.13,0-.15s-.38,0-.44,0-.13-.14-.14-.15c-.88-.14-2.7,0-4.53,0A30.82,30.82,0,0,0,4,1.86a2.59,2.59,0,0,0-1.9,1.46A1.48,1.48,0,0,0,2,3.61c0,.13-.14.11-.14.14-.17.7.12,1.55,0,2.34,1.8-.28,4.16.44,5.11-.15.09-.05.19-.24.29-.29A5.47,5.47,0,0,1,10,5.37c.53.09.94.59,1.75.73,1.26.22,2.67-.16,4.38,0C16.11,5.32,16.24,3.65,15.83,3.32ZM1.82,7.7C2,10.22,1.27,14,2.4,15.29a2.65,2.65,0,0,0,1,.73c.15,0,.09.13.15.15a11.41,11.41,0,0,0,2.62.15H9c1.38,0,4.93.29,5.4-.29,0,0,.24,0,.29,0s0-.13,0-.15.24,0,.29,0a15.35,15.35,0,0,0,1-1.17,4.92,4.92,0,0,0,.15-1.61c.06-1.93,0-3.42,0-5.4H12.91a5.38,5.38,0,0,1,.14,3.07,1.17,1.17,0,0,1-.14.44,9.14,9.14,0,0,1-.73,1.17,4.31,4.31,0,0,1-4.23,1.17c-.19,0-.31-.12-.44-.14s-.19,0-.29-.15-.24,0-.29,0S6.74,13,6.63,13a4.42,4.42,0,0,1-1.46-1.75,5,5,0,0,1,0-3.5Zm6,.58a1.86,1.86,0,0,0-.44.87,1.72,1.72,0,1,0,3.36,0,2.71,2.71,0,0,0-.44-.87c-.2-.2-.5-.34-.58-.44S8.84,7.7,9,7.7v.15A1.65,1.65,0,0,0,7.8,8.29Z"/>
  <path class="insta-cls-1" d="M14.44,3a3.34,3.34,0,0,1,0,1.88H12.56V3A3.22,3.22,0,0,1,14.44,3Z"/>
</svg>