<svg xmlns="http://www.w3.org/2000/svg" viewBox="0 0 121.41 127.13">
	<defs>
	  <style>.jub-cls-1{fill:#fff;}.jub-cls-2{fill:#ff6000;}</style>
  </defs>
	<title>jubliee-logo</title>
	<path class="jub-cls-1" d="M120.42,41.67c-1.94-1.47-8.75-4.71-10.5-5.37a42.67,42.67,0,0,0-4.08-1.65,12.53,12.53,0,0,1-3.09-.82c-.55-.33-2.22-.3-3.12-.68a11.94,11.94,0,0,0,1.95-.62c2.44-.7,5-1,4.1-4.37-1-3.55-2.53-1.47-4.54-1.59a7.79,7.79,0,0,1,2,.57c.8,4.51-6.91,5.33-9.83,4.9-1.32-.19-2.68-.28-4-.49a107.79,107.79,0,0,0-12.2-1.12,8.72,8.72,0,0,1-.17-1.62c0-.53.71-1.59.36-1.42,0-.35-.18-1.94-.18-1.94,0-.35.18-.53.18-1.06,0-1.24-.36-2.47-.36-3.89,0-1.24.36-2.48.36-3.89,0-.88-.7-1.77-.7-2.48s.35-1.41.35-2.12c0-3.89-4.59-5.3-5.3-8.66l-3-3A5.47,5.47,0,0,0,66.65,0C65.77,0,64,1.06,62.76,1.06L62.41.88H56.93l-.53.18c-.17-.18-.71-.18-.71-.18a3.93,3.93,0,0,0-.71.18L54.63.88C52,.88,50,.88,50,3.89c0,.53.17,1.59.17,2.47L50,6.72v3.71a1.86,1.86,0,0,0-.36.89c0,.35.53.53.53,1.06,0,1.06-.17,2.12-.17,3.18a9.22,9.22,0,0,0,.28,2A21.37,21.37,0,0,0,50,20.86c0,2.47.17,4.42.17,7.07l-.17.53c0,.18.17,1.59.17,1.77,0,0,0,.14,0,.38-5.29.32-11.1.85-18.28,2-3.17.5-6.34,1-9.49,1.63-1.45.29-2.95.53-4.38.86-1.88.44-14.41,4.09-16,5C-1.46,42.2.57,48.3.67,51.51c.07,2,2.74,1.68,4.6,2.49.39.17,8.73-4.31,18-6,11-2,29-3,26.41-.07v2.29c0,.18.53.71.53.88a4.05,4.05,0,0,1-.17.71l.17.53c0,.53-.17.89-.17,1.77a7.33,7.33,0,0,1,.53,1.42,1.93,1.93,0,0,1-.46,1.13C45,58,38.8,59.92,37.31,60.71c-1.06.55-5,2.86-5.45,3.54-.71,1.19,1.6,6,2.1,7.12,1.7,3.74,3.23,6,7.72,6.21a14.91,14.91,0,0,0,8.59-2.09,1.68,1.68,0,0,0,0,.35c0,1.59.71,3.36.71,4.6,0,1.42-.53,2.83-.53,4.24.36,0,.71,1.77.53,1.41,0,.18-.18.35-.18.53l.18.35c0,.35-.18.35-.18.88a6.28,6.28,0,0,0,.88,3.36c-2.3.53-.7,5-4.25,5-2.83,0-7.25-10.61-11-10.61H31.65a3,3,0,0,1-1.24.17c-.36,0-1.06-.53-1.59-.35l-.35.18H22.8c-.18-.18-.18-.18-.71-.18a3.5,3.5,0,0,0-2.47,2.47c0,.53.18.7.18,1.06l-.35.53c.07.2.13.75.23,1.36a25.3,25.3,0,0,0-.93,4.3c0,2.83,1.76,8.84,1.76,9.72,0,.71-.35,1.41-.35,2.3,2.12,6,5,9,9.55,13.79,6.54,4.77,12.91,6.19,15,6.19,1.41,0,4.78-.71,8.49-.71,11.31-2.47,17.68-12.91,19.1-14,1.58-1.59,3.18-4.06,3.18-6.36h.18a.56.56,0,0,0,.53-.53c0-.71-.35-1.41-.35-2.12,0-.89.71-1.77.71-2.65,0-.53-.18-.53-.18-1.06,0-.89,1.07-1.41,1.07-2.12a5.44,5.44,0,0,0-.36-1.42c0-1.42.36-1.59.36-1.59l-.18-4.24c-.18-.18-.18-.53-.18-1.06,0-1.94.18-3.53.18-4.95L77.08,84c.36-.53.18-1.06.18-1.95,0-2.3-.18-4.6-.18-6.54,0-1.77.18-2.65.18-4.42-.36-.35,0-1.77-.18-1.77,0-.22.07-1,.12-1.6,1.68.47,3.31,1,5,1.43a6.93,6.93,0,0,1,3.95,3c2.61,4.16-.68,4-4.17,4.58-2.11-.55-3.63-.3-3.67-.53.35,1.57,3.67,1.75,6.46,1.32,5.43-.83,6.9-5.8,9.18-9.86.46-.83,1.83-2.66,1.31-3.56-.41-.71-1.31-2.15-4.68-3.84,2,.66-14.29-.27-14.29-6.27,0-2.17-1.13-9.57,1-9,2.78.74,33.76,5.21,36,7,5,4,4,9,1,12.74C119.68,64.53,123.25,43.82,120.42,41.67Z"/>
	<path class="jub-cls-2" d="M60.21,58.45c-.51,0-.6,1.12-.54,2s.3,1.92.77,1.9.59-1.1.55-2S60.73,58.42,60.21,58.45Z"/>
	<path class="jub-cls-2" d="M72.86,38.69s-.08-.32-.16-.47c-.36-.66-1.46-.85-2.39-.72,0,0,0,0,0,.05a11,11,0,0,1,0,1.78c0,.14-.13.28-.15.41-.07.32-.07.66-.13,1.11.26.12.38-.1.61.08,0-.15.42,0,.41-.16.08.07.15-.09.21,0,.16-.16.42,0,.59-.15,0,0,0,0,0,0,.7-.4,1.33-.77,1.17-1.85C72.94,38.73,72.85,38.75,72.86,38.69Z"/>
	<path class="jub-cls-2" d="M120.42,41.67c-1.94-1.47-8.75-4.71-10.5-5.37a42.67,42.67,0,0,0-4.08-1.65,12.53,12.53,0,0,1-3.09-.82c-.55-.33-2.22-.3-3.12-.68a11.94,11.94,0,0,0,1.95-.62c2.44-.7,5-1,4.1-4.37-1-3.55-2.53-1.47-4.54-1.59a7.79,7.79,0,0,1,2,.57c.8,4.51-6.91,5.33-9.83,4.9-1.32-.19-2.68-.28-4-.49a107.79,107.79,0,0,0-12.2-1.12,8.72,8.72,0,0,1-.17-1.62c0-.53.71-1.59.36-1.42,0-.35-.18-1.94-.18-1.94,0-.35.18-.53.18-1.06,0-1.24-.36-2.47-.36-3.89,0-1.24.36-2.48.36-3.89,0-.88-.7-1.77-.7-2.48s.35-1.41.35-2.12c0-3.89-4.59-5.3-5.3-8.66l-3-3A5.47,5.47,0,0,0,66.65,0C65.77,0,64,1.06,62.76,1.06L62.41.88H56.93l-.53.18c-.17-.18-.71-.18-.71-.18a3.93,3.93,0,0,0-.71.18L54.63.88C52,.88,50,.88,50,3.89c0,.53.17,1.59.17,2.47L50,6.72v3.71a1.86,1.86,0,0,0-.36.89c0,.35.53.53.53,1.06,0,1.06-.17,2.12-.17,3.18,0,1.42.76,2.28,1.71,1,.5-.69.38-2.08.4-2.87,0-.28,0-.57,0-.86,0-.54-.07-1.17-.09-1.83S52,9.68,52,9c0-1.12,0-2,0-2s-1-3.22,1.3-3.88a18.21,18.21,0,0,1,2.3-.41,5.9,5.9,0,0,1,1.89-.31h1.15c3.68-.26,7.77-.16,7.81,1L66.93,30c-1.28,0-2.69,0-4.55.06-3.39.14-6.72.25-10.25.43C52,29.6,52,28.68,52,27.76c0-.36.36-1.24.36-1.42a41.93,41.93,0,0,1,0-4.48c0-.16,0-.35,0-.54,0-.36,0-.7,0-1-.07-.81-.36-1.54-1.31-1.54S50,19.8,50,20.86c0,2.47.17,4.42.17,7.07l-.17.53c0,.18.17,1.59.17,1.77,0,0,0,.14,0,.38-5.29.32-11.1.85-18.28,2-3.17.5-6.34,1-9.49,1.63-1.45.29-2.95.53-4.38.86-1.88.44-14.41,4.09-16,5C-1.46,42.2.57,48.3.67,51.51c.07,2,1.23,2.55,2.2,4.32,6,11.06,11.28,7.28,19.69,3,9-4.55,17.45-7.13,27.12-10.93v2.29c0,.18.53.71.53.88a4.05,4.05,0,0,1-.17.71l.17.53c0,.53-.17.89-.17,1.77a7.33,7.33,0,0,1,.53,1.42,1.93,1.93,0,0,1-.46,1.13C45,58,38.8,59.92,37.31,60.71c-1.06.55-5,2.86-5.45,3.54-.71,1.19,1.6,6,2.1,7.12,1.7,3.74,3.23,6,7.72,6.21a14.91,14.91,0,0,0,8.59-2.09,1.68,1.68,0,0,0,0,.35c0,1.59.71,3.36.71,4.6,0,1.42-.53,2.83-.53,4.24.36,0,.71,1.77.53,1.41,0,.18-.18.35-.18.53l.18.35c0,.35-.18.35-.18.88a6.28,6.28,0,0,0,.88,3.36c-2.3.53-.7,5-4.25,5-2.83,0-7.25-10.61-11-10.61H31.65a3,3,0,0,1-1.24.17c-.36,0-1.06-.53-1.59-.35l-.35.18H22.8c-.18-.18-.18-.18-.71-.18a3.5,3.5,0,0,0-2.47,2.47c0,.53.18.7.18,1.06l-.35.53c.17.53.35.71,1.06.71A.59.59,0,0,0,21,90c0-.93.06-1.55.06-1.55,0-.71,3.36-1.06,4.6-1.06.53,0,.7.35,1.06.35s.53,0,.71-.35h3.54a2.31,2.31,0,0,0,.4.27h.73l.28-.28h3c.35,0,.35,1.94.35,2.3,0,.13,0,.31,0,.48.61,3.49,3.06,10.48,9.69,9.65,7.88-1,7.64-13.9,6.94-25.51,0-.1,0-.21,0-.32a1.61,1.61,0,0,0,0-1.32l-.09.05v-.33q.06.14.1.27l.26-.15a.72.72,0,0,1-.38-.5c0-1.19-.07-2.56-.09-4.08,3.11-1.18,10.4-1.53,15.35-1.48-.13,8.9-.55,27.71-1.89,31.73-1.54,4.61-4.49,13.92-15.26,16.26-.9.37-1.76.74-2.42,1.07-1.24,0-2.12-.53-3-.53-.71,0-1.06.18-1.77.18-2.83,0-5.3-1.06-8.13-1.24a3.19,3.19,0,0,0-.32-.95,23.88,23.88,0,0,1-2.87-1.44c0,.08,0,.16,0,.27-.49,0-.53-.16-.53-.59a23.79,23.79,0,0,1-2.22-1.57,1.88,1.88,0,0,1-1.53-1.33c-3.84-3.65-5.91-8-6.34-11.18,0,0,0,0,0-.2C21.08,96,21,95,21,94.07a1.52,1.52,0,0,1-.11-.53,3.27,3.27,0,0,1,.09-.47c0-.3,0-.59,0-.87a.81.81,0,0,0-.79-.42c-.53,0-1.41,2.83-1.41,3.36,0,2.83,1.76,8.84,1.76,9.72,0,.71-.35,1.41-.35,2.3,2.12,6,5,9,9.55,13.79,6.54,4.77,12.91,6.19,15,6.19,1.41,0,4.78-.71,8.49-.71,11.31-2.47,17.68-12.91,19.1-14,1.58-1.59,3.18-4.06,3.18-6.36h.18a.56.56,0,0,0,.53-.53c0-.71-.35-1.41-.35-2.12,0-.89.71-1.77.71-2.65,0-.53-.18-.53-.18-1.06,0-.89,1.07-1.41,1.07-2.12a5.44,5.44,0,0,0-.36-1.42c0-1.42.36-1.59.36-1.59l-.18-4.24c-.18-.18-.18-.53-.18-1.06,0-1.94.18-3.53.18-4.95L77.08,84c.36-.53.18-1.06.18-1.95,0-2.3-.18-4.6-.18-6.54,0-1.77.18-2.65.18-4.42-.36-.35,0-1.77-.18-1.77,0-.22.07-1,.12-1.6,1.68.47,3.31,1,5,1.43a6.93,6.93,0,0,1,3.95,3c2.61,4.16-.68,4-4.17,4.58-2.11-.55-3.63-.3-3.67-.53.35,1.57,3.67,1.75,6.46,1.32,5.43-.83,6.9-5.8,9.18-9.86.46-.83,1.83-2.66,1.31-3.56-.41-.71-1.31-2.15-4.68-3.84,2,.66,4.29.19,6.34.67s3,.26,5.14.83c2.78.74,3.49,1.32,6.23,2.17a17.63,17.63,0,0,0,6,.8C119.68,64.53,123.25,43.82,120.42,41.67ZM36.12,38.29a10.18,10.18,0,0,1,4.64-3.78,2.93,2.93,0,0,1,2.34.17c.3,1.22-.21,2.09-1.23,2.06-.28-.33-.11-.89-.06-1.22-.63-.2-1.87.53-2.2.8-1.46,1.15-3.21,3.21-2.18,5.29.41.84,1.51.93,2.55,1,.59-.8.78-1.9,1.36-2.71-.61-.06-1.26,0-1.33-.53-.13-1,2.05-.71,2.9-.79.09.25.31.35.27.76-1.35.88-1,3-2.2,4a9.22,9.22,0,0,0-2.08.45c0-.35-.52,0-.5-.37C35.88,43.78,35.09,40.2,36.12,38.29Zm-6.77.8c.06,0,.06-.07.12,0a2,2,0,0,1,.47-.54,1,1,0,0,1,.33-.2c.12-.41-.26-.86-.33-1.29a2.92,2.92,0,0,0-.19-.76,1.29,1.29,0,0,0,0-.17c-.09-.06-.21,0-.3-.11-.1-.35.29-.7.66-.86.45.22.12.71.37,1.08-.05.79.57,1.29.4,2a3,3,0,0,1,0,.64c.19.25.11.46.18.75s.13.84.5.67-.12-1,.37-1.23c.08,0,.15,0,.25,0l0,.08a1.25,1.25,0,0,1,.23.24.87.87,0,0,1,.14.47c.11,1.3-1.11,3-2.69,3.91-.76.43-1.15.57-2.45,1.32-1.46.84-1.92,1.48-2,1.79,0,.07,0,.11-.07.12s-.09,0-.13-.06a.49.49,0,0,1-.05-.26c0-.23,0-1.33,2.08-2.52.82-.47,2-.74,3-1.29A3.11,3.11,0,0,0,32,40.53a2,2,0,0,1-.59.4.73.73,0,0,1-.68-.26c-.31.3-.47.76-.92.91a.89.89,0,0,1-.54,0c-.32-.16-.34-.54-.46-.9A4.48,4.48,0,0,1,29.35,39.09ZM25.5,41.4c.21-.29.73-1,1.09-.47.29-.48,1-1.12,1.49-.51a1.43,1.43,0,0,1,.15.31,2.35,2.35,0,0,1,0,.38,8.3,8.3,0,0,1,.14,1c.18-.1.44-.44.61-.21a.47.47,0,0,1,0,.35,4.16,4.16,0,0,1-.51.63.66.66,0,0,1-.43.22c-.22-.07-.31-.27-.33-.54,0-.07,0-.13,0-.2a6.66,6.66,0,0,0-.09-.73,1.24,1.24,0,0,0-.24-.78c-.33,0-.43.46-.56.71a2,2,0,0,1,.06,1c.13.2,0,.46.17.71-.12.24,0,.71-.42.75-.23-.13-.22-.28-.24-.59,0-.15,0-.29-.06-.42s0-.17,0-.24-.06-.18-.07-.25,0-.12,0-.17-.1-.21-.13-.3,0-.4-.21-.54c-.42.22-.5.88-1,.91C24.78,42,25.29,41.69,25.5,41.4Zm-3,3A2.41,2.41,0,0,1,23,43.15s0-.07,0-.1a1.7,1.7,0,0,1,.78-.63.26.26,0,0,1,.17,0c.08-.19.11-.51.42-.56.37.22.3.72.37,1.14s.21.78.3,1.15c.21-.15.4-.63.72-.37a1.28,1.28,0,0,1-.43.91c-.27.24-.65.38-.77.14-.28.45-1.08,1.66-1.8,1.09a.23.23,0,0,1-.08-.12s-.06,0-.08,0A1.65,1.65,0,0,1,22.5,44.44Zm-9.94-1.28a10.25,10.25,0,0,1,4.18-4.29,3,3,0,0,1,2.34-.1c.44,1.18,0,2.1-1,2.19-.31-.3-.21-.87-.19-1.2-.65-.12-1.8.74-2.1,1C14.48,42.1,13,44.35,14.24,46.3c.51.79,1.61.74,2.65.66.49-.86.55-2,1-2.85-.62,0-1.26.16-1.39-.37-.24-1,2-.94,2.79-1.12.12.23.35.31.35.72-1.24,1-.67,3.13-1.73,4.25a9.19,9.19,0,0,0-2,.69c0-.35-.52.06-.54-.31C12.95,48.63,11.75,45.18,12.56,43.15Zm37.12,3.76c-2.73.65-8,2.34-9.47,2.87-5.67,2-15.87,6.81-19.5,8.6C16.34,60.53,9.34,63,5.79,58.54c-1.4-1.78-1.44-2.17.39-3.74.6-.51,2.06-.63,2.9-1a51.75,51.75,0,0,1,17-4.6c4.82-.43,9.54-1.64,14.37-1.91,2.35-.13,6.44-.19,9.21-.44ZM44.14,76.27c-1.48.12-3.12.19-4.1-.92-2.89-3.28,4.66-5.27,6.3-5.89,2.45-.93,2.18-.87,3.34-1v1.05a11.13,11.13,0,0,1,.7,4.29C48,75.26,46.91,76.05,44.14,76.27Zm-1.36,40.6a.62.62,0,0,1-.18-.35l.18-.18a.61.61,0,0,1,.35.18A.38.38,0,0,1,42.79,116.87Zm6.54,4.6c-.17,0-.17-.18-.17-.36a.18.18,0,1,1,.35,0C49.5,121.3,49.5,121.48,49.33,121.48Zm19.45-99,.18.18h-.18ZM58,34c.15,0,.26,0,.35-.06s0-.08.08-.09a.44.44,0,0,0,.22.06s.06-.06.05-.06.15.09.25.08a.47.47,0,0,1,.08-.09c.09,0,.12.07.27.08.4,0,1-.26,1.26.2,0,.59-.66.32-.84.56-.05-.14-.1.07-.16,0a15.69,15.69,0,0,1-.12,2.68c-.15,1.63,0,3.09,1.06,3.81a3.21,3.21,0,0,0,1.5.06c.2-.1.33-.28.53-.38a8,8,0,0,0,1.08-1.39c.25-.76.18-1.59.35-2.15-.13-.27,0-.51-.07-.82,0,0,0,0,0,0a16.13,16.13,0,0,1,.06-2.15c-.24-.29-1-.15-.89-.68.16-.08.3-.27.55-.29a2.54,2.54,0,0,0,.33,0,6.3,6.3,0,0,1,1.59.06c.05.07,0,.2.1.26-.13.27-.54.15-.66.36,0,.06,0,.2-.06.32a1.83,1.83,0,0,0-.23.61,3.05,3.05,0,0,1,0,1.52,10.28,10.28,0,0,1,0,1.75c0,.06-.07.11-.08.17s0,.23,0,.35a5.14,5.14,0,0,1-1,2,3.7,3.7,0,0,1-1.2,1,3.51,3.51,0,0,1-1.08.4c-.54-.18-1.49.1-1.76-.67a2.5,2.5,0,0,1-.91-1.24c0-.33-.34-.68-.23-1.1-.17-.3,0-1-.1-1.34,0-.13.09-.14,0-.29h.08c-.08-.7.29-1.74,0-2.62,0-.1,0-.06,0-.2s-.65,0-.66-.4C57.82,34.21,57.91,34.16,58,34Zm-6.69,9.64c0-.24.28-.32.42-.49.37-.06.79-.18,1,.09.12,0,.12-.16.26-.17a3.64,3.64,0,0,0,.49-.85,2,2,0,0,1,0-.62s0,0,.05,0a2.17,2.17,0,0,1,0-.54,4.46,4.46,0,0,1,.06-.44c0-.05,0-.11,0-.15a6,6,0,0,0,.16-.7s-.06-.08-.06-.1.07-.11.07-.18-.08-.38,0-.52c-.16-.38,0-.68-.15-1.11a7.17,7.17,0,0,0,0-1.19c0-.08.07-.09.08-.16a.08.08,0,0,0-.05.05c-.06-.36-.11-1.08-.14-1.57,0,0,0,0,0,0-.06-.45.09-.63-.09-1.11-.3-.15-1.07.21-1.4-.13a.47.47,0,0,1,.37-.3c0-.09.23-.19.24-.06.09-.1.37,0,.38,0a.55.55,0,0,1,.44-.07c.06,0,.07-.06.11-.08.6.09,1.07-.19,1.59-.08.09.11.07.19.17.31a.52.52,0,0,1-.67.38s0,.1-.05,0a1.62,1.62,0,0,0-.07,1.17,9.2,9.2,0,0,0,0,1.73,8.34,8.34,0,0,0,0,.88,11.51,11.51,0,0,1-.12,2.92s0,.1.06.13a11.28,11.28,0,0,1-.3,2c-.12.29-.34.44-.47.77-.2,0-.24.23-.43.27-.21.24-.84.61-1.19.26A.48.48,0,0,1,51.26,43.65Zm6.47,19.07q-1.14.13-2.27.32l0-.17q.38-.77.79-1.54a3.15,3.15,0,0,0,.54-1.68c-.06-.49-.33-.83-.85-.76A.63.63,0,0,0,55.55,60l-.19.25c-1-.35-.84-1.46.51-1.67a1.19,1.19,0,0,1,1.47,1c.07.55-.26,1-.69,1.73-.23.39-.46.78-.68,1.17l.9-.13c.65-.09.71-.24.76-.63l.16,0Q57.76,62.22,57.74,62.73Zm2.71-.12c-.65,0-1.27-.92-1.38-2.13s.4-2.26,1.12-2.3,1.36.95,1.39,2.16S61.1,62.57,60.45,62.61Zm4.62-.14-1.62,0v-.15c.47,0,.57-.11.58-.81s0-1.47,0-2.21-.17-.78-.72-.78v-.14l1.28-.21q-.05,1.68-.11,3.35c0,.7.06.82.54.84Zm-9.13-7.12c-.9.12-2.26.41-3.84.8,0-2.95,0-6,.05-9.15,2-.62,4.33-.41,6.12-.55,2.9-.23,5.94-.43,8.77-.37h.21l.17,8.66A76.42,76.42,0,0,0,55.94,55.35Zm14,3.56q-1.11,1.76-2.1,3.57c-.13.24-.21.37-.41.29s-.23-.18-.08-.44q1-1.61,2.14-3.18L68.25,59c-.7-.08-.8.07-.93.44l-.05.14h-.16l.32-1.15q1.27.12,2.53.3Zm3.18-18.15s-.11.07-.13,0a2.75,2.75,0,0,1-1.71.68c-.29,0-.58.13-.85.14a7.72,7.72,0,0,1-1.13,0,3.82,3.82,0,0,0-.92-.06c-.26,0-.5.27-.77.15-.37-.54.47-.68.7-1,.11.13.23.09.42.14,0-.12-.08-.3-.12-.44a3.6,3.6,0,0,0,.05-1.45,18.65,18.65,0,0,0,.12-2.43c0-.81.1-1.64,0-2.46a2.64,2.64,0,0,1-1-.08c.08-.1,0,0-.05-.08s.09-.16,0-.18a1.14,1.14,0,0,0,.36-.14c.34.07.57-.12.8,0a4,4,0,0,1,1.33-.18,1.7,1.7,0,0,1,1,.15,1.52,1.52,0,0,1,.21.11,1.61,1.61,0,0,0,.56.24c.47.41,1.14.63,1.21,1.41,0,.14-.05.22,0,.34-.18.5-.29,1.08-.78,1.35.26.23.68.31.91.6.05.06,0,.15.07.21.2.35.47.58.51,1a1.51,1.51,0,0,1-.07.62C74,40,73.4,40.34,73.11,40.76Zm29.29,3.82c.28-.08.56-.25.81-.33.14-.62.11-1.21.25-1.82a2.43,2.43,0,0,0,.05-.39c.09-1.27.7-2.58.73-3.75-.69.15-1.09-.67-.42-.69.09,0,.22.07.35.07.31,0,.57-.07.82.12.24-.07.37.14.61.05.72.58,2.91.44,3.65,1.27a3.48,3.48,0,0,0-.06,1,.57.57,0,0,1-.93-.11c0-.23.08-.55-.11-.77-.88-.28-1.82-.33-2.67-.67-.3.3-.23.71-.31,1a5.65,5.65,0,0,0-.41,1.9c-.16.06,0,.18-.11.37a9.76,9.76,0,0,1,2.06.32.58.58,0,0,0,.2-.4.85.85,0,0,1,.91,0,6.55,6.55,0,0,1-.47,1.69.66.66,0,0,1-.75-.25c.1-.16,0-.32-.06-.49-.27,0-.76-.22-1.21-.27-.23,0-.89,0-.83.11-.24.72,0,1.5-.41,2.16.21.23.83.28,1.08.45a1.32,1.32,0,0,1,.53.07c.09,0,.11-.05.2,0a3.93,3.93,0,0,0,1.3.32c.28-.18.52-.66,1.06-.31a1.71,1.71,0,0,1-.39,1c-.4.46-1.16-.24-1.58,0-.09,0,0-.11-.11-.11-1.15-.15-2.25-.58-3.54-.72-.08,0,0,.12-.12.08.11-.07-.1-.05,0,0A.84.84,0,0,1,102,45C102,44.67,102.17,44.64,102.4,44.57Zm-9.24-1.14s0,0,0-.06c.13-.13.41,0,.5-.08s-.09-.41.1-.46c-.13-.28.09-.57.14-.89,0-.14,0-.27,0-.39s.11-.13.15-.24c.09-.28.06-.65.22-.85a.21.21,0,0,0,0-.16c.32-1.17.23-2.45.44-3.73-.38,0-1.54-.1-1.12-.65.46-.26,1.17.14,1.7,0,.23.11.56,0,.67.14s0,0,0-.07a3.14,3.14,0,0,0,1.25.21c.53.25,1.25.27,2,.54,0,.1.18.2.33.19a2.57,2.57,0,0,1-.23,1.69c-1,.26-.67-.79-.61-1.4-.39-.27-1.08-.16-1.47-.39-.37,0-1-.19-1.3-.2-.37.34-.2,1.12-.38,1.64.2.3-.11,1.23-.11,1.66a13.7,13.7,0,0,1,1.77.23c.16-.51.64-.77,1-.39-.05.09,0,.18-.14.16,0,0,.06,0,.1,0-.09.27,0,.53-.15,1,0,0,0,.07.1.07s-.14,0-.08.14c-.15,0-.15.15-.25.19a.62.62,0,0,1-.6-.19.82.82,0,0,0-.09-.41,4.66,4.66,0,0,0-1.76-.25s0,.06-.09.06c-.11.76-.46,1.56-.5,2.17,0,.06-.11,0-.14,0s.12,0,.1,0a.32.32,0,0,1-.14.21c.19.12.09.2.08.48a3.88,3.88,0,0,1,1,.23,4.83,4.83,0,0,1,1.49.1,1.75,1.75,0,0,0,.64,0c.33-.48.54-1.11,1.22-1.17.1,0,.13.14.24.18-.07.41-.32.61-.46,1s-.31.86-1,.75c-.2,0-.59-.07-.79-.12s-.32-.14-.48-.16a8.79,8.79,0,0,1-1.17-.07,2.49,2.49,0,0,0-.25-.1c-.18,0-.36,0-.54,0a8.57,8.57,0,0,0-1.5-.32c-.1,0-.13-.15-.24-.19S93.07,43.35,93.16,43.43ZM84.7,42a3.7,3.7,0,0,0,0-.77c0-.66.18-1.25.23-2,0-.15,0-.29,0-.42s.11-.24.15-.4c.13-.64.07-1.29.15-1.88s.19-.83.21-1.23a6.53,6.53,0,0,1-1.23-.27c-.1-.6,1-.33,1.54-.37.21,0,.48-.1.59-.09.38.23,1.1,0,1.4.27a1.08,1.08,0,0,1-.16.46,1.46,1.46,0,0,1-.78,0c-.71,1.11-.24,2.58-.76,3.73.1,1-.25,2.29-.26,3.22.76.13,1.21.46,1.94.57.09,0,.24,0,.37,0s.42.16.65.09.38-.56.66-.71a.79.79,0,0,1,.91.1c0,.48-.49.66-.62,1.1a1.4,1.4,0,0,1-1.22.22c-.23,0-.47,0-.69,0a9.93,9.93,0,0,1-1.54-.29,3.69,3.69,0,0,0-.41-.18,3.81,3.81,0,0,0-1-.06c-.2,0-.36.14-.54.13a1,1,0,0,1-.59-.32C83.62,42.2,84.43,42.45,84.7,42Zm-7.87-.4c.32-.12.75-.11,1.07-.23a6.84,6.84,0,0,1-.12-2.12c0-.13.17-.27.2-.4.06-.3-.06-.63,0-.93a3,3,0,0,0,.2-.78c0-.14-.06-.28-.07-.42,0-.76.26-1.49.15-2.23-.25-.1-.63-.11-.76-.32.1-.23.33-.25.53-.28a6.35,6.35,0,0,1,1.28.11c.39-.07,1.6-.12,1.5.33s-.91.2-1.34.17c-.39,1.05-.09,2-.34,3.14a7.82,7.82,0,0,0-.08.86c0,.39-.19.78-.2,1.17,0,.14,0,.27,0,.39-.18,0,.08.48.08.58s-.1.08-.1.06a1.77,1.77,0,0,0,.08.17c.05.18.07.42.09.46a.51.51,0,0,1,0,.42c.36.14,1,.19,1,.54-.5.51-1.35.25-2.14.1-.41-.08-.88.11-1.13-.19S76.83,41.73,76.83,41.59Zm39.06,19c-1.45,5.41-11.06.57-14-.39C98.27,59,95.78,59.7,92,59.33c-1.28-.13-1.57.29-2.74-.31S81,56.37,79,55.75a15.47,15.47,0,0,0-2.09-.49,2.92,2.92,0,0,1,.18-1.16V46.45c.72.06,1.41.12,2,.2,3.2.47,7,.27,9.39.87,3.82,1,8,.71,11.72,2.08,2.36.87,3.66.68,6,1.59a23.3,23.3,0,0,1,6.69,3.55C114.77,56.29,116.59,58,115.9,60.55Z"/>
	<path class="jub-cls-2" d="M24,44.93c.09-.16,0-.39.2-.52A3.13,3.13,0,0,0,24.11,43c-.39-.05-.58.28-.74.57-.06.12-.18.23-.21.31a2.54,2.54,0,0,0-.12.59,1.16,1.16,0,0,0,0,.8C23.3,45.74,23.87,45.24,24,44.93Z"/>
	<path class="jub-cls-2" d="M30.25,40.44a9.64,9.64,0,0,0,0-1.49c-.18.08-.22.19-.37.27-.21.55-.74,1.18-.19,1.75C30,41,30.08,40.55,30.25,40.44Z"/>
	<path class="jub-cls-2" d="M70.73,36.64c.1,0,.44.08.57-.08a.38.38,0,0,0,.19,0,1.11,1.11,0,0,0,.76-1.12c0-.54-.56-.91-1-1.14a2.48,2.48,0,0,0-.89-.3c-.06,1.09,0,1.76-.12,2.74C70.47,36.77,70.6,36.77,70.73,36.64Z"/>
</svg>