<svg xmlns="http://www.w3.org/2000/svg" viewBox="0 0 152.36 39.49">
	<defs>
	  <style>.std-cls-1,.std-cls-2{fill:#fff;}.std-cls-2{fill-rule:evenodd;}</style>
  </defs>
	<title>save-the-date</title>
	<path class="std-cls-1" d="M6.42,16.67A5,5,0,0,0,3,17.09c-1,.46-1.72,1.18-1.32,2.06s1.67.37,3-.11c1.54-.58,3.95-1.5,5,.81.92,2-.4,3.56-2.39,4.47a7.17,7.17,0,0,1-5.34.34l.41-1.39a5.86,5.86,0,0,0,4.39-.2c1.23-.57,2-1.44,1.59-2.38s-1.53-.82-3-.27c-1.89.71-4,1.52-5-.49s.65-3.39,2.17-4.09a7.14,7.14,0,0,1,4.39-.55Z"/>
	<path class="std-cls-1" d="M15.23,10.83l1.34-.49,7.11,7.14-1.62.59-1.88-1.94L16.1,17.62l-.18,2.69-1.54.56Zm1,5.42,3-1.11-2.69-2.79-.08,0Z"/>
	<path class="std-cls-1" d="M33.44,5.14l-1.63,10-1.38.38L23.89,7.81l1.73-.48,5,6,.08,0L31.8,5.6Z"/>
	<path class="std-cls-1" d="M44.78,7.94l-3.45.67.51,2.63,6.08-1.18.27,1.37-7.62,1.48-1.74-9,7.29-1.42.27,1.37L40.63,5l.43,2.23,3.45-.67Z"/>
	<path class="std-cls-1" d="M56.76,1,65.48.3l.12,1.39L62,2l.64,7.71-1.56.13-.64-7.71-3.58.3Z"/>
	<path class="std-cls-1" d="M71.17,9.27,71,.13l1.57,0,.06,3.46,5-.08L77.56,0l1.57,0,.15,9.14-1.57,0-.07-4.28-5,.08.07,4.28Z"/>
	<path class="std-cls-1" d="M90.67,5.77l-3.5-.27L87,8.17l6.17.48L93,10l-7.73-.6L86,.32l7.4.57-.11,1.4-5.84-.45L87.27,4.1l3.5.27Z"/>
	<path class="std-cls-1" d="M104.19,11.59l1.78-9,4.3.85a4.37,4.37,0,0,1,3.06,1.85,4.74,4.74,0,0,1,.57,3.52,4.76,4.76,0,0,1-2,3.13,4.31,4.31,0,0,1-3.42.46Zm4.5-.53a2.7,2.7,0,0,0,2.2-.29,3.48,3.48,0,0,0,1.4-2.23,3.38,3.38,0,0,0-.4-2.52,2.72,2.72,0,0,0-2-1.18l-2.69-.54L106,10.52Z"/>
	<path class="std-cls-1" d="M123.43,6.65l1.37.4,1.55,10-1.66-.48-.38-2.67-4.19-1.21-1.73,2.07-1.57-.45ZM121,11.6l3.11.9-.53-3.84-.08,0Z"/>
	<path class="std-cls-1" d="M132.27,9.37l8.2,3L140,13.72l-3.36-1.25-2.69,7.26-1.47-.55,2.69-7.26-3.37-1.25Z"/>
	<path class="std-cls-1" d="M148.11,21.31l-3.19-1.47-1.12,2.43,5.62,2.59-.59,1.27-7-3.25,3.83-8.3,6.74,3.11L151.77,19l-5.31-2.45-.95,2.06L148.7,20Z"/>
	<path class="std-cls-2" d="M56.32,30a2.4,2.4,0,0,1,2.46,2.67,1.83,1.83,0,0,1-2.41,1.49c-.3-.06-.55-.35-.84-.45a1.77,1.77,0,0,1-1.22-2.07,1.67,1.67,0,0,1,.53-.67C55.39,30.55,56,30.21,56.32,30Zm.46,3.69c.58.12,1.37-.84,1.44-1.48s-.83-1.47-1.4-1.49c-.89,0-1.35.55-1.45,1.89C55.34,33.12,56.06,33.68,56.78,33.69Z"/>
	<path class="std-cls-2" d="M75.56,22.2A2.39,2.39,0,0,1,78,24.87a1.83,1.83,0,0,1-2.41,1.49c-.3-.06-.54-.35-.84-.45a1.77,1.77,0,0,1-1.22-2.06,1.7,1.7,0,0,1,.53-.67C74.64,22.76,75.23,22.42,75.56,22.2ZM76,25.9c.59.12,1.37-.84,1.44-1.48s-.83-1.47-1.4-1.49c-.89,0-1.35.56-1.44,1.9C74.59,25.33,75.31,25.89,76,25.9Z"/>
	<path class="std-cls-2" d="M94.73,30.5a2.4,2.4,0,0,1,2.46,2.67,1.83,1.83,0,0,1-2.41,1.49c-.3-.06-.54-.35-.84-.45a1.77,1.77,0,0,1-1.22-2.06,1.69,1.69,0,0,1,.53-.68C93.8,31.06,94.39,30.71,94.73,30.5Zm.46,3.7c.59.12,1.37-.84,1.44-1.48s-.83-1.47-1.4-1.49c-.89,0-1.35.56-1.44,1.89C93.75,33.62,94.47,34.18,95.19,34.2Z"/>
	<path class="std-cls-2" d="M87.87,38.39a10.31,10.31,0,0,1-5.2.67,7.33,7.33,0,0,1-4.76-2.51,5.23,5.23,0,0,1-.65-1.5c-.35-.77-.73-1.52-1.1-2.29l-.37,0c-.2.6-.4,1.2-.63,1.8a3.54,3.54,0,0,1-.49,1c-1.26,1.48-2.61,2.88-4.59,3.3-2.59.56-7.44,1.75-8.21-2.2a22.05,22.05,0,0,1-.52-2.42,3.78,3.78,0,0,1,2.45-3.85,13.25,13.25,0,0,1,2-.35,2.66,2.66,0,0,1,2.44,1.64,2.7,2.7,0,0,1-1.15,2.8c-1.59.66-2.69.3-3.2-1.48-.06-.24-.31-.43-.46-.64a2.51,2.51,0,0,0-.55.48A3,3,0,0,0,64.2,37c.69.39,1.19,1.1,2.08,1.19a7,7,0,0,0,3.93-.68c.07,0,.12-.15.18-.15,1.72.16,2.22-1.47,3.12-2.34a6.53,6.53,0,0,0,1.24-3.15c.24-1-1.37-5.44,1.23-3.61,2,1.39.74,5,2.33,6.78,1.11,1.25,2.27,2.52,4.07,2.82a6,6,0,0,0,5.79-1.67,3,3,0,0,0,.77-2.93c-.24-.85-.42-1.78-1.39-2.23a1.15,1.15,0,0,0-1.53.35c.24.52,1.08.67.8,1.5A3.11,3.11,0,0,1,85,34.65a2.78,2.78,0,0,1-2.48-2.21,3.31,3.31,0,0,1,2.6-3.38,4.5,4.5,0,0,1,2,.49,4.6,4.6,0,0,1,3,3.67c.19,1-.34,2.07-.56,3.11A3,3,0,0,1,87.87,38.39Z"/>
</svg>