<svg xmlns="http://www.w3.org/2000/svg" viewBox="0 0 68.62 39.71">
	<defs>
		<style>.tag-cls-1{fill:#ff6000;}</style>
	</defs>
	<title>tag</title>
	<path class="tag-cls-1" d="M66.73,22.81l-7.29-8.08c-2.58-2.86-1.88-2.12-4.31-4.8a25.18,25.18,0,0,0-2.53-2.7,6.7,6.7,0,0,0-1.37-.77,8.09,8.09,0,0,0-1.89-.5c-.17,0-.3-.06-.45-.07s-.32.07-.5.08-.32,0-.51,0l-.15,0c-.1.09-.31,0-.4.09s-.06,0-.1,0a4.26,4.26,0,0,0-.41.18s0,0-.1,0l-.2.1-.21.09a6.29,6.29,0,0,1-.73.46C45,6.62,44.43,6.1,44,6.12c0,0-.07-.1-.1-.1a2.83,2.83,0,0,0-.3,0c-.11,0-.2-.1-.29-.12s-.48,0-.6,0-.08.1-.11.1-.18-.07-.25-.07S42.16,6,42.1,6,42,6,42,6c-.27,0-.61.18-.77.21a1.56,1.56,0,0,0-.41.18,8.43,8.43,0,0,0-1.7,1.06C35.43,3.61,28.42,4.29,21.59,5,13.24,5.78,4.6,6.62,1,0L0,.56C3.93,7.88,13,7,21.7,6.13c6.76-.66,13.22-1.29,16.54,2.09-.19.19-.36.37-.47.5s-.15.13-.21.19,0,.1,0,.1c-.2.24-.43.44-.43.58s-.09.07-.11.1a2.42,2.42,0,0,1-.22.39c0,.06,0,.08,0,.1a3.67,3.67,0,0,0-.36,1,3.24,3.24,0,0,0-.06,1.11c.06.06,0,.05,0,.1a3.19,3.19,0,0,0,.08.41.65.65,0,0,0,0,.15c0,.06,0,.06,0,.1s.1.15.14.26,0,.05,0,.1l0,0c0,.06,0,.07,0,.1a5.23,5.23,0,0,1,.45,1,3,3,0,0,0-.7.83c-.18.27-.4.57-.39.74s-.09.07-.11.09,0,0,0,.06-.1.07-.11.09,0,0,0,.06-.09.06-.1.09,0,0,0,.05-.1.07-.11.09a1.9,1.9,0,0,1,0,.2c0,.06,0,.1-.06.15s0,.21-.06.25,0,.27-.07.35,0,.06,0,.1a4,4,0,0,0-.06,1.21,1.32,1.32,0,0,0,0,.35c.06.06,0,.06,0,.1s.08.13.09.21-.06.1-.06.15.08.15.09.21,0,.16,0,.25a2.65,2.65,0,0,0,.13.46,4.35,4.35,0,0,1,.31.77c0,.07.17.28.19.31a20,20,0,0,0,2.23,2.58c4.62,5.13,6.5,7.24,11.07,12.31a21,21,0,0,0,2.53,2.7,2.09,2.09,0,0,0,1.65.33.85.85,0,0,0,.31-.08c.05,0,.08,0,.1,0a4.83,4.83,0,0,0,.89-.71C59.13,35.36,63,31.77,67,28.16a6,6,0,0,0,1.55-1.69.25.25,0,0,1,0-.1c0-.1,0-.16.06-.25a1,1,0,0,0,0-.4c0-.15,0-.23,0-.3C68.47,24.56,67.56,23.73,66.73,22.81ZM43.46,11.2a2.06,2.06,0,0,1-.87,1.68l-.11,0-.09,0a.75.75,0,0,1-.21.07l-.14,0-.1,0a1.67,1.67,0,0,1-1.24-.22l-.07-.06a.33.33,0,0,1-.17-.09,2.29,2.29,0,0,1-.63-.81l-.06-.14,0,0a2,2,0,0,1,0-1c.08.21.17.4.24.63l.41-.12a2.09,2.09,0,0,0,.26.72h0l.15.13.15.14h0a.27.27,0,0,1,.14.06.23.23,0,0,1,.2.11l.15,0,.14,0h.18l.17.14h0l-.12-.14a.34.34,0,0,1,.23-.08,2.3,2.3,0,0,0,.3-.27v0a.31.31,0,0,1,.12-.22.31.31,0,0,1,0-.05.25.25,0,0,1,.07-.2.31.31,0,0,1,0-.12,2,2,0,0,1,0-.27h0v0a.56.56,0,0,1-.06-.14s0,0,0-.1l-.1-.13a.56.56,0,0,1-.08-.17,1.17,1.17,0,0,0-1.47-.21h0c-.08-.22-.16-.46-.25-.67a1.84,1.84,0,0,1,1-.24,1.51,1.51,0,0,1,.35,0,.24.24,0,0,1,.11,0h0l.15.07,0,0,.12.06a2.66,2.66,0,0,1,.85.93l0,.06v.06a.31.31,0,0,1,.08.13.25.25,0,0,1,0,.18A.3.3,0,0,1,43.46,11.2Z"/>
</svg>