<svg xmlns="http://www.w3.org/2000/svg" viewBox="0 0 318.05 138.55">
	<defs>
		<style>.title-cls-1{fill:#ff6000;}</style>
	</defs>
	<title>Asset 14</title>
	<path class="title-cls-1" d="M101.38,60.63a1.88,1.88,0,1,0,2.71,0A1.93,1.93,0,0,0,101.38,60.63Z"/>
	<path class="title-cls-1" d="M120.35,67.88c-.14-.82-1-1.6-1.78-2.47l-6.9-7.65c-2.44-2.71-1.77-2-4.08-4.54a23.81,23.81,0,0,0-2.39-2.56,6.33,6.33,0,0,0-1.29-.73,7.65,7.65,0,0,0-1.79-.48c-.16,0-.28-.06-.43-.07s-.31.07-.47.08-.3,0-.48,0l-.15,0c-.1.09-.3,0-.38.08s-.06,0-.09,0a4,4,0,0,0-.39.17s0,0-.09,0l-.19.09-.2.08a6,6,0,0,1-.69.44c-.54-.22-1.09-.72-1.53-.7,0,0-.06-.09-.09-.1a2.69,2.69,0,0,0-.29,0c-.11,0-.19-.1-.28-.11s-.45,0-.57,0-.07.09-.1.09-.17-.07-.23-.06-.14.08-.2.09h-.09c-.25,0-.58.17-.73.2a1.48,1.48,0,0,0-.39.17,8,8,0,0,0-1.6,1c-3.5-3.6-10.13-3-16.59-2.33-7.9.77-16.06,1.58-19.43-4.69l-1,.53c3.72,6.92,12.26,6.08,20.53,5.27,6.4-.63,12.5-1.22,15.64,2l-.44.47c-.06.07-.14.12-.2.18s0,.09,0,.1c-.19.23-.41.41-.41.55s-.09.07-.1.09a2.28,2.28,0,0,1-.21.36c0,.05,0,.08,0,.1a3.47,3.47,0,0,0-.34.94,3.07,3.07,0,0,0-.05,1c.05.06,0,.05,0,.09a3,3,0,0,0,.08.38.61.61,0,0,0,0,.14c0,.05,0,.06,0,.09s.09.14.13.25,0,0,0,.1l0,0c0,.05,0,.06,0,.09a5,5,0,0,1,.43,1,2.85,2.85,0,0,0-.66.78c-.17.26-.38.54-.37.7s-.09.06-.1.09,0,0,0,.05-.09.06-.1.08,0,0,0,.05-.09.06-.1.09,0,0,0,.05-.09.06-.1.09a1.8,1.8,0,0,1,0,.19c0,.06,0,.09-.05.14s0,.2-.06.23,0,.25-.06.33,0,.06,0,.09A3.79,3.79,0,0,0,89,61.73a1.25,1.25,0,0,0,0,.33c.05.06,0,.06,0,.09s.08.12.09.2-.06.1-.05.14.08.14.08.2,0,.15,0,.24a2.51,2.51,0,0,0,.12.43,4.12,4.12,0,0,1,.3.73c0,.07.16.27.18.29a18.94,18.94,0,0,0,2.11,2.44c4.37,4.85,6.15,6.85,10.47,11.64A19.83,19.83,0,0,0,104.76,81a2,2,0,0,0,1.56.32.8.8,0,0,0,.29-.08s.07,0,.09,0a4.57,4.57,0,0,0,.84-.67c3.84-3.32,7.46-6.72,11.24-10.13a5.69,5.69,0,0,0,1.47-1.6.24.24,0,0,1,0-.09c0-.09,0-.15.05-.24a.93.93,0,0,0,0-.38C120.32,68,120.36,67.94,120.35,67.88ZM98,59.58l-1.82,1.34-.19-.2c.61-.61.58-.88-.34-1.81l-2.13-2.15.22-.22,3.16.33a2,2,0,0,0,1.79-.52,1.15,1.15,0,0,0,0-1.74c-.62-.62-1.58-.54-1.94.67l-.72-.15c-.44-1.78,1.61-2.52,3.22-.89,1.23,1.24,1.41,2.56.73,3.23a2.53,2.53,0,0,1-2.48.34l-1.74-.43Zm2.5,4.54a3.05,3.05,0,1,1,4.32,0A3.06,3.06,0,0,1,100.53,64.12ZM106.68,70l-2.8-2.82.27-.27c.76.77,1,.73,2-.19l1.32-1.31c.93-.92,1-1.19.19-2l.27-.27L110.7,66l-.27.27c-.76-.77-1-.75-2,.18l-1.32,1.31c-.93.92-1,1.2-.2,2Zm8.31.69-7.27,3.1c-.4.16-.64.1-.81-.08s-.17-.79.45-1l6.09-2-1.38-1.39c-.85-.85-1.14-.76-1.77-.38l-.23.14-.19-.2,3.06-2.26.18.19c-.62.62-.58.88.34,1.81l1.79,1.81Z"/>
	<path class="title-cls-1" d="M26.44,42.88c17.52,0,29.66,14.29,29.66,32s-14,32.12-31,32.12C8.91,107,0,96.22,0,90.22c0-2.46,1.23-4.15,4.3-4.15,6.15,0,3.84,15.06,20.75,15.06,12.6,0,18.29-11.68,18.29-26.28S38,49.34,25.05,49.34c-8.15,0-15.37,3.38-17.21,15.06H2.15L6.92,11.68h26C47,11.68,48.72,8.3,50.72,0h3.54L50.41,22.44H11.53L9.22,49.65C12.6,45.5,20.13,42.88,26.44,42.88Z"/>
	<path class="title-cls-1" d="M81.79,14.17h-1l-.17-.7c-.46-1.86-.84-2.66-4.06-2.66H73V25.12c0,3.5.46,4.1,3.36,4.1v1H65.34v-1c2.91,0,3.33-.6,3.33-4.1V10.81h-3.5c-3.19,0-3.57.8-4,2.66l-.18.7h-1l.31-4.94H81.51Z"/>
	<path class="title-cls-1" d="M91.13,25.12c0,3.5.46,4.1,3.36,4.1v1H83.43v-1c2.91,0,3.33-.6,3.33-4.1V14.34c0-3.5-.42-4.1-3.33-4.1v-1H94.5v1c-2.91,0-3.36.6-3.36,4.1v4h10.75v-4c0-3.5-.42-4.1-3.36-4.1v-1h11.1v1c-2.91,0-3.36.6-3.36,4.1V25.12c0,3.5.46,4.1,3.36,4.1v1H98.52v-1c2.94,0,3.36-.6,3.36-4.1V19.87H91.13Z"/>
	<path class="title-cls-1" d="M128,34.18c-1.09,2.55-.38,3.59,3.54,3.59v1.37H120.11V37.77c3.26,0,4.34-.8,5.81-4.15L136.16,10h1l10.29,23.6c1.32,3,2,4.15,5.76,4.15v1.37H137.71V37.77c4.15,0,4.63-1.08,3.54-3.59l-2-4.48h-9.34Zm6.61-15.24-3.73,8.64h7.5Z"/>
	<path class="title-cls-1" d="M181.22,17.71c0-4.72-.61-5.52-4.53-5.52V10.82h11.19v1.37c-4,0-4.53.8-4.53,5.52V39.94h-1.18L162.63,16.62V32.25c0,4.72.61,5.52,4.53,5.52v1.37H156V37.77c3.92,0,4.48-.8,4.48-5.52V17.71c0-4.72-.57-5.52-4.48-5.52V10.82h9.44L181.22,29.6Z"/>
	<path class="title-cls-1" d="M216.57,17.71c0-4.72-.61-5.52-4.53-5.52V10.82h11.19v1.37c-4,0-4.53.8-4.53,5.52V39.94h-1.18L198,16.62V32.25c0,4.72.61,5.52,4.53,5.52v1.37H191.36V37.77c3.92,0,4.48-.8,4.48-5.52V17.71c0-4.72-.57-5.52-4.48-5.52V10.82h9.44L216.57,29.6Z"/>
	<path class="title-cls-1" d="M245.9,12.19V10.82h11.56v1.37c-3.92,0-4.48.8-4.48,5.52v10.9c0,7.41-5.14,11.33-11.37,11.33S230.27,36,230.27,28.61V17.71c0-4.72-.61-5.52-4.53-5.52V10.82h15v1.37c-4,0-4.53.8-4.53,5.52V28.09c0,6.09,3.26,8.92,7.32,8.92s6.94-2.83,6.94-8.92V17.71C250.43,13,249.86,12.19,245.9,12.19Z"/>
	<path class="title-cls-1" d="M261.65,34.18c-1.08,2.55-.38,3.59,3.54,3.59v1.37H253.77V37.77c3.26,0,4.34-.8,5.8-4.15L269.82,10h1l10.29,23.6c1.32,3,2,4.15,5.76,4.15v1.37H271.38V37.77c4.15,0,4.63-1.08,3.54-3.59l-2-4.48h-9.34Zm6.61-15.24-3.73,8.64H272Z"/>
	<path class="title-cls-1" d="M290.63,12.19V10.82h14.91v1.37c-3.92,0-4.53.8-4.53,5.52V31.49c0,4.72.61,5.52,4.53,5.52H311c4.34,0,4.86-1.08,5.47-3.59l.24-.94H318l-.38,6.65h-27V37.77c3.92,0,4.48-.8,4.48-5.52V17.71C295.11,13,294.54,12.19,290.63,12.19Z"/>
	<path class="title-cls-1" d="M133.22,86.13V62.2c0-4.72-.57-5.52-4.48-5.52V55.31h14.91v1.37c-3.92,0-4.53.8-4.53,5.52V83.82c0,7-4.29,10.34-9.63,10.34-4.06,0-7.65-2.36-7.65-5.8a1.94,1.94,0,1,1,3.87,0A3.51,3.51,0,0,0,129.35,92C131.8,92,133.22,90.28,133.22,86.13Z"/>
	<path class="title-cls-1" d="M166.63,56.68V55.31h11.56v1.37c-3.92,0-4.48.8-4.48,5.52V73.1c0,7.41-5.14,11.33-11.37,11.33S151,80.51,151,73.1V62.2c0-4.72-.61-5.52-4.53-5.52V55.31h15v1.37c-4,0-4.53.8-4.53,5.52V72.58c0,6.09,3.26,8.92,7.32,8.92s6.94-2.83,6.94-8.92V62.2C171.16,57.48,170.6,56.68,166.63,56.68Z"/>
	<path class="title-cls-1" d="M208.3,75.7c0,4.39-3.68,7.93-9.53,7.93H181.4V82.26c3.92,0,4.48-.8,4.48-5.52V62.2c0-4.72-.57-5.52-4.48-5.52V55.31h16c5.19,0,8.5,3.16,8.5,7.08a6.64,6.64,0,0,1-3.49,5.85A7.77,7.77,0,0,1,208.3,75.7Zm-16.52-8.12h2.64c3.54,0,5.19-2.26,5.19-5a4.8,4.8,0,0,0-5.19-5.1h-2.64Zm10.19,8c0-3.21-1.94-5.9-6-5.9h-4.2v6.56c0,4.48.61,5.24,4.53,5.24H196C200,81.5,202,78.86,202,75.6Z"/>
	<path class="title-cls-1" d="M212.4,83.63V82.26c3.92,0,4.48-.8,4.48-5.52V62.2c0-4.72-.57-5.52-4.48-5.52V55.31h14.91v1.37c-3.92,0-4.53.8-4.53,5.52V76.74c0,4.72.61,5.52,4.53,5.52v1.37Z"/>
	<path class="title-cls-1" d="M230.9,56.68V55.31h14.91v1.37c-3.92,0-4.53.8-4.53,5.52V76c0,4.72.61,5.52,4.53,5.52h5.43c4.34,0,4.86-1.08,5.47-3.59l.24-.94h1.37l-.38,6.65h-27V82.26c3.92,0,4.48-.8,4.48-5.52V62.2C235.38,57.48,234.81,56.68,230.9,56.68Z"/>
	<path class="title-cls-1" d="M260.77,82.26c3.92,0,4.48-.8,4.48-5.52V62.2c0-4.72-.57-5.52-4.48-5.52V55.31h24.31l.38,6.65h-1.37l-.24-.94c-.66-2.5-1.13-3.59-5.47-3.59h-7.22V67.58h2.6c4.72,0,5.47-.61,5.47-4.53h1.37V74.24h-1.37c0-4-.75-4.53-5.47-4.53h-2.6V76c0,4.72.61,5.52,4.53,5.52h4.25c4.34,0,4.86-1.08,5.47-3.59l.24-.94H287l-.38,6.65H260.77Z"/>
	<path class="title-cls-1" d="M291,82.26c3.92,0,4.48-.8,4.48-5.52V62.2c0-4.72-.57-5.52-4.48-5.52V55.31h24.31L315.7,62h-1.37l-.24-.94c-.66-2.5-1.13-3.59-5.47-3.59H301.4V67.58H304c4.72,0,5.47-.61,5.47-4.53h1.37V74.24h-1.37c0-4-.75-4.53-5.47-4.53h-2.6V76c0,4.72.61,5.52,4.53,5.52h4.25c4.34,0,4.86-1.08,5.47-3.59l.24-.94h1.37l-.38,6.65H291Z"/>
	<path class="title-cls-1" d="M76.16,133c1.66,0,2-.45,2.51-3.13l1.52-8.69c.48-2.67.27-3.1-1.39-3.1l.08-.56h5.59c4.68,0,6,3.61,5.27,8s-3.42,8-8.07,8H76.06Zm4.3-3.53c-.48,2.67-.32,3.1,1.28,3.1h.05c4,0,5.4-3.9,5.94-7s.56-7-3.45-7h-1.9Z"/>
	<path class="title-cls-1" d="M95.95,132.94a4.22,4.22,0,0,0,2.43-1.23l.24.54A5,5,0,0,1,95.25,134c-2.22,0-3.31-2.22-2.86-4.92s2.73-4.89,4.6-4.89a1.85,1.85,0,0,1,2,2.3c-.24,1.39-1.79,3.07-5.11,3.77C93.81,131.9,94.48,132.94,95.95,132.94Zm1.66-6.42c.11-.69-.13-1.26-.8-1.26-1.23,0-2.41,1.44-2.83,3.85,0,.16-.05.29-.08.43C96.24,129,97.39,127.59,97.6,126.52Z"/>
	<path class="title-cls-1" d="M104.1,134c-2.19,0-3.18-2-2.7-4.68.56-3.15,2.83-5.13,4.44-5.13,1.76,0,2.22,1.12,2.11,1.76-.08.43-.32.88-.88.88-1.1,0-.29-1.79-1.36-1.79-.91,0-2.25,1.42-2.75,4.28-.37,2.17.21,3.61,1.87,3.61a3.61,3.61,0,0,0,2.35-1.23l.27.54A4.68,4.68,0,0,1,104.1,134Z"/>
	<path class="title-cls-1" d="M113.46,132.94a4.23,4.23,0,0,0,2.43-1.23l.24.54a5,5,0,0,1-3.37,1.76c-2.22,0-3.31-2.22-2.86-4.92s2.73-4.89,4.6-4.89a1.85,1.85,0,0,1,2,2.3c-.24,1.39-1.79,3.07-5.11,3.77C111.32,131.9,112,132.94,113.46,132.94Zm1.66-6.42c.11-.69-.13-1.26-.8-1.26-1.23,0-2.41,1.44-2.83,3.85,0,.16-.05.29-.08.43C113.75,129,114.9,127.59,115.11,126.52Z"/>
	<path class="title-cls-1" d="M130,124.2c1.87,0,2.08,1.71,1.68,4l-.61,3.66c-.13.62-.08,1.1.27,1.1a2.21,2.21,0,0,0,1.07-.59V133a3,3,0,0,1-1.74.94c-.94,0-1.34-.8-1.15-1.87l.64-3.72c.37-2,.24-2.86-.91-2.86-.86,0-2.33,1.23-2.81,4.12l-.72,4h-1.47l.91-5.24c.35-2,.24-2.86-.91-2.86-.88,0-2.33,1.23-2.81,4.12l-.72,4h-1.5l1.28-7.19c.11-.64.05-1.12-.29-1.12a2.06,2.06,0,0,0-1.07.62v-.64a2.77,2.77,0,0,1,1.74-.91c.94,0,1.34.78,1.15,1.84l-.05.24a3.8,3.8,0,0,1,3-2.19c1.39,0,1.87,1,1.84,2.46A3.89,3.89,0,0,1,130,124.2Z"/>
	<path class="title-cls-1" d="M140.29,124.2c2.25,0,3.26,2.19,2.75,4.89S140.38,134,138.1,134s-2.86-2.22-2.65-3.47l1.6-9.12c.48-2.67.32-3.13-1-3.13l.08-.56,3.18-.67-1.44,8.34A3.85,3.85,0,0,1,140.29,124.2Zm-.45,1.07a2.82,2.82,0,0,0-2.41,2.46l-.45,2.73c-.32,1.76.53,2.57,1.39,2.57,1.55,0,2.59-1.79,3-3.93S141.34,125.27,139.84,125.27Z"/>
	<path class="title-cls-1" d="M149.09,132.94a4.22,4.22,0,0,0,2.43-1.23l.24.54a5,5,0,0,1-3.37,1.76c-2.22,0-3.31-2.22-2.86-4.92s2.73-4.89,4.6-4.89a1.85,1.85,0,0,1,2,2.3c-.24,1.39-1.79,3.07-5.11,3.77C147,131.9,147.62,132.94,149.09,132.94Zm1.66-6.42c.11-.69-.13-1.26-.8-1.26-1.23,0-2.41,1.44-2.83,3.85,0,.16-.05.29-.08.43C149.38,129,150.53,127.59,150.75,126.52Z"/>
	<path class="title-cls-1" d="M160.18,124.2a1.31,1.31,0,0,1,1.34,1.68,1.06,1.06,0,0,1-1.07.91.71.71,0,0,1-.72-.86c.05-.37,0-.56-.24-.56-.77,0-2,1.79-2.73,5.59l-.45,2.59h-1.42l1.28-7.19c.11-.64.05-1.12-.29-1.12a2.06,2.06,0,0,0-1.07.62v-.64a2.77,2.77,0,0,1,1.74-.91c.94,0,1.23.78,1,1.84l-.13.67C158.12,125.13,159.17,124.2,160.18,124.2Z"/>
	<path class="title-cls-1" d="M168.31,133.55l.08-.56c1.79,0,2.22-.45,2.67-3.13l.75-4.09c.45-2.67-.13-2.94-2.08-2.89l.11-.56,4.38-.88-1.47,8.42c-.48,2.67-.24,3.13,1.55,3.13l-.08.56Z"/>
	<path class="title-cls-1" d="M179.3,129.93c-1.36,0-2-.9-1.89-1.5a.6.6,0,0,1,.62-.51c.81,0,0,1.3,1.54,1.3a1.27,1.27,0,0,0,1.19-1.06,1.93,1.93,0,0,0-.64-1.54l-.79-.77a2.37,2.37,0,0,1-.73-2,2.33,2.33,0,0,1,2.4-2c1.19,0,1.56.79,1.5,1.3a.5.5,0,0,1-.48.44c-.77,0-.11-1.14-1.25-1.14a1.16,1.16,0,0,0-1.1,1c-.11.57.13.92.66,1.45l.79.75a2.35,2.35,0,0,1,.73,2A2.63,2.63,0,0,1,179.3,129.93Z"/>
	<path class="title-cls-1" d="M185.68,127.44c-.18,1.06,0,1.61.48,1.61.29,0,.77-.22,1.39-1l0,.59a2.89,2.89,0,0,1-2,1.28c-1,0-1.45-.77-1.14-2.49l.77-4.44h-1.43l.15-.77h1.43l.62-3.52h1.21l-.59,3.52h1.76l-.15.77h-1.76Z"/>
	<path class="title-cls-1" d="M194.32,128.45l.21-1.18h14.06l-.21,1.18Z"/>
	<path class="title-cls-1" d="M218.88,131.74a.48.48,0,0,1-.51-.59,1.59,1.59,0,0,1,.64-.88l2.27-1.74a5.54,5.54,0,0,0,2.3-3.1,2.17,2.17,0,0,0-2.25-2.78,3.16,3.16,0,0,0-3.1,2.41,2.51,2.51,0,0,0,.27,1.6l-.88.83a2.47,2.47,0,0,1-1-2.49c.29-1.74,2.17-3.48,4.92-3.48,2.35,0,4.3,1.36,3.93,3.58s-2.91,3.74-2.91,3.74l-1.23.94a3.58,3.58,0,0,1,3,4.3,5.89,5.89,0,0,1-5.53,4.46c-2.83,0-4.12-2-4-3a.72.72,0,0,1,.75-.67c1,0,.05,2.62,3.31,2.62,1.5,0,3.1-1.1,3.53-3.45.29-1.82-.29-3.29-2-3.61C219.82,130.93,219.44,131.74,218.88,131.74Z"/>
	<path class="title-cls-1" d="M233.09,121.51a1.13,1.13,0,0,1,1.15,1.45.91.91,0,0,1-.92.78.61.61,0,0,1-.62-.74c0-.32,0-.48-.21-.48-.67,0-1.75,1.54-2.34,4.81l-.39,2.23h-1.22l1.1-6.19c.09-.55,0-1-.25-1a1.77,1.77,0,0,0-.92.53v-.55a2.38,2.38,0,0,1,1.49-.78c.8,0,1.06.67.9,1.59l-.12.57C231.32,122.31,232.21,121.51,233.09,121.51Z"/>
	<path class="title-cls-1" d="M240.72,116.42l.07-.48,2.76-.57-2.23,12.72c-.09.53-.07.94.25.94a2.14,2.14,0,0,0,.92-.51V129a2.6,2.6,0,0,1-1.52.8c-.64,0-1-.41-1-1.06a3.22,3.22,0,0,1-2.18,1.15c-1.93,0-2.78-1.91-2.39-4.23s2.32-4.21,4.25-4.21a2.74,2.74,0,0,1,1.5.39l.46-2.78C242,116.81,241.87,116.42,240.72,116.42Zm.23,6.39a1.92,1.92,0,0,0-1.43-.58c-1.36,0-2.32,1.63-2.64,3.47s0,3.31,1.31,3.31a2.43,2.43,0,0,0,2-2.14Z"/>
</svg>