<svg xmlns="http://www.w3.org/2000/svg" viewBox="0 0 20.13 16.6">
	<defs>
	  <style>.twit-cls-1{fill:#ff6000;fill-rule:evenodd;}</style>
  </defs>
	<title>twit</title>
	<path class="twit-cls-1" d="M5.5,16.6c0-.08-.1-.07-.16-.08a11,11,0,0,1-3.13-.58A6.08,6.08,0,0,1,0,14.71,8,8,0,0,0,6,13a4,4,0,0,1-3.86-2.87,2.38,2.38,0,0,0,1.72-.17,4.12,4.12,0,0,1-3.29-4,9.51,9.51,0,0,0,1.72.49c.1-.37-.45-.5-.66-.74C.79,4.72.1,2.3,1.23.82A11.72,11.72,0,0,0,9.86,5.17,4.2,4.2,0,0,1,13.47,0h.91c.26.11,1,.21,1.4.41s.91.85,1.4.9C18,1.4,18.65.59,19.55.49A4.81,4.81,0,0,1,18.4,2.22c-.13.12-.7.23-.41.41a15,15,0,0,0,2.14-.57c-.31.33-.48.71-.82,1.07s-1.1.7-1.23,1.15a6.67,6.67,0,0,0,0,1.4,12,12,0,0,1-3.45,7.47A11.88,11.88,0,0,1,7,16.6Z"/>
</svg>